{
.appVersion = "1342";
DisplayStrings = (
afforismo
);
classes = (
{
automatic = 1;

glyphs = (
{
color = 6;
glyphname = A;
layers = (
{
anchors = (
{
name = bottom;
position = "{360, 0}";
},
{
name = ogonek;
position = "{700, 0}";
},
{
name = top;
position = "{376, 705}";
}
);
layerId = "16643525-C5DD-48EC-8E99-463BF28F5E85";
paths = (
{
closed = 1;
nodes = (
"89 -3 OFFCURVE",
"161 0 OFFCURVE",
"186 0 CURVE SMOOTH",
"286 0 LINE",
"291 67 LINE",
"165 81 LINE",
"225 22 LINE",
"225 64 OFFCURVE",
"229 91 OFFCURVE",
"237 118 CURVE SMOOTH",
"378 574 LINE",
"341 574 LINE",
"470 140 LINE SMOOTH",
"480 108 OFFCURVE",
"484 80 OFFCURVE",
"492 7 CURVE",
"546 87 LINE",
"418 60 LINE",
"423 -5 LINE",
"483 -3 OFFCURVE",
"587 0 OFFCURVE",
"612 0 CURVE SMOOTH",
"700 0 LINE",
"705 67 LINE",
"582 87 LINE",
"662 42 LINE",
"649 69 OFFCURVE",
"630 101 OFFCURVE",
"620 133 CURVE SMOOTH",
"419 716 LINE",
"320 705 LINE",
"134 161 LINE SMOOTH",
"117 114 OFFCURVE",
"102 85 OFFCURVE",
"63 21 CURVE",
"154 82 LINE",
"42 60 LINE",
"47 -5 LINE"
);
},
{
closed = 1;
nodes = (
"487 192 LINE",
"487 269 LINE",
"229 269 LINE",
"229 192 LINE"
);
}
);
width = 747;
},
{
anchors = (
{
name = bottom;
position = "{359, 0}";
},
{
name = ogonek;
position = "{690, 0}";
},
{
name = top;
position = "{362, 705}";
}
);
layerId = "4E6502B1-B066-4D3E-9BD1-B1D9901B4F4F";
paths = (
{
closed = 1;
nodes = (
"96 -3 OFFCURVE",
"160 0 OFFCURVE",
"185 0 CURVE SMOOTH",
"270 0 LINE",
"275 53 LINE",
"170 68 LINE",
"201 42 LINE",
"204 68 OFFCURVE",
"205 100 OFFCURVE",
"214 128 CURVE SMOOTH",
"363 593 LINE",
"342 593 LINE",
"491 175 LINE SMOOTH",
"508 131 OFFCURVE",
"516 89 OFFCURVE",
"524 41 CURVE",
"552 74 LINE",
"446 42 LINE",
"449 -5 LINE",
"496 -3 OFFCURVE",
"563 0 OFFCURVE",
"588 0 CURVE SMOOTH",
"690 0 LINE",
"695 53 LINE",
"598 70 LINE",
"640 45 LINE",
"625 77 OFFCURVE",
"605 114 OFFCURVE",
"593 151 CURVE SMOOTH",
"386 715 LINE",
"331 705 LINE",
"154 160 LINE SMOOTH",
"140 117 OFFCURVE",
"116 73 OFFCURVE",
"102 44 CURVE",
"142 69 LINE",
"46 42 LINE",
"50 -5 LINE"
);
},
{
closed = 1;
nodes = (
"505 225 LINE",
"505 276 LINE",
"222 276 LINE",
"222 225 LINE"
);
}
);
width = 741.5;
}
);
leftKerningGroup = UC_A;
rightKerningGroup = UC_A;
unicode = 0041;
},
{
color = 3;
glyphname = Aogonek;
layers = (
{
anchors = (
{
name = bottom;
position = "{361, 0}";
},
{
name = ogonek;
position = "{704, 0}";
},
{
name = top;
position = "{381, 705}";
}
);
components = (
{
name = ogonekcomb;
transform = "{1, 0, 0, 1, 284, 0}";
}
);
layerId = "16643525-C5DD-48EC-8E99-463BF28F5E85";
paths = (
{
closed = 1;
nodes = (
"47 -5 OFFCURVE",
"157 0 OFFCURVE",
"187 0 CURVE SMOOTH",
"292 0 LINE",
"297 71 LINE",
"176 83 LINE",
"232 28 LINE",
"236 65 OFFCURVE",
"237 88 OFFCURVE",
"245 115 CURVE SMOOTH",
"379 558 LINE",
"344 559 LINE",
"465 129 LINE SMOOTH",
"474 99 OFFCURVE",
"477 65 OFFCURVE",
"480 34 CURVE",
"481 124 LINE",
"452 0 LINE",
"620 0 LINE",
"704 0 LINE",
"709 71 LINE",
"588 90 LINE",
"674 38 LINE",
"652 73 OFFCURVE",
"641 97 OFFCURVE",
"630 128 CURVE SMOOTH",
"430 716 LINE",
"318 705 LINE",
"129 161 LINE SMOOTH",
"115 118 OFFCURVE",
"90 77 OFFCURVE",
"67 36 CURVE",
"148 84 LINE",
"42 65 LINE",
"47 -5 LINE"
);
},
{
closed = 1;
nodes = (
"483 179 LINE",
"483 263 LINE",
"232 263 LINE",
"232 179 LINE"
);
}
);
width = 751;
},
{
anchors = (
{
name = bottom;
position = "{359, 0}";
},
{
name = ogonek;
position = "{690, 0}";
},
{
name = top;
position = "{361, 705}";
}
);
components = (
{
alignment = -1;
name = ogonekcomb;
transform = "{1, 0, 0, 1, 367, 0}";
}
);
layerId = "4E6502B1-B066-4D3E-9BD1-B1D9901B4F4F";
paths = (
{
closed = 1;
nodes = (
"50 -5 OFFCURVE",
"160 0 OFFCURVE",
"185 0 CURVE",
"269 0 LINE",
"274 52 LINE",
"169 68 LINE",
"200 42 LINE",
"202 68 OFFCURVE",
"205 100 OFFCURVE",
"213 128 CURVE SMOOTH",
"364 595 LINE",
"342 594 LINE",
"491 176 LINE SMOOTH",
"507 132 OFFCURVE",
"517 86 OFFCURVE",
"525 42 CURVE",
"525 76 LINE",
"502 0 LINE",
"587 0 LINE",
"690 0 LINE",
"695 52 LINE",
"599 68 LINE",
"640 44 LINE",
"625 76 OFFCURVE",
"605 114 OFFCURVE",
"592 151 CURVE SMOOTH",
"385 715 LINE",
"332 705 LINE",
"154 160 LINE SMOOTH",
"141 118 OFFCURVE",
"118 72 OFFCURVE",
"103 45 CURVE",
"144 69 LINE",
"46 42 LINE",
"50 -5 LINE"
);
},
{
closed = 1;
nodes = (
"505 237 LINE",
"505 287 LINE",
"222 287 LINE",
"222 237 LINE"
);
}
);
width = 741.1;
}
);
leftKerningGroup = UC_A;
rightKerningGroup = UC_A;
unicode = 0104;
},
{
color = 6;
glyphname = AE;
layers = (
{
anchors = (
{
name = bottom;
position = "{627, 0}";
},
{
name = top;
position = "{661, 720}";
}
);
layerId = "16643525-C5DD-48EC-8E99-463BF28F5E85";
paths = (
{
closed = 1;
nodes = (
"85 -3 OFFCURVE",
"138 0 OFFCURVE",
"182 0 CURVE",
"281 0 LINE",
"286 67 LINE",
"160 80 LINE",
"212 41 LINE",
"215 65 OFFCURVE",
"223 100 OFFCURVE",
"231 118 CURVE SMOOTH",
"448 550 LINE",
"411 556 LINE",
"491 129 LINE SMOOTH",
"498 96 OFFCURVE",
"502 67 OFFCURVE",
"503 37 CURVE",
"554 85 LINE",
"439 60 LINE",
"444 -5 LINE",
"506 -3 OFFCURVE",
"600 0 OFFCURVE",
"633 0 CURVE",
"655 24 LINE",
"617 187 LINE",
"550 542 LINE SMOOTH",
"545 570 OFFCURVE",
"541 643 OFFCURVE",
"539 676 CURVE",
"539 705 LINE",
"420 705 LINE",
"142 161 LINE SMOOTH",
"129 135 OFFCURVE",
"80 62 OFFCURVE",
"70 46 CURVE",
"139 82 LINE",
"42 60 LINE",
"47 -5 LINE"
);
},
{
closed = 1;
nodes = (
"509 192 LINE",
"507 269 LINE",
"242 269 LINE",
"244 192 LINE"
);
},
{
closed = 1;
nodes = (
"918 14 LINE",
"933 184 LINE",
"867 189 LINE",
"854 129 LINE SMOOTH",
"850 112 OFFCURVE",
"829 73 OFFCURVE",
"803 42 CURVE",
"856 93 LINE",
"841 89 OFFCURVE",
"799 80 OFFCURVE",
"755 80 CURVE SMOOTH",
"529 80 LINE",
"529 0 LINE",
"785 0 LINE SMOOTH",
"813 0 OFFCURVE",
"861 -2 OFFCURVE",
"899 -4 CURVE"
);
},
{
closed = 1;
nodes = (
"829 260 LINE",
"827 301 OFFCURVE",
"826 341 OFFCURVE",
"826 382 CURVE SMOOTH",
"826 466 LINE",
"769 471 LINE",
"755 367 LINE",
"788 409 LINE",
"769 403 OFFCURVE",
"735 397 OFFCURVE",
"712 397 CURVE SMOOTH",
"529 397 LINE",
"529 322 LINE",
"692 322 LINE SMOOTH",
"722 322 OFFCURVE",
"774 317 OFFCURVE",
"804 315 CURVE",
"755 352 LINE",
"769 254 LINE"
);
},
{
closed = 1;
nodes = (
"911 547 LINE",
"904 692 LINE",
"885 710 LINE",
"847 707 OFFCURVE",
"789 705 OFFCURVE",
"771 705 CURVE SMOOTH",
"529 705 LINE",
"529 630 LINE",
"744 630 LINE SMOOTH",
"784 630 OFFCURVE",
"831 625 OFFCURVE",
"856 623 CURVE",
"801 675 LINE",
"815 647 OFFCURVE",
"834 603 OFFCURVE",
"836 590 CURVE SMOOTH",
"843 542 LINE"
);
}
);
width = 996;
},
{
anchors = (
{
name = bottom;
position = "{618, 0}";
},
{
name = top;
position = "{680, 720}";
}
);
layerId = "4E6502B1-B066-4D3E-9BD1-B1D9901B4F4F";
paths = (
{
closed = 1;
nodes = (
"86 -3 OFFCURVE",
"140 0 OFFCURVE",
"185 0 CURVE",
"270 0 LINE",
"275 53 LINE",
"169 68 LINE",
"196 32 LINE",
"201 53 OFFCURVE",
"214 118 OFFCURVE",
"219 128 CURVE SMOOTH",
"434 624 LINE",
"413 626 LINE",
"508 130 LINE SMOOTH",
"512 104 OFFCURVE",
"516 79 OFFCURVE",
"515 33 CURVE",
"547 73 LINE",
"443 42 LINE",
"447 -5 LINE",
"494 -3 OFFCURVE",
"564 0 OFFCURVE",
"586 0 CURVE",
"622 21 LINE",
"593 166 LINE SMOOTH",
"515 538 LINE SMOOTH",
"511 582 OFFCURVE",
"503 668 OFFCURVE",
"502 684 CURVE",
"502 705 LINE",
"404 705 LINE",
"166 160 LINE SMOOTH",
"159 142 OFFCURVE",
"119 70 OFFCURVE",
"96 44 CURVE",
"142 69 LINE",
"46 42 LINE",
"50 -5 LINE"
);
},
{
closed = 1;
nodes = (
"546 236 LINE",
"544 287 LINE",
"230 287 LINE",
"232 236 LINE"
);
},
{
closed = 1;
nodes = (
"908 14 LINE",
"923 163 LINE",
"869 168 LINE",
"854 100 LINE SMOOTH",
"851 86 OFFCURVE",
"831 61 OFFCURVE",
"817 43 CURVE",
"847 67 LINE",
"829 63 OFFCURVE",
"785 55 OFFCURVE",
"745 55 CURVE SMOOTH",
"539 55 LINE",
"539 0 LINE",
"775 0 LINE SMOOTH",
"792 0 OFFCURVE",
"851 -2 OFFCURVE",
"889 -4 CURVE"
);
},
{
closed = 1;
nodes = (
"828 272 LINE",
"826 308 OFFCURVE",
"825 344 OFFCURVE",
"825 380 CURVE SMOOTH",
"825 464 LINE",
"781 469 LINE",
"767 364 LINE",
"798 404 LINE",
"784 402 OFFCURVE",
"739 394 OFFCURVE",
"711 394 CURVE SMOOTH",
"539 394 LINE",
"539 340 LINE",
"691 340 LINE SMOOTH",
"717 340 OFFCURVE",
"781 332 OFFCURVE",
"803 329 CURVE",
"767 370 LINE",
"781 266 LINE"
);
},
{
closed = 1;
nodes = (
"902 562 LINE",
"895 692 LINE",
"876 710 LINE",
"838 707 OFFCURVE",
"780 705 OFFCURVE",
"762 705 CURVE SMOOTH",
"451 705 LINE",
"451 651 LINE",
"732 651 LINE SMOOTH",
"768 651 OFFCURVE",
"809 648 OFFCURVE",
"829 645 CURVE",
"796 664 LINE",
"811 651 OFFCURVE",
"832 622 OFFCURVE",
"834 612 CURVE SMOOTH",
"845 557 LINE"
);
}
);
width = 989.4;
}
);
leftKerningGroup = UC_AE;
rightKerningGroup = UC_E;
unicode = 00C6;
},
{
color = 6;
glyphname = B;
layers = (
{
anchors = (
{
name = bottom;
position = "{332, 0}";
},
{
name = top;
position = "{332, 705}";
}
);
layerId = "16643525-C5DD-48EC-8E99-463BF28F5E85";
paths = (
{
closed = 1;
nodes = (
"100 -3 OFFCURVE",
"177 0 OFFCURVE",
"205 0 CURVE SMOOTH",
"255 0 OFFCURVE",
"324 -5 OFFCURVE",
"374 -5 CURVE SMOOTH",
"499 -5 OFFCURVE",
"604 60 OFFCURVE",
"604 188 CURVE SMOOTH",
"604 304 OFFCURVE",
"514 363 OFFCURVE",
"391 368 CURVE",
"434 308 LINE",
"434 427 LINE",
"394 365 LINE",
"496 371 OFFCURVE",
"573 442 OFFCURVE",
"573 543 CURVE SMOOTH",
"573 648 OFFCURVE",
"472 710 OFFCURVE",
"357 710 CURVE SMOOTH",
"307 710 OFFCURVE",
"229 705 OFFCURVE",
"179 705 CURVE SMOOTH",
"152 705 OFFCURVE",
"96 708 OFFCURVE",
"60 710 CURVE",
"55 640 LINE",
"176 619 LINE",
"118 668 LINE",
"118 666 OFFCURVE",
"132 580 OFFCURVE",
"132 549 CURVE SMOOTH",
"132 157 LINE SMOOTH",
"132 131 OFFCURVE",
"122 61 OFFCURVE",
"118 36 CURVE",
"179 83 LINE",
"54 60 LINE",
"59 -5 LINE"
);
},
{
closed = 1;
nodes = (
"279 64 OFFCURVE",
"271 141 OFFCURVE",
"271 187 CURVE SMOOTH",
"271 519 LINE SMOOTH",
"271 569 OFFCURVE",
"278 643 OFFCURVE",
"279 658 CURVE",
"240 635 LINE",
"269 635 OFFCURVE",
"303 635 OFFCURVE",
"333 635 CURVE SMOOTH",
"403 635 OFFCURVE",
"441 591 OFFCURVE",
"441 524 CURVE SMOOTH",
"441 449 OFFCURVE",
"398 404 OFFCURVE",
"326 404 CURVE SMOOTH",
"320 404 LINE",
"313 324 LINE",
"323 324 LINE SMOOTH",
"402 324 OFFCURVE",
"464 292 OFFCURVE",
"464 200 CURVE SMOOTH",
"464 118 OFFCURVE",
"413 71 OFFCURVE",
"340 71 CURVE SMOOTH",
"302 71 OFFCURVE",
"272 75 OFFCURVE",
"242 80 CURVE",
"282 46 LINE"
);
}
);
width = 664;
},
{
anchors = (
{
name = bottom;
position = "{316, 0}";
},
{
name = top;
position = "{316, 705}";
}
);
layerId = "4E6502B1-B066-4D3E-9BD1-B1D9901B4F4F";
paths = (
{
closed = 1;
nodes = (
"107 -3 OFFCURVE",
"170 0 OFFCURVE",
"195 0 CURVE SMOOTH",
"245 0 OFFCURVE",
"312 -4 OFFCURVE",
"362 -4 CURVE SMOOTH",
"475 -4 OFFCURVE",
"563 70 OFFCURVE",
"563 183 CURVE SMOOTH",
"563 295 OFFCURVE",
"480 359 OFFCURVE",
"368 366 CURVE",
"393 329 LINE",
"393 404 LINE",
"370 365 LINE",
"463 378 OFFCURVE",
"532 446 OFFCURVE",
"532 543 CURVE SMOOTH",
"532 648 OFFCURVE",
"447 710 OFFCURVE",
"345 710 CURVE SMOOTH",
"295 710 OFFCURVE",
"228 705 OFFCURVE",
"178 705 CURVE SMOOTH",
"159 705 OFFCURVE",
"100 708 OFFCURVE",
"63 710 CURVE",
"58 658 LINE",
"156 643 LINE",
"132 670 LINE",
"136 651 OFFCURVE",
"145 591 OFFCURVE",
"145 570 CURVE SMOOTH",
"145 135 LINE SMOOTH",
"145 113 OFFCURVE",
"136 49 OFFCURVE",
"132 24 CURVE",
"170 67 LINE",
"56 44 LINE",
"61 -5 LINE"
);
},
{
closed = 1;
nodes = (
"237 44 OFFCURVE",
"231 110 OFFCURVE",
"231 165 CURVE SMOOTH",
"231 540 LINE SMOOTH",
"231 593 OFFCURVE",
"240 666 OFFCURVE",
"242 681 CURVE",
"219 656 LINE",
"248 658 OFFCURVE",
"287 658 OFFCURVE",
"324 658 CURVE SMOOTH",
"394 658 OFFCURVE",
"443 608 OFFCURVE",
"443 532 CURVE SMOOTH",
"443 441 OFFCURVE",
"379 393 OFFCURVE",
"299 393 CURVE SMOOTH",
"291 393 LINE",
"284 338 LINE",
"296 338 LINE SMOOTH",
"386 338 OFFCURVE",
"466 292 OFFCURVE",
"466 190 CURVE SMOOTH",
"466 100 OFFCURVE",
"411 52 OFFCURVE",
"331 52 CURVE SMOOTH",
"289 52 OFFCURVE",
"246 56 OFFCURVE",
"221 58 CURVE",
"242 20 LINE"
);
}
);
width = 628.8;
}
);
leftKerningGroup = UC_Stem;
rightKerningGroup = UC_B;
unicode = 0042;
},
{
color = 6;
glyphname = C;
layers = (
{
anchors = (
{
name = bottom;
position = "{398, 0}";
},
{
name = top;
position = "{398, 720}";
}
);
layerId = "16643525-C5DD-48EC-8E99-463BF28F5E85";
paths = (
{
closed = 1;
nodes = (
"490 -15 OFFCURVE",
"565 3 OFFCURVE",
"630 19 CURVE",
"622 186 LINE",
"551 184 LINE",
"548 137 LINE SMOOTH",
"547 123 OFFCURVE",
"528 75 OFFCURVE",
"516 47 CURVE",
"575 97 LINE",
"507 78 OFFCURVE",
"458 69 OFFCURVE",
"406 69 CURVE SMOOTH",
"278 69 OFFCURVE",
"226 195 OFFCURVE",
"226 353 CURVE SMOOTH",
"226 511 OFFCURVE",
"279 636 OFFCURVE",
"407 636 CURVE SMOOTH",
"458 636 OFFCURVE",
"506 625 OFFCURVE",
"565 609 CURVE",
"509 657 LINE",
"518 630 OFFCURVE",
"535 589 OFFCURVE",
"535 576 CURVE SMOOTH",
"537 519 LINE",
"609 515 LINE",
"621 686 LINE",
"554 704 OFFCURVE",
"491 720 OFFCURVE",
"407 720 CURVE SMOOTH",
"181 720 OFFCURVE",
"65 570 OFFCURVE",
"65 352 CURVE SMOOTH",
"65 134 OFFCURVE",
"181 -15 OFFCURVE",
"407 -15 CURVE SMOOTH"
);
}
);
width = 699;
},
{
anchors = (
{
name = bottom;
position = "{377, 0}";
},
{
name = top;
position = "{377, 720}";
}
);
layerId = "4E6502B1-B066-4D3E-9BD1-B1D9901B4F4F";
paths = (
{
closed = 1;
nodes = (
"468 -15 OFFCURVE",
"540 3 OFFCURVE",
"603 19 CURVE",
"597 168 LINE",
"539 166 LINE",
"537 119 LINE SMOOTH",
"536 105 OFFCURVE",
"525 65 OFFCURVE",
"514 36 CURVE",
"542 70 LINE",
"500 53 OFFCURVE",
"434 40 OFFCURVE",
"386 40 CURVE SMOOTH",
"242 40 OFFCURVE",
"170 179 OFFCURVE",
"170 353 CURVE SMOOTH",
"170 528 OFFCURVE",
"242 665 OFFCURVE",
"387 665 CURVE SMOOTH",
"432 665 OFFCURVE",
"494 650 OFFCURVE",
"533 633 CURVE",
"507 666 LINE",
"514 642 OFFCURVE",
"526 603 OFFCURVE",
"526 590 CURVE SMOOTH",
"526 544 LINE",
"584 540 LINE",
"594 686 LINE",
"531 702 OFFCURVE",
"469 720 OFFCURVE",
"387 720 CURVE SMOOTH",
"179 720 OFFCURVE",
"73 570 OFFCURVE",
"73 352 CURVE SMOOTH",
"73 134 OFFCURVE",
"179 -15 OFFCURVE",
"387 -15 CURVE SMOOTH"
);
}
);
width = 674.8;
}
);
leftKerningGroup = UC_Round;
rightKerningGroup = UC_C;
unicode = 0043;
},
{
color = 6;
glyphname = D;
layers = (
{
anchors = (
{
name = bottom;
position = "{353, 0}";
},
{
name = center;
position = "{209, 353}";
},
{
name = top;
position = "{355, 720}";
}
);
layerId = "16643525-C5DD-48EC-8E99-463BF28F5E85";
paths = (
{
closed = 1;
nodes = (
"107 -3 OFFCURVE",
"176 0 OFFCURVE",
"205 0 CURVE SMOOTH",
"255 0 OFFCURVE",
"313 -5 OFFCURVE",
"363 -5 CURVE SMOOTH",
"591 -5 OFFCURVE",
"714 142 OFFCURVE",
"714 352 CURVE SMOOTH",
"714 564 OFFCURVE",
"593 710 OFFCURVE",
"363 710 CURVE SMOOTH",
"309 710 OFFCURVE",
"233 705 OFFCURVE",
"179 705 CURVE SMOOTH",
"152 705 OFFCURVE",
"96 708 OFFCURVE",
"60 710 CURVE",
"55 640 LINE",
"179 619 LINE",
"118 676 LINE",
"122 648 OFFCURVE",
"132 577 OFFCURVE",
"132 549 CURVE SMOOTH",
"132 157 LINE SMOOTH",
"132 130 OFFCURVE",
"123 70 OFFCURVE",
"117 31 CURVE",
"179 83 LINE",
"54 60 LINE",
"59 -5 LINE"
);
},
{
closed = 1;
nodes = (
"277 51 OFFCURVE",
"271 139 OFFCURVE",
"271 187 CURVE SMOOTH",
"271 519 LINE SMOOTH",
"271 568 OFFCURVE",
"278 663 OFFCURVE",
"279 671 CURVE",
"249 630 LINE",
"267 630 OFFCURVE",
"318 633 OFFCURVE",
"353 633 CURVE SMOOTH",
"505 633 OFFCURVE",
"564 504 OFFCURVE",
"564 354 CURVE SMOOTH",
"564 198 OFFCURVE",
"506 72 OFFCURVE",
"352 72 CURVE SMOOTH",
"313 72 OFFCURVE",
"270 75 OFFCURVE",
"246 75 CURVE",
"280 35 LINE"
);
}
);
width = 777;
},
{
anchors = (
{
name = bottom;
position = "{343, 0}";
},
{
name = center;
position = "{198, 353}";
},
{
name = top;
position = "{344, 720}";
}
);
layerId = "4E6502B1-B066-4D3E-9BD1-B1D9901B4F4F";
paths = (
{
closed = 1;
nodes = (
"106 -3 OFFCURVE",
"171 0 OFFCURVE",
"195 0 CURVE SMOOTH",
"245 0 OFFCURVE",
"297 -4 OFFCURVE",
"347 -4 CURVE SMOOTH",
"561 -4 OFFCURVE",
"691 141 OFFCURVE",
"691 352 CURVE SMOOTH",
"691 571 OFFCURVE",
"569 710 OFFCURVE",
"347 710 CURVE SMOOTH",
"279 710 OFFCURVE",
"242 705 OFFCURVE",
"177 705 CURVE SMOOTH",
"158 705 OFFCURVE",
"100 708 OFFCURVE",
"63 710 CURVE",
"58 658 LINE",
"170 640 LINE",
"131 674 LINE",
"134 657 OFFCURVE",
"145 591 OFFCURVE",
"145 570 CURVE SMOOTH",
"145 135 LINE SMOOTH",
"145 114 OFFCURVE",
"134 45 OFFCURVE",
"130 22 CURVE",
"170 67 LINE",
"56 44 LINE",
"61 -5 LINE"
);
},
{
closed = 1;
nodes = (
"239 59 OFFCURVE",
"231 105 OFFCURVE",
"231 165 CURVE SMOOTH",
"231 540 LINE SMOOTH",
"231 589 OFFCURVE",
"238 660 OFFCURVE",
"243 678 CURVE",
"225 652 LINE",
"249 652 OFFCURVE",
"291 652 OFFCURVE",
"349 652 CURVE SMOOTH",
"517 652 OFFCURVE",
"597 515 OFFCURVE",
"597 352 CURVE SMOOTH",
"597 188 OFFCURVE",
"517 53 OFFCURVE",
"349 53 CURVE SMOOTH",
"293 53 OFFCURVE",
"250 56 OFFCURVE",
"224 56 CURVE",
"240 36 LINE"
);
}
);
width = 760.5;
}
);
leftKerningGroup = UC_Stem;
rightKerningGroup = UC_Round;
unicode = 0044;
},
{
color = 6;
glyphname = E;
layers = (
{
anchors = (
{
name = bottom;
position = "{338, 0}";
},
{
name = ogonek;
position = "{549, -4}";
},
{
name = top;
position = "{312, 720}";
}
);
layerId = "16643525-C5DD-48EC-8E99-463BF28F5E85";
paths = (
{
closed = 1;
nodes = (
"108 -2 OFFCURVE",
"176 0 OFFCURVE",
"205 0 CURVE SMOOTH",
"435 0 LINE SMOOTH",
"463 0 OFFCURVE",
"511 -2 OFFCURVE",
"549 -4 CURVE",
"568 14 LINE",
"583 184 LINE",
"517 189 LINE",
"504 129 LINE SMOOTH",
"500 112 OFFCURVE",
"479 73 OFFCURVE",
"453 42 CURVE",
"506 93 LINE",
"491 89 OFFCURVE",
"449 80 OFFCURVE",
"405 80 CURVE SMOOTH",
"240 80 LINE",
"281 47 LINE",
"278 72 OFFCURVE",
"271 148 OFFCURVE",
"271 187 CURVE SMOOTH",
"271 519 LINE SMOOTH",
"271 545 OFFCURVE",
"274 610 OFFCURVE",
"279 656 CURVE",
"221 630 LINE",
"394 630 LINE SMOOTH",
"434 630 OFFCURVE",
"481 625 OFFCURVE",
"506 623 CURVE",
"451 675 LINE",
"465 647 OFFCURVE",
"484 603 OFFCURVE",
"486 590 CURVE SMOOTH",
"493 542 LINE",
"561 547 LINE",
"554 692 LINE",
"535 710 LINE",
"497 707 OFFCURVE",
"439 705 OFFCURVE",
"421 705 CURVE SMOOTH",
"179 705 LINE SMOOTH",
"152 705 OFFCURVE",
"96 708 OFFCURVE",
"60 710 CURVE",
"55 640 LINE",
"179 619 LINE",
"117 671 LINE",
"124 630 OFFCURVE",
"132 570 OFFCURVE",
"132 549 CURVE SMOOTH",
"132 157 LINE SMOOTH",
"132 129 OFFCURVE",
"121 60 OFFCURVE",
"117 37 CURVE",
"179 83 LINE",
"54 60 LINE",
"59 -5 LINE"
);
},
{
closed = 1;
nodes = (
"479 260 LINE",
"477 301 OFFCURVE",
"476 341 OFFCURVE",
"476 382 CURVE SMOOTH",
"476 466 LINE",
"419 471 LINE",
"405 367 LINE",
"438 409 LINE",
"419 403 OFFCURVE",
"385 397 OFFCURVE",
"362 397 CURVE SMOOTH",
"225 397 LINE",
"225 322 LINE",
"342 322 LINE SMOOTH",
"372 322 OFFCURVE",
"424 317 OFFCURVE",
"454 315 CURVE",
"405 352 LINE",
"419 254 LINE"
);
}
);
width = 646;
},
{
anchors = (
{
name = bottom;
position = "{320, 0}";
},
{
name = ogonek;
position = "{528, -4}";
},
{
name = top;
position = "{308, 720}";
}
);
layerId = "4E6502B1-B066-4D3E-9BD1-B1D9901B4F4F";
paths = (
{
closed = 1;
nodes = (
"106 -2 OFFCURVE",
"171 0 OFFCURVE",
"195 0 CURVE SMOOTH",
"414 0 LINE SMOOTH",
"431 0 OFFCURVE",
"490 -2 OFFCURVE",
"528 -4 CURVE",
"547 14 LINE",
"562 163 LINE",
"508 168 LINE",
"493 100 LINE SMOOTH",
"490 86 OFFCURVE",
"470 61 OFFCURVE",
"456 43 CURVE",
"486 67 LINE",
"468 63 OFFCURVE",
"424 55 OFFCURVE",
"384 55 CURVE SMOOTH",
"203 55 LINE",
"244 13 LINE",
"238 42 OFFCURVE",
"231 115 OFFCURVE",
"231 165 CURVE SMOOTH",
"231 540 LINE SMOOTH",
"231 566 OFFCURVE",
"237 631 OFFCURVE",
"242 677 CURVE",
"205 651 LINE",
"371 651 LINE SMOOTH",
"407 651 OFFCURVE",
"448 648 OFFCURVE",
"468 645 CURVE",
"435 664 LINE",
"450 651 OFFCURVE",
"471 622 OFFCURVE",
"473 612 CURVE SMOOTH",
"484 557 LINE",
"541 562 LINE",
"534 692 LINE",
"515 710 LINE",
"477 707 OFFCURVE",
"419 705 OFFCURVE",
"401 705 CURVE SMOOTH",
"178 705 LINE SMOOTH",
"159 705 OFFCURVE",
"100 708 OFFCURVE",
"63 710 CURVE",
"58 658 LINE",
"170 640 LINE",
"131 682 LINE",
"137 644 OFFCURVE",
"145 588 OFFCURVE",
"145 570 CURVE SMOOTH",
"145 135 LINE SMOOTH",
"145 114 OFFCURVE",
"134 44 OFFCURVE",
"130 23 CURVE",
"170 67 LINE",
"56 44 LINE",
"61 -5 LINE"
);
},
{
closed = 1;
nodes = (
"467 272 LINE",
"465 308 OFFCURVE",
"464 344 OFFCURVE",
"464 380 CURVE SMOOTH",
"464 464 LINE",
"420 469 LINE",
"406 364 LINE",
"437 404 LINE",
"423 402 OFFCURVE",
"378 394 OFFCURVE",
"350 394 CURVE SMOOTH",
"203 394 LINE",
"203 340 LINE",
"330 340 LINE SMOOTH",
"356 340 OFFCURVE",
"420 332 OFFCURVE",
"442 329 CURVE",
"406 370 LINE",
"420 266 LINE"
);
}
);
width = 628.4;
}
);
leftKerningGroup = UC_Stem;
rightKerningGroup = UC_E;
unicode = 0045;
},
{
color = 6;
glyphname = F;
layers = (
{
anchors = (
{
name = bottom;
position = "{306, 0}";
},
{
name = top;
position = "{306, 720}";
}
);
layerId = "16643525-C5DD-48EC-8E99-463BF28F5E85";
paths = (
{
closed = 1;
nodes = (
"110 -3 OFFCURVE",
"185 0 OFFCURVE",
"205 0 CURVE SMOOTH",
"371 0 LINE",
"376 67 LINE",
"224 77 LINE",
"286 33 LINE",
"280 69 OFFCURVE",
"271 133 OFFCURVE",
"271 187 CURVE SMOOTH",
"271 519 LINE SMOOTH",
"271 564 OFFCURVE",
"278 641 OFFCURVE",
"279 656 CURVE",
"221 630 LINE",
"391 630 LINE SMOOTH",
"435 630 OFFCURVE",
"486 623 OFFCURVE",
"500 622 CURVE",
"458 652 LINE",
"471 628 OFFCURVE",
"480 610 OFFCURVE",
"483 599 CURVE SMOOTH",
"488 581 OFFCURVE",
"491 557 OFFCURVE",
"493 541 CURVE",
"561 546 LINE",
"554 692 LINE",
"535 710 LINE",
"500 708 OFFCURVE",
"441 705 OFFCURVE",
"421 705 CURVE SMOOTH",
"179 705 LINE SMOOTH",
"152 705 OFFCURVE",
"96 708 OFFCURVE",
"60 710 CURVE",
"55 640 LINE",
"179 619 LINE",
"119 664 LINE",
"123 630 OFFCURVE",
"132 577 OFFCURVE",
"132 549 CURVE SMOOTH",
"132 157 LINE SMOOTH",
"132 132 OFFCURVE",
"124 76 OFFCURVE",
"117 33 CURVE",
"179 83 LINE",
"54 60 LINE",
"59 -5 LINE"
);
},
{
closed = 1;
nodes = (
"479 250 LINE",
"478 281 OFFCURVE",
"476 336 OFFCURVE",
"476 372 CURVE SMOOTH",
"476 455 LINE",
"419 460 LINE",
"406 360 LINE",
"436 399 LINE",
"415 394 OFFCURVE",
"381 387 OFFCURVE",
"362 387 CURVE SMOOTH",
"217 387 LINE",
"217 311 LINE",
"342 311 LINE SMOOTH",
"372 311 OFFCURVE",
"420 306 OFFCURVE",
"447 304 CURVE",
"406 335 LINE",
"419 244 LINE"
);
}
);
width = 612;
},
{
anchors = (
{
name = bottom;
position = "{299, 0}";
},
{
name = top;
position = "{299, 720}";
}
);
layerId = "4E6502B1-B066-4D3E-9BD1-B1D9901B4F4F";
paths = (
{
closed = 1;
nodes = (
"111 -3 OFFCURVE",
"170 0 OFFCURVE",
"195 0 CURVE SMOOTH",
"331 0 LINE",
"339 53 LINE",
"204 63 LINE",
"243 23 LINE",
"239 43 OFFCURVE",
"231 113 OFFCURVE",
"231 165 CURVE",
"231 540 LINE",
"231 588 OFFCURVE",
"241 674 OFFCURVE",
"242 680 CURVE",
"205 651 LINE",
"371 651 LINE SMOOTH",
"406 651 OFFCURVE",
"448 646 OFFCURVE",
"468 645 CURVE",
"434 666 LINE",
"448 653 OFFCURVE",
"471 622 OFFCURVE",
"473 611 CURVE",
"477 596 OFFCURVE",
"482 574 OFFCURVE",
"484 558 CURVE",
"541 563 LINE",
"534 692 LINE",
"515 710 LINE",
"498 709 OFFCURVE",
"421 705 OFFCURVE",
"401 705 CURVE SMOOTH",
"178 705 LINE SMOOTH",
"159 705 OFFCURVE",
"100 708 OFFCURVE",
"63 710 CURVE",
"58 658 LINE",
"170 640 LINE",
"130 677 LINE",
"135 654 OFFCURVE",
"145 591 OFFCURVE",
"145 570 CURVE SMOOTH",
"145 135 LINE SMOOTH",
"145 113 OFFCURVE",
"135 50 OFFCURVE",
"129 19 CURVE",
"170 67 LINE",
"56 44 LINE",
"61 -5 LINE"
);
},
{
closed = 1;
nodes = (
"467 264 LINE",
"466 289 OFFCURVE",
"464 336 OFFCURVE",
"464 372 CURVE SMOOTH",
"464 456 LINE",
"420 461 LINE",
"407 366 LINE",
"439 402 LINE",
"422 397 OFFCURVE",
"379 386 OFFCURVE",
"350 386 CURVE SMOOTH",
"199 386 LINE",
"199 332 LINE",
"330 332 LINE SMOOTH",
"356 332 OFFCURVE",
"427 325 OFFCURVE",
"444 322 CURVE",
"407 355 LINE",
"420 258 LINE"
);
}
);
width = 595.5;
}
);
leftKerningGroup = UC_Stem;
rightKerningGroup = UC_F;
unicode = 0046;
},
{
color = 6;
glyphname = Fhook;
layers = (
{
anchors = (
{
name = bottom;
position = "{294, 0}";
},
{
name = top;
position = "{294, 720}";
}
);
layerId = "16643525-C5DD-48EC-8E99-463BF28F5E85";
paths = (
{
closed = 1;
nodes = (
"206 -190 OFFCURVE",
"259 -81 OFFCURVE",
"259 30 CURVE SMOOTH",
"259 519 LINE SMOOTH",
"259 564 OFFCURVE",
"266 641 OFFCURVE",
"267 656 CURVE",
"209 630 LINE",
"379 630 LINE SMOOTH",
"423 630 OFFCURVE",
"474 623 OFFCURVE",
"488 622 CURVE",
"446 652 LINE",
"459 628 OFFCURVE",
"468 610 OFFCURVE",
"471 599 CURVE SMOOTH",
"476 581 OFFCURVE",
"479 557 OFFCURVE",
"481 541 CURVE",
"549 546 LINE",
"542 692 LINE",
"523 710 LINE",
"488 708 OFFCURVE",
"429 705 OFFCURVE",
"409 705 CURVE SMOOTH",
"167 705 LINE SMOOTH",
"140 705 OFFCURVE",
"84 708 OFFCURVE",
"48 710 CURVE",
"43 640 LINE",
"167 619 LINE",
"107 664 LINE",
"111 630 OFFCURVE",
"120 577 OFFCURVE",
"120 549 CURVE SMOOTH",
"120 13 LINE SMOOTH",
"120 -68 OFFCURVE",
"96 -109 OFFCURVE",
"42 -109 CURVE",
"42 -190 LINE"
);
},
{
closed = 1;
nodes = (
"467 250 LINE",
"466 281 OFFCURVE",
"464 336 OFFCURVE",
"464 372 CURVE SMOOTH",
"464 455 LINE",
"407 460 LINE",
"394 360 LINE",
"424 399 LINE",
"403 394 OFFCURVE",
"369 387 OFFCURVE",
"350 387 CURVE SMOOTH",
"205 387 LINE",
"205 311 LINE",
"330 311 LINE SMOOTH",
"360 311 OFFCURVE",
"408 306 OFFCURVE",
"435 304 CURVE",
"394 335 LINE",
"407 244 LINE"
);
}
);
width = 599;
},
{
anchors = (
{
name = bottom;
position = "{287, 0}";
},
{
name = top;
position = "{287, 720}";
}
);
layerId = "4E6502B1-B066-4D3E-9BD1-B1D9901B4F4F";
paths = (
{
closed = 1;
nodes = (
"143 -194 OFFCURVE",
"219 -109 OFFCURVE",
"219 -3 CURVE SMOOTH",
"219 540 LINE",
"219 588 OFFCURVE",
"229 674 OFFCURVE",
"230 680 CURVE",
"193 651 LINE",
"359 651 LINE SMOOTH",
"394 651 OFFCURVE",
"436 646 OFFCURVE",
"456 645 CURVE",
"422 666 LINE",
"436 653 OFFCURVE",
"459 622 OFFCURVE",
"461 611 CURVE",
"465 596 OFFCURVE",
"470 574 OFFCURVE",
"472 558 CURVE",
"529 563 LINE",
"522 692 LINE",
"503 710 LINE",
"486 709 OFFCURVE",
"409 705 OFFCURVE",
"389 705 CURVE SMOOTH",
"166 705 LINE SMOOTH",
"147 705 OFFCURVE",
"88 708 OFFCURVE",
"51 710 CURVE",
"46 658 LINE",
"158 640 LINE",
"118 677 LINE",
"123 654 OFFCURVE",
"133 591 OFFCURVE",
"133 570 CURVE SMOOTH",
"133 2 LINE SMOOTH",
"133 -90 OFFCURVE",
"108 -144 OFFCURVE",
"13 -144 CURVE",
"12 -194 LINE"
);
},
{
closed = 1;
nodes = (
"455 264 LINE",
"454 289 OFFCURVE",
"452 336 OFFCURVE",
"452 372 CURVE SMOOTH",
"452 456 LINE",
"408 461 LINE",
"395 366 LINE",
"427 402 LINE",
"410 397 OFFCURVE",
"367 386 OFFCURVE",
"338 386 CURVE SMOOTH",
"187 386 LINE",
"187 332 LINE",
"318 332 LINE SMOOTH",
"344 332 OFFCURVE",
"415 325 OFFCURVE",
"432 322 CURVE",
"395 355 LINE",
"408 258 LINE"
);
}
);
width = 583.6;
}
);
rightKerningGroup = UC_F;
unicode = 0191;
},
{
color = 6;
glyphname = G;
layers = (
{
anchors = (
{
name = bottom;
position = "{428, 0}";
},
{
name = top;
position = "{426, 720}";
}
);
layerId = "16643525-C5DD-48EC-8E99-463BF28F5E85";
paths = (
{
closed = 1;
nodes = (
"512 -15 OFFCURVE",
"590 3 OFFCURVE",
"659 19 CURVE",
"659 189 LINE SMOOTH",
"659 218 OFFCURVE",
"664 287 OFFCURVE",
"668 336 CURVE",
"642 359 LINE",
"607 358 OFFCURVE",
"555 356 OFFCURVE",
"538 356 CURVE SMOOTH",
"427 356 LINE",
"422 268 LINE",
"584 255 LINE",
"523 301 LINE",
"528 276 OFFCURVE",
"538 229 OFFCURVE",
"538 196 CURVE SMOOTH",
"538 128 LINE SMOOTH",
"538 111 OFFCURVE",
"526 65 OFFCURVE",
"519 34 CURVE",
"568 87 LINE",
"515 76 OFFCURVE",
"469 69 OFFCURVE",
"421 69 CURVE SMOOTH",
"282 69 OFFCURVE",
"224 195 OFFCURVE",
"224 353 CURVE SMOOTH",
"224 511 OFFCURVE",
"283 636 OFFCURVE",
"422 636 CURVE SMOOTH",
"474 636 OFFCURVE",
"538 625 OFFCURVE",
"586 610 CURVE",
"546 651 LINE",
"557 613 OFFCURVE",
"563 583 OFFCURVE",
"563 576 CURVE SMOOTH",
"565 519 LINE",
"637 515 LINE",
"649 686 LINE",
"585 703 OFFCURVE",
"510 720 OFFCURVE",
"423 720 CURVE SMOOTH",
"186 720 OFFCURVE",
"64 570 OFFCURVE",
"64 352 CURVE SMOOTH",
"64 134 OFFCURVE",
"186 -15 OFFCURVE",
"423 -15 CURVE SMOOTH"
);
}
);
width = 747;
},
{
anchors = (
{
name = bottom;
position = "{420, 0}";
},
{
name = top;
position = "{418, 720}";
}
);
layerId = "4E6502B1-B066-4D3E-9BD1-B1D9901B4F4F";
paths = (
{
closed = 1;
nodes = (
"489 -15 OFFCURVE",
"565 3 OFFCURVE",
"632 19 CURVE",
"632 164 LINE SMOOTH",
"632 206 OFFCURVE",
"637 266 OFFCURVE",
"641 317 CURVE",
"623 334 LINE",
"600 333 OFFCURVE",
"569 331 OFFCURVE",
"556 331 CURVE SMOOTH",
"445 331 LINE",
"440 276 LINE",
"580 265 LINE",
"545 298 LINE",
"548 276 OFFCURVE",
"556 222 OFFCURVE",
"556 196 CURVE SMOOTH",
"556 128 LINE SMOOTH",
"556 113 OFFCURVE",
"545 66 OFFCURVE",
"538 36 CURVE",
"564 68 LINE",
"516 52 OFFCURVE",
"447 40 OFFCURVE",
"400 40 CURVE SMOOTH",
"244 40 OFFCURVE",
"167 179 OFFCURVE",
"167 353 CURVE SMOOTH",
"167 528 OFFCURVE",
"243 665 OFFCURVE",
"400 665 CURVE SMOOTH",
"450 665 OFFCURVE",
"517 650 OFFCURVE",
"563 634 CURVE",
"535 666 LINE",
"542 644 OFFCURVE",
"555 604 OFFCURVE",
"555 590 CURVE SMOOTH",
"555 544 LINE",
"613 540 LINE",
"623 686 LINE",
"555 702 OFFCURVE",
"490 720 OFFCURVE",
"403 720 CURVE SMOOTH",
"184 720 OFFCURVE",
"72 570 OFFCURVE",
"72 352 CURVE SMOOTH",
"72 134 OFFCURVE",
"184 -15 OFFCURVE",
"403 -15 CURVE SMOOTH"
);
}
);
width = 722.8;
}
);
leftKerningGroup = UC_Round;
rightKerningGroup = UC_G;
unicode = 0047;
},
{
color = 3;
glyphname = Gstroke;
layers = (
{
anchors = (
{
name = bottom;
position = "{428, 0}";
},
{
name = top;
position = "{426, 720}";
}
);
components = (
{
name = barcomp;
transform = "{1, 0, 0, 1, 289, -409}";
}
);
layerId = "16643525-C5DD-48EC-8E99-463BF28F5E85";
paths = (
{
closed = 1;
nodes = (
"512 -15 OFFCURVE",
"590 3 OFFCURVE",
"659 19 CURVE",
"659 209 LINE SMOOTH",
"659 238 OFFCURVE",
"664 307 OFFCURVE",
"668 356 CURVE",
"642 379 LINE",
"607 378 OFFCURVE",
"555 376 OFFCURVE",
"538 376 CURVE SMOOTH",
"427 376 LINE",
"422 288 LINE",
"584 275 LINE",
"523 321 LINE",
"528 296 OFFCURVE",
"538 249 OFFCURVE",
"538 216 CURVE SMOOTH",
"538 128 LINE SMOOTH",
"538 111 OFFCURVE",
"526 65 OFFCURVE",
"519 34 CURVE",
"568 87 LINE",
"515 76 OFFCURVE",
"469 69 OFFCURVE",
"421 69 CURVE SMOOTH",
"282 69 OFFCURVE",
"224 195 OFFCURVE",
"224 353 CURVE SMOOTH",
"224 511 OFFCURVE",
"283 636 OFFCURVE",
"422 636 CURVE SMOOTH",
"474 636 OFFCURVE",
"538 625 OFFCURVE",
"586 610 CURVE",
"546 651 LINE",
"557 613 OFFCURVE",
"563 583 OFFCURVE",
"563 576 CURVE SMOOTH",
"565 519 LINE",
"637 515 LINE",
"649 686 LINE",
"585 703 OFFCURVE",
"510 720 OFFCURVE",
"423 720 CURVE SMOOTH",
"186 720 OFFCURVE",
"64 570 OFFCURVE",
"64 352 CURVE SMOOTH",
"64 134 OFFCURVE",
"186 -15 OFFCURVE",
"423 -15 CURVE SMOOTH"
);
}
);
width = 802;
},
{
anchors = (
{
name = bottom;
position = "{420, 0}";
},
{
name = top;
position = "{418, 720}";
}
);
components = (
{
alignment = -1;
name = barcomp;
transform = "{1, 0, 0, 1, 324, -426}";
}
);
layerId = "4E6502B1-B066-4D3E-9BD1-B1D9901B4F4F";
paths = (
{
closed = 1;
nodes = (
"489 -15 OFFCURVE",
"565 3 OFFCURVE",
"632 19 CURVE",
"632 162 LINE SMOOTH",
"632 204 OFFCURVE",
"637 264 OFFCURVE",
"641 315 CURVE",
"623 332 LINE",
"600 331 OFFCURVE",
"569 329 OFFCURVE",
"556 329 CURVE SMOOTH",
"445 329 LINE",
"440 274 LINE",
"580 263 LINE",
"545 296 LINE",
"548 274 OFFCURVE",
"556 220 OFFCURVE",
"556 194 CURVE SMOOTH",
"556 128 LINE SMOOTH",
"556 113 OFFCURVE",
"545 66 OFFCURVE",
"538 36 CURVE",
"564 68 LINE",
"516 52 OFFCURVE",
"447 40 OFFCURVE",
"400 40 CURVE SMOOTH",
"244 40 OFFCURVE",
"167 179 OFFCURVE",
"167 353 CURVE SMOOTH",
"167 528 OFFCURVE",
"243 665 OFFCURVE",
"400 665 CURVE SMOOTH",
"450 665 OFFCURVE",
"517 650 OFFCURVE",
"563 634 CURVE",
"535 666 LINE",
"542 644 OFFCURVE",
"555 604 OFFCURVE",
"555 590 CURVE SMOOTH",
"555 544 LINE",
"613 540 LINE",
"623 686 LINE",
"555 702 OFFCURVE",
"490 720 OFFCURVE",
"403 720 CURVE SMOOTH",
"184 720 OFFCURVE",
"72 570 OFFCURVE",
"72 352 CURVE SMOOTH",
"72 134 OFFCURVE",
"184 -15 OFFCURVE",
"403 -15 CURVE SMOOTH"
);
}
);
width = 756.9;
}
);
leftKerningGroup = UC_Round;
rightKerningGroup = UC_G;
unicode = 01E4;
},
{
color = 6;
glyphname = H;
layers = (
{
anchors = (
{
name = bottom;
position = "{417, 0}";
},
{
name = center;
position = "{418, 520}";
},
{
name = top;
position = "{417, 720}";
}
);
layerId = "16643525-C5DD-48EC-8E99-463BF28F5E85";
paths = (
{
closed = 1;
nodes = (
"548 -2 OFFCURVE",
"596 0 OFFCURVE",
"635 0 CURVE SMOOTH",
"775 0 LINE",
"781 67 LINE",
"653 78 LINE",
"716 25 LINE",
"710 54 OFFCURVE",
"701 134 OFFCURVE",
"701 187 CURVE SMOOTH",
"701 519 LINE SMOOTH",
"701 572 OFFCURVE",
"707 618 OFFCURVE",
"714 663 CURVE",
"653 623 LINE",
"778 635 LINE",
"774 710 LINE",
"709 707 OFFCURVE",
"654 705 OFFCURVE",
"609 705 CURVE SMOOTH",
"582 705 OFFCURVE",
"526 708 OFFCURVE",
"490 710 CURVE",
"485 640 LINE",
"608 619 LINE",
"548 663 LINE",
"552 639 OFFCURVE",
"562 574 OFFCURVE",
"562 549 CURVE SMOOTH",
"562 157 LINE SMOOTH",
"562 128 OFFCURVE",
"550 55 OFFCURVE",
"545 25 CURVE",
"608 83 LINE",
"484 60 LINE",
"489 -5 LINE"
);
},
{
closed = 1;
nodes = (
"118 -2 OFFCURVE",
"166 0 OFFCURVE",
"205 0 CURVE SMOOTH",
"346 0 LINE",
"351 67 LINE",
"224 78 LINE",
"286 25 LINE",
"281 52 OFFCURVE",
"271 131 OFFCURVE",
"271 187 CURVE SMOOTH",
"271 519 LINE SMOOTH",
"271 569 OFFCURVE",
"279 629 OFFCURVE",
"286 669 CURVE",
"224 623 LINE",
"349 635 LINE",
"344 710 LINE",
"279 707 OFFCURVE",
"224 705 OFFCURVE",
"179 705 CURVE SMOOTH",
"152 705 OFFCURVE",
"96 708 OFFCURVE",
"60 710 CURVE",
"55 640 LINE",
"179 619 LINE",
"116 667 LINE",
"124 632 OFFCURVE",
"132 576 OFFCURVE",
"132 549 CURVE SMOOTH",
"132 157 LINE SMOOTH",
"132 127 OFFCURVE",
"121 56 OFFCURVE",
"116 25 CURVE",
"179 83 LINE",
"54 60 LINE",
"59 -5 LINE"
);
},
{
closed = 1;
nodes = (
"617 308 LINE",
"617 391 LINE",
"216 386 LINE",
"216 308 LINE"
);
}
);
width = 835;
},
{
anchors = (
{
name = bottom;
position = "{399, 0}";
},
{
name = center;
position = "{399, 520}";
},
{
name = top;
position = "{399, 720}";
}
);
layerId = "4E6502B1-B066-4D3E-9BD1-B1D9901B4F4F";
paths = (
{
closed = 1;
nodes = (
"537 -2 OFFCURVE",
"582 0 OFFCURVE",
"616 0 CURVE SMOOTH",
"744 0 LINE",
"751 53 LINE",
"626 63 LINE",
"664 28 LINE",
"659 53 OFFCURVE",
"653 113 OFFCURVE",
"653 165 CURVE SMOOTH",
"653 540 LINE SMOOTH",
"653 592 OFFCURVE",
"660 655 OFFCURVE",
"662 678 CURVE",
"626 643 LINE",
"738 653 LINE",
"734 710 LINE",
"679 707 OFFCURVE",
"634 705 OFFCURVE",
"599 705 CURVE SMOOTH",
"580 705 OFFCURVE",
"522 708 OFFCURVE",
"485 710 CURVE",
"480 658 LINE",
"592 640 LINE",
"552 678 LINE",
"556 659 OFFCURVE",
"566 592 OFFCURVE",
"566 570 CURVE SMOOTH",
"566 135 LINE SMOOTH",
"566 114 OFFCURVE",
"558 57 OFFCURVE",
"552 28 CURVE",
"592 67 LINE",
"477 44 LINE",
"482 -5 LINE"
);
},
{
closed = 1;
nodes = (
"116 -2 OFFCURVE",
"161 0 OFFCURVE",
"195 0 CURVE SMOOTH",
"323 0 LINE",
"330 53 LINE",
"204 63 LINE",
"243 28 LINE",
"238 54 OFFCURVE",
"231 113 OFFCURVE",
"231 165 CURVE SMOOTH",
"231 540 LINE SMOOTH",
"231 592 OFFCURVE",
"239 661 OFFCURVE",
"242 678 CURVE",
"204 643 LINE",
"317 653 LINE",
"313 710 LINE",
"258 707 OFFCURVE",
"213 705 OFFCURVE",
"178 705 CURVE SMOOTH",
"159 705 OFFCURVE",
"100 708 OFFCURVE",
"63 710 CURVE",
"58 658 LINE",
"170 640 LINE",
"131 678 LINE",
"135 658 OFFCURVE",
"145 591 OFFCURVE",
"145 570 CURVE SMOOTH",
"145 135 LINE SMOOTH",
"145 114 OFFCURVE",
"134 45 OFFCURVE",
"131 28 CURVE",
"170 67 LINE",
"56 44 LINE",
"61 -5 LINE"
);
},
{
closed = 1;
nodes = (
"621 329 LINE",
"621 382 LINE",
"176 377 LINE",
"176 329 LINE"
);
}
);
width = 806.4;
}
);
leftKerningGroup = UC_Stem;
rightKerningGroup = UC_Stem;
unicode = 0048;
},
{
color = 6;
glyphname = I;
layers = (
{
anchors = (
{
name = bottom;
position = "{201, 0}";
},
{
name = ogonek;
position = "{342, 0}";
},
{
name = top;
position = "{199, 720}";
}
);
layerId = "16643525-C5DD-48EC-8E99-463BF28F5E85";
paths = (
{
closed = 1;
nodes = (
"108 -2 OFFCURVE",
"156 0 OFFCURVE",
"205 0 CURVE SMOOTH",
"346 0 LINE",
"351 67 LINE",
"224 78 LINE",
"286 25 LINE",
"281 52 OFFCURVE",
"271 131 OFFCURVE",
"271 187 CURVE SMOOTH",
"271 519 LINE SMOOTH",
"271 569 OFFCURVE",
"279 629 OFFCURVE",
"286 669 CURVE",
"224 623 LINE",
"349 635 LINE",
"344 710 LINE",
"289 707 OFFCURVE",
"234 705 OFFCURVE",
"179 705 CURVE SMOOTH",
"152 705 OFFCURVE",
"96 708 OFFCURVE",
"60 710 CURVE",
"55 640 LINE",
"179 619 LINE",
"116 667 LINE",
"124 632 OFFCURVE",
"132 576 OFFCURVE",
"132 549 CURVE SMOOTH",
"132 157 LINE SMOOTH",
"132 127 OFFCURVE",
"121 56 OFFCURVE",
"116 25 CURVE",
"179 83 LINE",
"54 60 LINE",
"59 -5 LINE"
);
}
);
width = 407;
},
{
anchors = (
{
name = bottom;
position = "{198, 0}";
},
{
name = ogonek;
position = "{324, 0}";
},
{
name = top;
position = "{189, 720}";
}
);
layerId = "4E6502B1-B066-4D3E-9BD1-B1D9901B4F4F";
paths = (
{
closed = 1;
nodes = (
"106 -2 OFFCURVE",
"151 0 OFFCURVE",
"195 0 CURVE SMOOTH",
"323 0 LINE",
"330 53 LINE",
"204 63 LINE",
"243 28 LINE",
"238 54 OFFCURVE",
"231 113 OFFCURVE",
"231 165 CURVE SMOOTH",
"231 540 LINE SMOOTH",
"231 592 OFFCURVE",
"239 661 OFFCURVE",
"242 678 CURVE",
"204 643 LINE",
"317 653 LINE",
"313 710 LINE",
"268 707 OFFCURVE",
"223 705 OFFCURVE",
"178 705 CURVE SMOOTH",
"159 705 OFFCURVE",
"100 708 OFFCURVE",
"63 710 CURVE",
"58 658 LINE",
"170 640 LINE",
"131 678 LINE",
"135 658 OFFCURVE",
"145 591 OFFCURVE",
"145 570 CURVE SMOOTH",
"145 135 LINE SMOOTH",
"145 114 OFFCURVE",
"134 45 OFFCURVE",
"131 28 CURVE",
"170 67 LINE",
"56 44 LINE",
"61 -5 LINE"
);
}
);
width = 385;
}
);
leftKerningGroup = UC_Stem;
rightKerningGroup = UC_Stem;
unicode = 0049;
},
{
color = 3;
glyphname = Iogonek;
layers = (
{
components = (
{
name = ogonekcomb;
transform = "{1, 0, 0, 1, -29, 0}";
}
);
layerId = "16643525-C5DD-48EC-8E99-463BF28F5E85";
paths = (
{
closed = 1;
nodes = (
"156 -15 LINE",
"156 -15 OFFCURVE",
"170 0 OFFCURVE",
"200 0 CURVE",
"344 0 LINE",
"349 71 LINE",
"284 77 LINE",
"282 91 OFFCURVE",
"275 153 OFFCURVE",
"275 193 CURVE SMOOTH",
"275 512 LINE SMOOTH",
"275 552 OFFCURVE",
"281 608 OFFCURVE",
"284 623 CURVE",
"350 629 LINE",
"345 710 LINE",
"345 710 OFFCURVE",
"251 705 OFFCURVE",
"171 705 CURVE SMOOTH",
"141 705 OFFCURVE",
"51 710 OFFCURVE",
"51 710 CURVE",
"46 635 LINE",
"111 623 LINE",
"113 607 OFFCURVE",
"120 562 OFFCURVE",
"120 542 CURVE SMOOTH",
"120 163 LINE SMOOTH",
"120 111 OFFCURVE",
"109 62 OFFCURVE",
"85 -39 CURVE"
);
}
);
width = 405;
},
{
components = (
{
alignment = -1;
name = ogonekcomb;
transform = "{1, 0, 0, 1, 15, 0}";
}
);
layerId = "4E6502B1-B066-4D3E-9BD1-B1D9901B4F4F";
paths = (
{
closed = 1;
nodes = (
"146 -25 LINE",
"146 -25 OFFCURVE",
"159 0 OFFCURVE",
"184 0 CURVE",
"312 0 LINE",
"318 52 LINE",
"226 59 LINE",
"224 73 OFFCURVE",
"219 122 OFFCURVE",
"219 164 CURVE SMOOTH",
"219 541 LINE SMOOTH",
"219 583 OFFCURVE",
"224 632 OFFCURVE",
"226 646 CURVE",
"305 653 LINE",
"301 710 LINE",
"301 710 OFFCURVE",
"225 705 OFFCURVE",
"167 705 CURVE SMOOTH",
"148 705 OFFCURVE",
"52 710 OFFCURVE",
"52 710 CURVE",
"47 658 LINE",
"125 646 LINE",
"127 633 OFFCURVE",
"134 587 OFFCURVE",
"134 571 CURVE SMOOTH",
"134 134 LINE SMOOTH",
"134 91 OFFCURVE",
"123 44 OFFCURVE",
"99 -48 CURVE"
);
}
);
width = 373.1;
}
);
leftKerningGroup = UC_Stem;
rightKerningGroup = UC_Stem;
unicode = 012E;
},
{
color = 6;
glyphname = J;
layers = (
{
anchors = (
{
name = bottom;
position = "{190, 0}";
},
{
name = top;
position = "{190, 705}";
}
);
layerId = "16643525-C5DD-48EC-8E99-463BF28F5E85";
paths = (
{
closed = 1;
nodes = (
"176 -119 OFFCURVE",
"259 -26 OFFCURVE",
"259 5 CURVE SMOOTH",
"259 519 LINE SMOOTH",
"259 571 OFFCURVE",
"268 645 OFFCURVE",
"272 674 CURVE",
"211 623 LINE",
"337 635 LINE",
"332 710 LINE",
"294 708 OFFCURVE",
"232 705 OFFCURVE",
"167 705 CURVE SMOOTH",
"140 705 OFFCURVE",
"84 708 OFFCURVE",
"48 710 CURVE",
"43 640 LINE",
"167 619 LINE",
"105 674 LINE",
"110 644 OFFCURVE",
"120 577 OFFCURVE",
"120 549 CURVE SMOOTH",
"120 11 LINE SMOOTH",
"120 -4 OFFCURVE",
"76 -101 OFFCURVE",
"43 -171 CURVE",
"92 -200 LINE"
);
}
);
width = 381;
},
{
anchors = (
{
name = bottom;
position = "{177, 0}";
},
{
name = top;
position = "{177, 705}";
}
);
layerId = "4E6502B1-B066-4D3E-9BD1-B1D9901B4F4F";
paths = (
{
closed = 1;
nodes = (
"129 -147 OFFCURVE",
"219 -38 OFFCURVE",
"219 -12 CURVE SMOOTH",
"219 540 LINE SMOOTH",
"219 592 OFFCURVE",
"226 648 OFFCURVE",
"229 674 CURVE",
"192 643 LINE",
"305 653 LINE",
"301 710 LINE",
"305 710 OFFCURVE",
"225 705 OFFCURVE",
"166 705 CURVE SMOOTH",
"147 705 OFFCURVE",
"88 708 OFFCURVE",
"51 710 CURVE",
"46 658 LINE",
"158 640 LINE",
"119 674 LINE",
"122 659 OFFCURVE",
"133 591 OFFCURVE",
"133 570 CURVE SMOOTH",
"133 11 LINE SMOOTH",
"133 -4 OFFCURVE",
"87 -106 OFFCURVE",
"53 -179 CURVE",
"85 -200 LINE"
);
}
);
width = 352.4;
}
);
leftKerningGroup = UC_J;
rightKerningGroup = UC_N;
unicode = 004A;
},
{
color = 6;
glyphname = K;
layers = (
{
anchors = (
{
name = bottom;
position = "{379, 0}";
},
{
name = top;
position = "{379, 720}";
}
);
layerId = "16643525-C5DD-48EC-8E99-463BF28F5E85";
paths = (
{
closed = 1;
nodes = (
"505 -3 OFFCURVE",
"586 0 OFFCURVE",
"608 0 CURVE SMOOTH",
"743 0 LINE",
"749 67 LINE",
"639 80 LINE",
"724 47 LINE",
"706 62 OFFCURVE",
"647 115 OFFCURVE",
"635 129 CURVE SMOOTH",
"402 401 LINE",
"395 325 LINE",
"558 546 LINE SMOOTH",
"568 559 OFFCURVE",
"634 623 OFFCURVE",
"663 649 CURVE",
"584 623 LINE",
"703 635 LINE",
"698 710 LINE",
"639 707 OFFCURVE",
"590 705 OFFCURVE",
"549 705 CURVE SMOOTH",
"525 705 OFFCURVE",
"481 707 OFFCURVE",
"443 710 CURVE",
"438 640 LINE",
"530 622 LINE",
"509 681 LINE",
"439 578 LINE",
"281 347 LINE",
"431 164 LINE SMOOTH",
"445 146 OFFCURVE",
"498 61 OFFCURVE",
"509 44 CURVE",
"548 81 LINE",
"448 60 LINE",
"453 -5 LINE"
);
},
{
closed = 1;
nodes = (
"118 -2 OFFCURVE",
"166 0 OFFCURVE",
"205 0 CURVE SMOOTH",
"346 0 LINE",
"351 67 LINE",
"224 78 LINE",
"286 25 LINE",
"281 52 OFFCURVE",
"271 131 OFFCURVE",
"271 187 CURVE SMOOTH",
"271 519 LINE SMOOTH",
"271 569 OFFCURVE",
"279 629 OFFCURVE",
"286 669 CURVE",
"224 623 LINE",
"349 635 LINE",
"344 710 LINE",
"279 707 OFFCURVE",
"224 705 OFFCURVE",
"179 705 CURVE SMOOTH",
"152 705 OFFCURVE",
"96 708 OFFCURVE",
"60 710 CURVE",
"55 640 LINE",
"179 619 LINE",
"116 667 LINE",
"124 632 OFFCURVE",
"132 576 OFFCURVE",
"132 549 CURVE SMOOTH",
"132 157 LINE SMOOTH",
"132 127 OFFCURVE",
"121 56 OFFCURVE",
"116 25 CURVE",
"179 83 LINE",
"54 60 LINE",
"59 -5 LINE"
);
}
);
width = 785;
},
{
anchors = (
{
name = bottom;
position = "{361, 0}";
},
{
name = top;
position = "{361, 720}";
}
);
layerId = "4E6502B1-B066-4D3E-9BD1-B1D9901B4F4F";
paths = (
{
closed = 1;
nodes = (
"469 -3 OFFCURVE",
"533 0 OFFCURVE",
"560 0 CURVE SMOOTH",
"690 0 LINE",
"697 53 LINE",
"592 64 LINE",
"665 26 LINE",
"646 42 OFFCURVE",
"561 113 OFFCURVE",
"547 129 CURVE SMOOTH",
"312 397 LINE",
"315 343 LINE",
"468 546 LINE SMOOTH",
"478 560 OFFCURVE",
"561 637 OFFCURVE",
"582 655 CURVE",
"538 643 LINE",
"649 653 LINE",
"645 710 LINE",
"593 707 OFFCURVE",
"549 705 OFFCURVE",
"516 705 CURVE SMOOTH",
"496 705 OFFCURVE",
"445 708 OFFCURVE",
"414 710 CURVE",
"409 658 LINE",
"499 640 LINE",
"482 677 LINE",
"426 577 LINE",
"241 354 LINE",
"408 164 LINE SMOOTH",
"424 146 OFFCURVE",
"485 49 OFFCURVE",
"497 29 CURVE",
"512 66 LINE",
"418 44 LINE",
"423 -5 LINE"
);
},
{
closed = 1;
nodes = (
"116 -2 OFFCURVE",
"161 0 OFFCURVE",
"195 0 CURVE SMOOTH",
"323 0 LINE",
"330 53 LINE",
"204 63 LINE",
"243 28 LINE",
"238 54 OFFCURVE",
"231 113 OFFCURVE",
"231 165 CURVE SMOOTH",
"231 540 LINE SMOOTH",
"231 592 OFFCURVE",
"239 661 OFFCURVE",
"242 678 CURVE",
"204 643 LINE",
"317 653 LINE",
"313 710 LINE",
"258 707 OFFCURVE",
"213 705 OFFCURVE",
"178 705 CURVE SMOOTH",
"159 705 OFFCURVE",
"100 708 OFFCURVE",
"63 710 CURVE",
"58 658 LINE",
"170 640 LINE",
"131 678 LINE",
"135 658 OFFCURVE",
"145 591 OFFCURVE",
"145 570 CURVE SMOOTH",
"145 135 LINE SMOOTH",
"145 114 OFFCURVE",
"134 45 OFFCURVE",
"131 28 CURVE",
"170 67 LINE",
"56 44 LINE",
"61 -5 LINE"
);
}
);
width = 736.6;
}
);
leftKerningGroup = UC_Stem;
rightKerningGroup = UC_K;
unicode = 004B;
},
{
color = 6;
glyphname = L;
layers = (
{
anchors = (
{
name = bottom;
position = "{302, 0}";
},
{
name = center;
position = "{198, 355}";
},
{
name = centerright;
position = "{507, 403}";
},
{
name = top;
position = "{232, 720}";
},
{
name = topright;
position = "{476, 494}";
}
);
layerId = "16643525-C5DD-48EC-8E99-463BF28F5E85";
paths = (
{
closed = 1;
nodes = (
"110 -3 OFFCURVE",
"185 0 OFFCURVE",
"205 0 CURVE SMOOTH",
"409 0 LINE SMOOTH",
"424 0 OFFCURVE",
"483 -2 OFFCURVE",
"523 -4 CURVE",
"542 14 LINE",
"557 184 LINE",
"491 189 LINE",
"478 129 LINE SMOOTH",
"475 114 OFFCURVE",
"456 77 OFFCURVE",
"427 42 CURVE",
"480 93 LINE",
"465 89 OFFCURVE",
"423 80 OFFCURVE",
"379 80 CURVE SMOOTH",
"240 80 LINE",
"286 25 LINE",
"281 52 OFFCURVE",
"271 131 OFFCURVE",
"271 187 CURVE SMOOTH",
"271 519 LINE SMOOTH",
"271 569 OFFCURVE",
"279 629 OFFCURVE",
"286 669 CURVE",
"224 623 LINE",
"359 635 LINE",
"354 710 LINE",
"311 708 OFFCURVE",
"254 705 OFFCURVE",
"179 705 CURVE SMOOTH",
"152 705 OFFCURVE",
"96 708 OFFCURVE",
"60 710 CURVE",
"55 640 LINE",
"179 619 LINE",
"116 667 LINE",
"124 632 OFFCURVE",
"132 576 OFFCURVE",
"132 549 CURVE SMOOTH",
"132 157 LINE SMOOTH",
"132 127 OFFCURVE",
"121 56 OFFCURVE",
"116 25 CURVE",
"179 83 LINE",
"54 60 LINE",
"59 -5 LINE"
);
}
);
width = 608;
},
{
anchors = (
{
name = bottom;
position = "{294, 0}";
},
{
name = center;
position = "{196, 355}";
},
{
name = centerright;
position = "{516, 403}";
},
{
name = top;
position = "{235, 720}";
},
{
name = topright;
position = "{474, 494}";
}
);
layerId = "4E6502B1-B066-4D3E-9BD1-B1D9901B4F4F";
paths = (
{
closed = 1;
nodes = (
"111 -3 OFFCURVE",
"170 0 OFFCURVE",
"195 0 CURVE SMOOTH",
"388 0 LINE SMOOTH",
"407 0 OFFCURVE",
"454 -2 OFFCURVE",
"502 -4 CURVE",
"521 14 LINE",
"536 163 LINE",
"482 168 LINE",
"467 100 LINE SMOOTH",
"464 88 OFFCURVE",
"444 61 OFFCURVE",
"430 43 CURVE",
"460 67 LINE",
"442 63 OFFCURVE",
"398 55 OFFCURVE",
"358 55 CURVE SMOOTH",
"203 55 LINE",
"243 28 LINE",
"238 54 OFFCURVE",
"231 113 OFFCURVE",
"231 165 CURVE SMOOTH",
"231 540 LINE SMOOTH",
"231 592 OFFCURVE",
"239 661 OFFCURVE",
"242 678 CURVE",
"204 643 LINE",
"327 653 LINE",
"323 710 LINE",
"328 710 OFFCURVE",
"236 705 OFFCURVE",
"178 705 CURVE SMOOTH",
"159 705 OFFCURVE",
"100 708 OFFCURVE",
"63 710 CURVE",
"58 658 LINE",
"170 640 LINE",
"131 678 LINE",
"135 658 OFFCURVE",
"145 591 OFFCURVE",
"145 570 CURVE SMOOTH",
"145 135 LINE SMOOTH",
"145 114 OFFCURVE",
"134 45 OFFCURVE",
"131 28 CURVE",
"170 67 LINE",
"56 44 LINE",
"61 -5 LINE"
);
}
);
width = 591.5;
}
);
leftKerningGroup = UC_Stem;
rightKerningGroup = UC_L;
unicode = 004C;
},
{
color = 6;
glyphname = M;
layers = (
{
anchors = (
{
name = bottom;
position = "{497, 0}";
},
{
name = top;
position = "{497, 705}";
}
);
layerId = "16643525-C5DD-48EC-8E99-463BF28F5E85";
paths = (
{
closed = 1;
nodes = (
"92 -3 OFFCURVE",
"153 0 OFFCURVE",
"172 0 CURVE SMOOTH",
"302 0 LINE",
"309 67 LINE",
"181 78 LINE",
"241 31 LINE",
"237 63 OFFCURVE",
"232 143 OFFCURVE",
"234 186 CURVE SMOOTH",
"256 591 LINE",
"234 588 LINE",
"442 0 LINE",
"520 0 LINE",
"732 587 LINE",
"710 591 LINE",
"732 156 LINE SMOOTH",
"733 127 OFFCURVE",
"726 54 OFFCURVE",
"723 31 CURVE",
"783 83 LINE",
"659 60 LINE",
"664 -5 LINE",
"710 -3 OFFCURVE",
"777 0 OFFCURVE",
"803 0 CURVE SMOOTH",
"941 0 LINE",
"947 67 LINE",
"820 78 LINE",
"885 31 LINE",
"879 55 OFFCURVE",
"862 142 OFFCURVE",
"858 186 CURVE SMOOTH",
"833 519 LINE SMOOTH",
"829 569 OFFCURVE",
"833 624 OFFCURVE",
"834 653 CURVE",
"777 623 LINE",
"902 635 LINE",
"897 710 LINE",
"862 708 OFFCURVE",
"800 705 OFFCURVE",
"759 705 CURVE SMOOTH",
"680 705 LINE",
"660 685 LINE",
"645 635 OFFCURVE",
"622 563 OFFCURVE",
"616 546 CURVE SMOOTH",
"480 156 LINE",
"516 156 LINE",
"387 533 LINE SMOOTH",
"379 557 OFFCURVE",
"357 634 OFFCURVE",
"342 685 CURVE",
"322 705 LINE",
"207 705 LINE SMOOTH",
"180 705 OFFCURVE",
"125 708 OFFCURVE",
"89 710 CURVE",
"84 640 LINE",
"208 619 LINE",
"152 656 LINE",
"154 636 OFFCURVE",
"160 579 OFFCURVE",
"158 549 CURVE SMOOTH",
"134 156 LINE SMOOTH",
"132 127 OFFCURVE",
"117 65 OFFCURVE",
"109 31 CURVE",
"174 83 LINE",
"47 60 LINE",
"52 -5 LINE"
);
}
);
width = 995;
},
{
anchors = (
{
name = bottom;
position = "{489, 0}";
},
{
name = top;
position = "{489, 705}";
}
);
layerId = "4E6502B1-B066-4D3E-9BD1-B1D9901B4F4F";
paths = (
{
closed = 1;
nodes = (
"95 -3 OFFCURVE",
"156 0 OFFCURVE",
"176 0 CURVE SMOOTH",
"290 0 LINE",
"297 53 LINE",
"181 63 LINE",
"219 22 LINE",
"216 37 OFFCURVE",
"208 132 OFFCURVE",
"210 165 CURVE SMOOTH",
"236 623 LINE",
"222 621 LINE",
"456 0 LINE",
"488 0 LINE",
"722 621 LINE",
"708 623 LINE",
"739 135 LINE SMOOTH",
"741 111 OFFCURVE",
"729 39 OFFCURVE",
"726 22 CURVE",
"767 67 LINE",
"655 44 LINE",
"660 -5 LINE",
"705 -3 OFFCURVE",
"769 0 OFFCURVE",
"794 0 CURVE SMOOTH",
"922 0 LINE",
"929 53 LINE",
"812 63 LINE",
"854 22 LINE",
"847 54 OFFCURVE",
"829 146 OFFCURVE",
"827 165 CURVE SMOOTH",
"798 540 LINE SMOOTH",
"796 558 OFFCURVE",
"799 620 OFFCURVE",
"800 674 CURVE",
"765 643 LINE",
"880 653 LINE",
"876 710 LINE",
"827 708 OFFCURVE",
"771 705 OFFCURVE",
"719 705 CURVE SMOOTH",
"699 705 LINE",
"679 685 LINE",
"660 630 OFFCURVE",
"632 552 OFFCURVE",
"625 536 CURVE",
"475 140 LINE",
"500 140 LINE",
"352 529 LINE",
"345 546 OFFCURVE",
"318 627 OFFCURVE",
"299 684 CURVE",
"280 705 LINE",
"205 705 LINE SMOOTH",
"186 705 OFFCURVE",
"127 708 OFFCURVE",
"90 710 CURVE",
"85 658 LINE",
"203 641 LINE",
"164 685 LINE",
"168 659 OFFCURVE",
"173 592 OFFCURVE",
"172 571 CURVE SMOOTH",
"146 135 LINE SMOOTH",
"145 114 OFFCURVE",
"121 34 OFFCURVE",
"118 22 CURVE",
"163 67 LINE",
"50 44 LINE",
"55 -5 LINE"
);
}
);
width = 978.5;
}
);
leftKerningGroup = UC_Stem;
rightKerningGroup = UC_Stem;
unicode = 004D;
},
{
color = 6;
glyphname = N;
layers = (
{
anchors = (
{
name = bottom;
position = "{418, 0}";
},
{
name = top;
position = "{413, 720}";
}
);
layerId = "16643525-C5DD-48EC-8E99-463BF28F5E85";
paths = (
{
closed = 1;
nodes = (
"99 -3 OFFCURVE",
"160 0 OFFCURVE",
"179 0 CURVE SMOOTH",
"316 0 LINE",
"322 67 LINE",
"196 78 LINE",
"257 34 LINE",
"253 65 OFFCURVE",
"244 136 OFFCURVE",
"244 187 CURVE SMOOTH",
"244 533 LINE",
"211 522 LINE",
"586 0 LINE",
"703 0 LINE",
"703 519 LINE SMOOTH",
"703 574 OFFCURVE",
"716 643 OFFCURVE",
"719 670 CURVE",
"657 623 LINE",
"782 635 LINE",
"778 710 LINE",
"733 708 OFFCURVE",
"691 705 OFFCURVE",
"623 705 CURVE SMOOTH",
"599 705 OFFCURVE",
"550 708 OFFCURVE",
"519 710 CURVE",
"514 640 LINE",
"637 619 LINE",
"574 671 LINE",
"579 645 OFFCURVE",
"591 576 OFFCURVE",
"591 549 CURVE SMOOTH",
"591 158 LINE",
"624 169 LINE",
"360 536 LINE SMOOTH",
"349 551 OFFCURVE",
"302 630 OFFCURVE",
"270 685 CURVE",
"251 705 LINE",
"171 705 LINE SMOOTH",
"146 705 OFFCURVE",
"93 708 OFFCURVE",
"59 710 CURVE",
"54 640 LINE",
"178 619 LINE",
"116 669 LINE",
"120 648 OFFCURVE",
"132 575 OFFCURVE",
"132 549 CURVE SMOOTH",
"132 157 LINE SMOOTH",
"132 129 OFFCURVE",
"122 67 OFFCURVE",
"118 41 CURVE",
"179 83 LINE",
"54 60 LINE",
"59 -5 LINE"
);
}
);
width = 825;
},
{
anchors = (
{
name = bottom;
position = "{416, 0}";
},
{
name = top;
position = "{394, 720}";
}
);
layerId = "4E6502B1-B066-4D3E-9BD1-B1D9901B4F4F";
paths = (
{
closed = 1;
nodes = (
"103 -3 OFFCURVE",
"164 0 OFFCURVE",
"185 0 CURVE SMOOTH",
"291 0 LINE",
"298 53 LINE",
"182 63 LINE",
"220 26 LINE",
"216 53 OFFCURVE",
"209 113 OFFCURVE",
"209 165 CURVE SMOOTH",
"209 598 LINE",
"189 592 LINE",
"608 0 LINE",
"662 0 LINE",
"663 540 LINE SMOOTH",
"663 595 OFFCURVE",
"681 655 OFFCURVE",
"686 679 CURVE",
"645 643 LINE",
"758 653 LINE",
"754 710 LINE",
"725 708 OFFCURVE",
"684 705 OFFCURVE",
"625 705 CURVE SMOOTH",
"606 705 OFFCURVE",
"549 708 OFFCURVE",
"518 710 CURVE",
"513 658 LINE",
"626 640 LINE",
"586 684 LINE",
"590 665 OFFCURVE",
"601 590 OFFCURVE",
"601 570 CURVE SMOOTH",
"601 129 LINE",
"621 135 LINE",
"336 529 LINE SMOOTH",
"324 546 OFFCURVE",
"273 628 OFFCURVE",
"238 685 CURVE",
"218 705 LINE",
"177 705 LINE SMOOTH",
"157 705 OFFCURVE",
"99 708 OFFCURVE",
"61 710 CURVE",
"56 658 LINE",
"171 641 LINE",
"134 673 LINE",
"135 658 OFFCURVE",
"146 590 OFFCURVE",
"146 570 CURVE SMOOTH",
"146 135 LINE SMOOTH",
"146 114 OFFCURVE",
"136 49 OFFCURVE",
"132 29 CURVE",
"171 67 LINE",
"58 44 LINE",
"63 -5 LINE"
);
}
);
width = 805.2;
}
);
leftKerningGroup = UC_Stem;
rightKerningGroup = UC_N;
unicode = 004E;
},
{
color = 6;
glyphname = Eng;
layers = (
{
layerId = "16643525-C5DD-48EC-8E99-463BF28F5E85";
paths = (
{
closed = 1;
nodes = (
"631 -115 OFFCURVE",
"703 -31 OFFCURVE",
"703 0 CURVE SMOOTH",
"703 519 LINE SMOOTH",
"703 569 OFFCURVE",
"713 628 OFFCURVE",
"718 660 CURVE",
"650 622 LINE",
"782 635 LINE",
"778 710 LINE",
"733 708 OFFCURVE",
"691 705 OFFCURVE",
"623 705 CURVE SMOOTH",
"599 705 OFFCURVE",
"550 708 OFFCURVE",
"519 710 CURVE",
"514 640 LINE",
"644 617 LINE",
"577 668 LINE",
"579 638 OFFCURVE",
"591 575 OFFCURVE",
"591 549 CURVE SMOOTH",
"591 152 LINE",
"628 164 LINE",
"360 536 LINE SMOOTH",
"349 551 OFFCURVE",
"302 630 OFFCURVE",
"270 685 CURVE",
"251 705 LINE",
"171 705 LINE SMOOTH",
"146 705 OFFCURVE",
"93 708 OFFCURVE",
"59 710 CURVE",
"54 640 LINE",
"185 617 LINE",
"118 663 LINE",
"120 642 OFFCURVE",
"132 573 OFFCURVE",
"132 549 CURVE SMOOTH",
"132 157 LINE SMOOTH",
"132 127 OFFCURVE",
"121 64 OFFCURVE",
"119 37 CURVE",
"185 85 LINE",
"54 60 LINE",
"59 -5 LINE",
"99 -3 OFFCURVE",
"160 0 OFFCURVE",
"179 0 CURVE SMOOTH",
"316 0 LINE",
"322 67 LINE",
"189 78 LINE",
"256 39 LINE",
"251 74 OFFCURVE",
"244 139 OFFCURVE",
"244 187 CURVE SMOOTH",
"244 539 LINE",
"207 527 LINE",
"622 -49 LINE",
"599 71 LINE",
"597 -5 OFFCURVE",
"531 -107 OFFCURVE",
"492 -169 CURVE",
"546 -200 LINE"
);
}
);
width = 825;
},
{
layerId = "4E6502B1-B066-4D3E-9BD1-B1D9901B4F4F";
paths = (
{
closed = 1;
nodes = (
"650 -55 OFFCURVE",
"662 -27 OFFCURVE",
"662 0 CURVE SMOOTH",
"663 540 LINE SMOOTH",
"663 584 OFFCURVE",
"676 634 OFFCURVE",
"682 662 CURVE",
"645 643 LINE",
"758 653 LINE",
"754 710 LINE",
"725 708 OFFCURVE",
"684 705 OFFCURVE",
"625 705 CURVE SMOOTH",
"606 705 OFFCURVE",
"549 708 OFFCURVE",
"518 710 CURVE",
"513 658 LINE",
"625 640 LINE",
"587 669 LINE",
"594 639 OFFCURVE",
"601 586 OFFCURVE",
"601 570 CURVE SMOOTH",
"601 129 LINE",
"620 134 LINE",
"336 529 LINE SMOOTH",
"324 546 OFFCURVE",
"273 628 OFFCURVE",
"238 685 CURVE",
"218 705 LINE",
"177 705 LINE SMOOTH",
"157 705 OFFCURVE",
"99 708 OFFCURVE",
"61 710 CURVE",
"56 658 LINE",
"171 641 LINE",
"135 665 LINE",
"138 643 OFFCURVE",
"146 587 OFFCURVE",
"146 570 CURVE SMOOTH",
"146 135 LINE SMOOTH",
"146 116 OFFCURVE",
"138 65 OFFCURVE",
"134 38 CURVE",
"171 66 LINE",
"58 44 LINE",
"63 -5 LINE",
"103 -3 OFFCURVE",
"164 0 OFFCURVE",
"185 0 CURVE SMOOTH",
"291 0 LINE",
"298 53 LINE",
"182 63 LINE",
"219 42 LINE",
"214 73 OFFCURVE",
"209 121 OFFCURVE",
"209 165 CURVE SMOOTH",
"209 597 LINE",
"189 592 LINE",
"621 -19 LINE",
"617 71 LINE",
"604 -18 OFFCURVE",
"556 -109 OFFCURVE",
"523 -179 CURVE",
"555 -200 LINE"
);
}
);
width = 805.2;
}
);
leftKerningGroup = UC_Stem;
rightKerningGroup = UC_N;
unicode = 014A;
},
{
color = 6;
glyphname = Nhookleft;
layers = (
{
anchors = (
{
name = bottom;
position = "{409, 0}";
},
{
name = top;
position = "{409, 705}";
}
);
layerId = "16643525-C5DD-48EC-8E99-463BF28F5E85";
paths = (
{
closed = 1;
nodes = (
"187 -190 OFFCURVE",
"233 -81 OFFCURVE",
"233 30 CURVE SMOOTH",
"233 533 LINE",
"200 522 LINE",
"575 0 LINE",
"692 0 LINE",
"692 519 LINE SMOOTH",
"692 574 OFFCURVE",
"705 643 OFFCURVE",
"708 670 CURVE",
"646 623 LINE",
"771 635 LINE",
"767 710 LINE",
"722 708 OFFCURVE",
"680 705 OFFCURVE",
"612 705 CURVE SMOOTH",
"588 705 OFFCURVE",
"539 708 OFFCURVE",
"508 710 CURVE",
"503 640 LINE",
"626 619 LINE",
"563 671 LINE",
"568 645 OFFCURVE",
"580 576 OFFCURVE",
"580 549 CURVE SMOOTH",
"580 158 LINE",
"613 169 LINE",
"349 536 LINE SMOOTH",
"338 551 OFFCURVE",
"291 630 OFFCURVE",
"259 685 CURVE",
"240 705 LINE",
"160 705 LINE SMOOTH",
"135 705 OFFCURVE",
"82 708 OFFCURVE",
"48 710 CURVE",
"43 640 LINE",
"167 619 LINE",
"105 669 LINE",
"109 648 OFFCURVE",
"121 575 OFFCURVE",
"121 549 CURVE",
"122 13 LINE SMOOTH",
"122 -68 OFFCURVE",
"98 -109 OFFCURVE",
"44 -109 CURVE",
"44 -190 LINE"
);
}
);
width = 814;
},
{
anchors = (
{
name = bottom;
position = "{393, 0}";
},
{
name = top;
position = "{393, 705}";
}
);
layerId = "4E6502B1-B066-4D3E-9BD1-B1D9901B4F4F";
paths = (
{
closed = 1;
nodes = (
"149 -194 OFFCURVE",
"199 -142 OFFCURVE",
"199 -3 CURVE SMOOTH",
"199 598 LINE",
"179 592 LINE",
"598 0 LINE",
"652 0 LINE",
"654 540 LINE SMOOTH",
"654 595 OFFCURVE",
"671 655 OFFCURVE",
"676 679 CURVE",
"635 643 LINE",
"748 653 LINE",
"744 710 LINE",
"715 708 OFFCURVE",
"675 705 OFFCURVE",
"615 705 CURVE SMOOTH",
"596 705 OFFCURVE",
"539 708 OFFCURVE",
"508 710 CURVE",
"503 658 LINE",
"616 640 LINE",
"576 684 LINE",
"580 665 OFFCURVE",
"591 590 OFFCURVE",
"591 570 CURVE SMOOTH",
"591 129 LINE",
"611 135 LINE",
"326 529 LINE SMOOTH",
"314 546 OFFCURVE",
"263 628 OFFCURVE",
"228 685 CURVE",
"208 705 LINE",
"167 705 LINE SMOOTH",
"147 705 OFFCURVE",
"89 708 OFFCURVE",
"51 710 CURVE",
"46 658 LINE",
"162 641 LINE",
"124 673 LINE",
"126 658 OFFCURVE",
"136 590 OFFCURVE",
"136 570 CURVE",
"136 2 LINE SMOOTH",
"136 -101 OFFCURVE",
"106 -144 OFFCURVE",
"34 -144 CURVE",
"33 -194 LINE"
);
}
);
width = 795.3;
}
);
leftKerningGroup = LC_J;
rightKerningGroup = UC_N;
unicode = 019D;
},
{
color = 6;
glyphname = O;
layers = (
{
anchors = (
{
name = bottom;
position = "{414, 0}";
},
{
name = center;
position = "{434, 353}";
},
{
name = ogonek;
position = "{527, 0}";
},
{
name = top;
position = "{413, 720}";
},
{
name = topright;
position = "{615, 630}";
}
);
layerId = "16643525-C5DD-48EC-8E99-463BF28F5E85";
paths = (
{
closed = 1;
nodes = (
"630 -15 OFFCURVE",
"764 132 OFFCURVE",
"764 352 CURVE SMOOTH",
"764 573 OFFCURVE",
"630 720 OFFCURVE",
"414 720 CURVE SMOOTH",
"197 720 OFFCURVE",
"64 573 OFFCURVE",
"64 352 CURVE SMOOTH",
"64 132 OFFCURVE",
"197 -15 OFFCURVE",
"414 -15 CURVE SMOOTH"
);
},
{
closed = 1;
nodes = (
"287 71 OFFCURVE",
"226 172 OFFCURVE",
"226 352 CURVE SMOOTH",
"226 533 OFFCURVE",
"287 634 OFFCURVE",
"414 634 CURVE SMOOTH",
"541 634 OFFCURVE",
"602 533 OFFCURVE",
"602 352 CURVE SMOOTH",
"602 172 OFFCURVE",
"541 71 OFFCURVE",
"414 71 CURVE SMOOTH"
);
}
);
width = 829;
},
{
anchors = (
{
name = bottom;
position = "{398, 0}";
},
{
name = center;
position = "{407, 353}";
},
{
name = ogonek;
position = "{507, 0}";
},
{
name = top;
position = "{398, 720}";
},
{
name = topright;
position = "{577, 630}";
}
);
layerId = "4E6502B1-B066-4D3E-9BD1-B1D9901B4F4F";
paths = (
{
closed = 1;
nodes = (
"615 -15 OFFCURVE",
"723 135 OFFCURVE",
"723 352 CURVE SMOOTH",
"723 570 OFFCURVE",
"615 720 OFFCURVE",
"398 720 CURVE SMOOTH",
"181 720 OFFCURVE",
"72 570 OFFCURVE",
"72 352 CURVE SMOOTH",
"72 135 OFFCURVE",
"181 -15 OFFCURVE",
"398 -15 CURVE SMOOTH"
);
},
{
closed = 1;
nodes = (
"246 35 OFFCURVE",
"173 179 OFFCURVE",
"173 352 CURVE SMOOTH",
"173 526 OFFCURVE",
"246 670 OFFCURVE",
"398 670 CURVE SMOOTH",
"549 670 OFFCURVE",
"622 526 OFFCURVE",
"622 352 CURVE SMOOTH",
"622 179 OFFCURVE",
"549 35 OFFCURVE",
"398 35 CURVE SMOOTH"
);
}
);
width = 794.9;
}
);
leftKerningGroup = UC_Round;
rightKerningGroup = UC_Round;
unicode = 004F;
},
{
color = 6;
glyphname = Oslash;
layers = (
{
anchors = (
{
name = bottom;
position = "{413, 0}";
},
{
name = center;
position = "{433, 353}";
},
{
name = ogonek;
position = "{526, 0}";
},
{
name = top;
position = "{413, 705}";
},
{
name = topright;
position = "{614, 630}";
}
);
layerId = "16643525-C5DD-48EC-8E99-463BF28F5E85";
paths = (
{
closed = 1;
nodes = (
"709 809 LINE",
"650 838 LINE",
"153 -108 LINE",
"210 -137 LINE"
);
},
{
closed = 1;
nodes = (
"629 -15 OFFCURVE",
"763 132 OFFCURVE",
"763 352 CURVE SMOOTH",
"763 573 OFFCURVE",
"629 720 OFFCURVE",
"413 720 CURVE SMOOTH",
"196 720 OFFCURVE",
"63 573 OFFCURVE",
"63 352 CURVE SMOOTH",
"63 132 OFFCURVE",
"196 -15 OFFCURVE",
"413 -15 CURVE SMOOTH"
);
},
{
closed = 1;
nodes = (
"286 71 OFFCURVE",
"225 172 OFFCURVE",
"225 352 CURVE SMOOTH",
"225 533 OFFCURVE",
"286 634 OFFCURVE",
"413 634 CURVE SMOOTH",
"540 634 OFFCURVE",
"601 533 OFFCURVE",
"601 352 CURVE SMOOTH",
"601 172 OFFCURVE",
"540 71 OFFCURVE",
"413 71 CURVE SMOOTH"
);
}
);
width = 826;
},
{
anchors = (
{
name = bottom;
position = "{398, 0}";
},
{
name = center;
position = "{407, 353}";
},
{
name = ogonek;
position = "{507, 0}";
},
{
name = top;
position = "{398, 705}";
},
{
name = topright;
position = "{577, 630}";
}
);
layerId = "4E6502B1-B066-4D3E-9BD1-B1D9901B4F4F";
paths = (
{
closed = 1;
nodes = (
"665 816 LINE",
"625 838 LINE",
"124 -114 LINE",
"163 -136 LINE"
);
},
{
closed = 1;
nodes = (
"615 -15 OFFCURVE",
"723 135 OFFCURVE",
"723 352 CURVE SMOOTH",
"723 570 OFFCURVE",
"615 720 OFFCURVE",
"398 720 CURVE SMOOTH",
"181 720 OFFCURVE",
"72 570 OFFCURVE",
"72 352 CURVE SMOOTH",
"72 135 OFFCURVE",
"181 -15 OFFCURVE",
"398 -15 CURVE SMOOTH"
);
},
{
closed = 1;
nodes = (
"246 35 OFFCURVE",
"173 179 OFFCURVE",
"173 352 CURVE SMOOTH",
"173 526 OFFCURVE",
"246 670 OFFCURVE",
"398 670 CURVE SMOOTH",
"549 670 OFFCURVE",
"622 526 OFFCURVE",
"622 352 CURVE SMOOTH",
"622 179 OFFCURVE",
"549 35 OFFCURVE",
"398 35 CURVE SMOOTH"
);
}
);
width = 795.2;
}
);
leftKerningGroup = UC_Round;
rightKerningGroup = UC_Round;
unicode = 00D8;
},
{
color = 6;
glyphname = OE;
layers = (
{
anchors = (
{
name = bottom;
position = "{305, 0}";
},
{
name = top;
position = "{305, 720}";
}
);
layerId = "16643525-C5DD-48EC-8E99-463BF28F5E85";
paths = (
{
closed = 1;
nodes = (
"467 -6 OFFCURVE",
"522 -2 OFFCURVE",
"577 0 CURVE",
"652 47 LINE",
"650 69 OFFCURVE",
"643 141 OFFCURVE",
"643 187 CURVE SMOOTH",
"643 519 LINE SMOOTH",
"643 568 OFFCURVE",
"649 638 OFFCURVE",
"650 656 CURVE",
"550 705 LINE",
"505 707 OFFCURVE",
"458 710 OFFCURVE",
"413 710 CURVE SMOOTH",
"196 710 OFFCURVE",
"63 567 OFFCURVE",
"63 352 CURVE SMOOTH",
"63 138 OFFCURVE",
"196 -6 OFFCURVE",
"413 -6 CURVE SMOOTH"
);
},
{
closed = 1;
nodes = (
"550 83 LINE",
"505 80 OFFCURVE",
"458 80 OFFCURVE",
"413 80 CURVE SMOOTH",
"286 80 OFFCURVE",
"225 179 OFFCURVE",
"225 352 CURVE SMOOTH",
"225 526 OFFCURVE",
"286 624 OFFCURVE",
"413 624 CURVE SMOOTH",
"464 624 OFFCURVE",
"511 623 OFFCURVE",
"550 622 CURVE",
"498 671 LINE",
"502 640 OFFCURVE",
"504 577 OFFCURVE",
"504 549 CURVE SMOOTH",
"504 157 LINE SMOOTH",
"504 130 OFFCURVE",
"502 64 OFFCURVE",
"499 37 CURVE"
);
},
{
closed = 1;
nodes = (
"919 14 LINE",
"934 184 LINE",
"868 189 LINE",
"855 129 LINE SMOOTH",
"851 112 OFFCURVE",
"830 73 OFFCURVE",
"804 42 CURVE",
"857 93 LINE",
"842 89 OFFCURVE",
"800 80 OFFCURVE",
"756 80 CURVE SMOOTH",
"530 80 LINE",
"530 0 LINE",
"786 0 LINE SMOOTH",
"814 0 OFFCURVE",
"862 -2 OFFCURVE",
"900 -4 CURVE"
);
},
{
closed = 1;
nodes = (
"830 260 LINE",
"828 301 OFFCURVE",
"827 341 OFFCURVE",
"827 382 CURVE SMOOTH",
"827 466 LINE",
"770 471 LINE",
"756 367 LINE",
"789 409 LINE",
"770 403 OFFCURVE",
"736 397 OFFCURVE",
"713 397 CURVE SMOOTH",
"530 397 LINE",
"530 322 LINE",
"693 322 LINE SMOOTH",
"723 322 OFFCURVE",
"775 317 OFFCURVE",
"805 315 CURVE",
"756 352 LINE",
"770 254 LINE"
);
},
{
closed = 1;
nodes = (
"912 547 LINE",
"905 692 LINE",
"886 710 LINE",
"848 707 OFFCURVE",
"790 705 OFFCURVE",
"772 705 CURVE SMOOTH",
"530 705 LINE",
"530 630 LINE",
"745 630 LINE SMOOTH",
"785 630 OFFCURVE",
"832 625 OFFCURVE",
"857 623 CURVE",
"802 675 LINE",
"816 647 OFFCURVE",
"835 603 OFFCURVE",
"837 590 CURVE SMOOTH",
"844 542 LINE"
);
}
);
width = 997;
},
{
anchors = (
{
name = bottom;
position = "{297, 0}";
},
{
name = top;
position = "{297, 720}";
}
);
layerId = "4E6502B1-B066-4D3E-9BD1-B1D9901B4F4F";
paths = (
{
closed = 1;
nodes = (
"448 -5 OFFCURVE",
"501 -2 OFFCURVE",
"553 0 CURVE",
"601 13 LINE",
"596 43 OFFCURVE",
"589 116 OFFCURVE",
"589 165 CURVE",
"589 540 LINE SMOOTH",
"589 588 OFFCURVE",
"596 662 OFFCURVE",
"599 677 CURVE",
"536 705 LINE",
"490 707 OFFCURVE",
"443 710 OFFCURVE",
"397 710 CURVE SMOOTH",
"180 710 OFFCURVE",
"71 564 OFFCURVE",
"71 352 CURVE SMOOTH",
"71 141 OFFCURVE",
"180 -5 OFFCURVE",
"397 -5 CURVE SMOOTH"
);
},
{
closed = 1;
nodes = (
"528 56 LINE",
"484 44 OFFCURVE",
"437 44 OFFCURVE",
"397 45 CURVE SMOOTH",
"245 49 OFFCURVE",
"172 185 OFFCURVE",
"172 352 CURVE SMOOTH",
"172 521 OFFCURVE",
"246 660 OFFCURVE",
"397 660 CURVE SMOOTH",
"437 660 OFFCURVE",
"484 657 OFFCURVE",
"528 651 CURVE",
"499 682 LINE",
"504 644 OFFCURVE",
"503 591 OFFCURVE",
"503 570 CURVE SMOOTH",
"503 135 LINE SMOOTH",
"503 114 OFFCURVE",
"502 43 OFFCURVE",
"498 23 CURVE"
);
},
{
closed = 1;
nodes = (
"908 14 LINE",
"923 163 LINE",
"869 168 LINE",
"854 100 LINE SMOOTH",
"851 86 OFFCURVE",
"831 61 OFFCURVE",
"817 43 CURVE",
"847 67 LINE",
"829 63 OFFCURVE",
"785 55 OFFCURVE",
"745 55 CURVE SMOOTH",
"539 55 LINE",
"539 0 LINE",
"775 0 LINE SMOOTH",
"792 0 OFFCURVE",
"851 -2 OFFCURVE",
"889 -4 CURVE"
);
},
{
closed = 1;
nodes = (
"828 272 LINE",
"826 308 OFFCURVE",
"825 344 OFFCURVE",
"825 380 CURVE SMOOTH",
"825 464 LINE",
"781 469 LINE",
"767 364 LINE",
"798 404 LINE",
"784 402 OFFCURVE",
"739 394 OFFCURVE",
"711 394 CURVE SMOOTH",
"539 394 LINE",
"539 340 LINE",
"691 340 LINE SMOOTH",
"716 340 OFFCURVE",
"781 332 OFFCURVE",
"803 329 CURVE",
"767 370 LINE",
"781 266 LINE"
);
},
{
closed = 1;
nodes = (
"902 562 LINE",
"895 692 LINE",
"876 710 LINE",
"838 707 OFFCURVE",
"780 705 OFFCURVE",
"762 705 CURVE SMOOTH",
"539 705 LINE",
"539 651 LINE",
"732 651 LINE SMOOTH",
"767 651 OFFCURVE",
"809 648 OFFCURVE",
"828 645 CURVE",
"795 664 LINE",
"811 651 OFFCURVE",
"832 622 OFFCURVE",
"834 612 CURVE SMOOTH",
"845 557 LINE"
);
}
);
width = 989.3;
}
);
leftKerningGroup = UC_Round;
rightKerningGroup = UC_E;
unicode = 0152;
},
{
color = 6;
glyphname = P;
layers = (
{
anchors = (
{
name = bottom;
position = "{327, 0}";
},
{
name = top;
position = "{327, 705}";
}
);
layerId = "16643525-C5DD-48EC-8E99-463BF28F5E85";
paths = (
{
closed = 1;
nodes = (
"108 -3 OFFCURVE",
"176 0 OFFCURVE",
"205 0 CURVE SMOOTH",
"356 0 LINE",
"362 67 LINE",
"224 78 LINE",
"286 25 LINE",
"281 52 OFFCURVE",
"271 131 OFFCURVE",
"271 187 CURVE SMOOTH",
"271 519 LINE SMOOTH",
"271 568 OFFCURVE",
"276 629 OFFCURVE",
"282 669 CURVE",
"179 705 LINE",
"152 705 OFFCURVE",
"96 708 OFFCURVE",
"60 710 CURVE",
"55 640 LINE",
"179 619 LINE",
"116 667 LINE",
"124 632 OFFCURVE",
"132 576 OFFCURVE",
"132 549 CURVE SMOOTH",
"132 157 LINE SMOOTH",
"132 127 OFFCURVE",
"121 56 OFFCURVE",
"116 25 CURVE",
"179 83 LINE",
"54 60 LINE",
"59 -5 LINE"
);
},
{
closed = 1;
nodes = (
"474 276 OFFCURVE",
"600 357 OFFCURVE",
"600 498 CURVE SMOOTH",
"600 633 OFFCURVE",
"506 710 OFFCURVE",
"367 710 CURVE SMOOTH",
"312 710 OFFCURVE",
"234 705 OFFCURVE",
"179 705 CURVE",
"179 627 LINE",
"209 630 OFFCURVE",
"285 636 OFFCURVE",
"313 636 CURVE SMOOTH",
"408 636 OFFCURVE",
"455 591 OFFCURVE",
"455 498 CURVE SMOOTH",
"455 402 OFFCURVE",
"395 350 OFFCURVE",
"301 350 CURVE SMOOTH",
"259 350 OFFCURVE",
"216 352 OFFCURVE",
"174 353 CURVE",
"174 277 LINE",
"261 276 OFFCURVE",
"301 276 OFFCURVE",
"335 276 CURVE SMOOTH"
);
}
);
width = 653;
},
{
anchors = (
{
name = bottom;
position = "{314, 0}";
},
{
name = top;
position = "{314, 705}";
}
);
layerId = "4E6502B1-B066-4D3E-9BD1-B1D9901B4F4F";
paths = (
{
closed = 1;
nodes = (
"106 -3 OFFCURVE",
"171 0 OFFCURVE",
"195 0 CURVE SMOOTH",
"333 0 LINE",
"340 53 LINE",
"204 63 LINE",
"243 28 LINE",
"238 54 OFFCURVE",
"231 113 OFFCURVE",
"231 165 CURVE SMOOTH",
"231 540 LINE SMOOTH",
"231 592 OFFCURVE",
"240 661 OFFCURVE",
"242 678 CURVE",
"178 705 LINE",
"159 705 OFFCURVE",
"100 708 OFFCURVE",
"63 710 CURVE",
"58 658 LINE",
"170 640 LINE",
"131 678 LINE",
"135 658 OFFCURVE",
"145 591 OFFCURVE",
"145 570 CURVE SMOOTH",
"145 135 LINE SMOOTH",
"145 114 OFFCURVE",
"134 45 OFFCURVE",
"131 28 CURVE",
"170 67 LINE",
"56 44 LINE",
"61 -5 LINE"
);
},
{
closed = 1;
nodes = (
"456 293 OFFCURVE",
"567 368 OFFCURVE",
"567 502 CURVE SMOOTH",
"567 640 OFFCURVE",
"483 710 OFFCURVE",
"345 710 CURVE SMOOTH",
"290 710 OFFCURVE",
"233 705 OFFCURVE",
"178 705 CURVE",
"178 655 LINE",
"221 659 OFFCURVE",
"261 662 OFFCURVE",
"304 662 CURVE SMOOTH",
"409 662 OFFCURVE",
"478 606 OFFCURVE",
"478 502 CURVE SMOOTH",
"478 393 OFFCURVE",
"409 340 OFFCURVE",
"304 340 CURVE SMOOTH",
"257 340 OFFCURVE",
"209 348 OFFCURVE",
"162 354 CURVE",
"162 298 LINE",
"220 295 OFFCURVE",
"267 293 OFFCURVE",
"323 293 CURVE SMOOTH"
);
}
);
width = 626.6;
}
);
leftKerningGroup = UC_Stem;
rightKerningGroup = UC_F;
unicode = 0050;
},
{
color = 6;
glyphname = Thorn;
layers = (
{
anchors = (
{
name = bottom;
position = "{321, 0}";
},
{
name = top;
position = "{321, 705}";
}
);
layerId = "16643525-C5DD-48EC-8E99-463BF28F5E85";
paths = (
{
closed = 1;
nodes = (
"108 -2 OFFCURVE",
"156 0 OFFCURVE",
"205 0 CURVE SMOOTH",
"346 0 LINE",
"351 67 LINE",
"224 78 LINE",
"286 25 LINE",
"281 52 OFFCURVE",
"271 131 OFFCURVE",
"271 187 CURVE SMOOTH",
"271 519 LINE SMOOTH",
"271 569 OFFCURVE",
"279 629 OFFCURVE",
"286 669 CURVE",
"224 623 LINE",
"349 635 LINE",
"344 710 LINE",
"289 707 OFFCURVE",
"234 705 OFFCURVE",
"179 705 CURVE SMOOTH",
"152 705 OFFCURVE",
"96 708 OFFCURVE",
"60 710 CURVE",
"55 640 LINE",
"179 619 LINE",
"116 667 LINE",
"124 632 OFFCURVE",
"132 576 OFFCURVE",
"132 549 CURVE SMOOTH",
"132 157 LINE SMOOTH",
"132 127 OFFCURVE",
"121 56 OFFCURVE",
"116 25 CURVE",
"179 83 LINE",
"54 60 LINE",
"59 -5 LINE"
);
},
{
closed = 1;
nodes = (
"237 162 OFFCURVE",
"318 163 OFFCURVE",
"342 163 CURVE SMOOTH",
"478 163 OFFCURVE",
"591 234 OFFCURVE",
"591 358 CURVE SMOOTH",
"591 480 OFFCURVE",
"498 554 OFFCURVE",
"359 554 CURVE SMOOTH",
"338 554 OFFCURVE",
"249 552 OFFCURVE",
"209 549 CURVE",
"209 478 LINE",
"226 478 OFFCURVE",
"296 479 OFFCURVE",
"305 479 CURVE SMOOTH",
"400 479 OFFCURVE",
"447 438 OFFCURVE",
"447 358 CURVE SMOOTH",
"447 279 OFFCURVE",
"385 238 OFFCURVE",
"293 238 CURVE SMOOTH",
"284 238 OFFCURVE",
"222 238 OFFCURVE",
"209 237 CURVE",
"209 162 LINE"
);
}
);
width = 642;
},
{
anchors = (
{
name = bottom;
position = "{306, 0}";
},
{
name = top;
position = "{306, 705}";
}
);
layerId = "4E6502B1-B066-4D3E-9BD1-B1D9901B4F4F";
paths = (
{
closed = 1;
nodes = (
"56 -4 OFFCURVE",
"173 1 OFFCURVE",
"195 1 CURVE",
"323 1 LINE",
"330 54 LINE",
"204 64 LINE",
"243 29 LINE",
"238 55 OFFCURVE",
"231 115 OFFCURVE",
"231 165 CURVE SMOOTH",
"231 541 LINE SMOOTH",
"231 593 OFFCURVE",
"239 662 OFFCURVE",
"242 679 CURVE",
"204 644 LINE",
"317 654 LINE",
"313 711 LINE",
"274 708 OFFCURVE",
"238 705 OFFCURVE",
"178 705 CURVE SMOOTH",
"159 705 OFFCURVE",
"100 708 OFFCURVE",
"63 710 CURVE",
"58 658 LINE",
"172 641 LINE",
"131 679 LINE",
"135 660 OFFCURVE",
"145 593 OFFCURVE",
"145 571 CURVE SMOOTH",
"145 136 LINE SMOOTH",
"145 115 OFFCURVE",
"134 46 OFFCURVE",
"131 29 CURVE",
"170 68 LINE",
"56 45 LINE",
"61 -4 LINE"
);
},
{
closed = 1;
nodes = (
"197 168 OFFCURVE",
"281 167 OFFCURVE",
"309 167 CURVE SMOOTH",
"443 167 OFFCURVE",
"555 238 OFFCURVE",
"555 361 CURVE SMOOTH",
"555 491 OFFCURVE",
"471 558 OFFCURVE",
"333 558 CURVE SMOOTH",
"302 558 OFFCURVE",
"211 555 OFFCURVE",
"169 552 CURVE",
"169 504 LINE",
"195 507 OFFCURVE",
"271 510 OFFCURVE",
"291 510 CURVE SMOOTH",
"396 510 OFFCURVE",
"466 459 OFFCURVE",
"466 361 CURVE SMOOTH",
"466 265 OFFCURVE",
"396 216 OFFCURVE",
"292 216 CURVE SMOOTH",
"263 216 OFFCURVE",
"200 217 OFFCURVE",
"169 219 CURVE",
"169 168 LINE"
);
}
);
width = 612.3;
}
);
leftKerningGroup = UC_Stem;
rightKerningGroup = UC_Thorn;
unicode = 00DE;
},
{
color = 6;
glyphname = Q;
layers = (
{
anchors = (
{
name = bottom;
position = "{413, 0}";
},
{
name = top;
position = "{413, 705}";
}
);
layerId = "16643525-C5DD-48EC-8E99-463BF28F5E85";
paths = (
{
closed = 1;
nodes = (
"629 -15 OFFCURVE",
"763 132 OFFCURVE",
"763 352 CURVE SMOOTH",
"763 573 OFFCURVE",
"629 720 OFFCURVE",
"413 720 CURVE SMOOTH",
"196 720 OFFCURVE",
"63 573 OFFCURVE",
"63 352 CURVE SMOOTH",
"63 132 OFFCURVE",
"196 -15 OFFCURVE",
"413 -15 CURVE SMOOTH"
);
},
{
closed = 1;
nodes = (
"795 -108 LINE",
"734 -83 OFFCURVE",
"648 -46 OFFCURVE",
"637 -39 CURVE SMOOTH",
"523 38 LINE",
"402 10 LINE",
"713 -224 LINE"
);
},
{
closed = 1;
nodes = (
"286 71 OFFCURVE",
"225 172 OFFCURVE",
"225 352 CURVE SMOOTH",
"225 533 OFFCURVE",
"286 634 OFFCURVE",
"413 634 CURVE SMOOTH",
"540 634 OFFCURVE",
"601 533 OFFCURVE",
"601 352 CURVE SMOOTH",
"601 172 OFFCURVE",
"540 71 OFFCURVE",
"413 71 CURVE SMOOTH"
);
}
);
width = 826;
},
{
anchors = (
{
name = bottom;
position = "{399, 0}";
},
{
name = top;
position = "{399, 705}";
}
);
layerId = "4E6502B1-B066-4D3E-9BD1-B1D9901B4F4F";
paths = (
{
closed = 1;
nodes = (
"615 -15 OFFCURVE",
"723 135 OFFCURVE",
"723 352 CURVE SMOOTH",
"723 570 OFFCURVE",
"615 720 OFFCURVE",
"398 720 CURVE SMOOTH",
"181 720 OFFCURVE",
"72 570 OFFCURVE",
"72 352 CURVE SMOOTH",
"72 135 OFFCURVE",
"181 -15 OFFCURVE",
"398 -15 CURVE SMOOTH"
);
},
{
closed = 1;
nodes = (
"748 -134 LINE",
"687 -108 OFFCURVE",
"602 -70 OFFCURVE",
"590 -62 CURVE SMOOTH",
"472 19 LINE",
"406 7 LINE",
"691 -224 LINE"
);
},
{
closed = 1;
nodes = (
"246 35 OFFCURVE",
"173 179 OFFCURVE",
"173 352 CURVE SMOOTH",
"173 526 OFFCURVE",
"246 670 OFFCURVE",
"398 670 CURVE SMOOTH",
"549 670 OFFCURVE",
"622 526 OFFCURVE",
"622 352 CURVE SMOOTH",
"622 179 OFFCURVE",
"549 35 OFFCURVE",
"398 35 CURVE SMOOTH"
);
}
);
width = 796.3;
}
);
leftKerningGroup = UC_Round;
rightKerningGroup = UC_Q;
unicode = 0051;
},
{
color = 6;
glyphname = R;
layers = (
{
anchors = (
{
name = bottom;
position = "{344, 0}";
},
{
name = top;
position = "{334, 720}";
}
);
layerId = "16643525-C5DD-48EC-8E99-463BF28F5E85";
paths = (
{
closed = 1;
nodes = (
"108 -3 OFFCURVE",
"176 0 OFFCURVE",
"205 0 CURVE SMOOTH",
"338 0 LINE",
"344 67 LINE",
"224 78 LINE",
"286 25 LINE",
"281 52 OFFCURVE",
"271 131 OFFCURVE",
"271 187 CURVE SMOOTH",
"271 519 LINE SMOOTH",
"271 568 OFFCURVE",
"276 629 OFFCURVE",
"282 669 CURVE",
"179 705 LINE",
"152 705 OFFCURVE",
"96 708 OFFCURVE",
"60 710 CURVE",
"55 640 LINE",
"179 619 LINE",
"116 667 LINE",
"124 632 OFFCURVE",
"132 576 OFFCURVE",
"132 549 CURVE SMOOTH",
"132 157 LINE SMOOTH",
"132 127 OFFCURVE",
"121 56 OFFCURVE",
"116 25 CURVE",
"179 83 LINE",
"54 60 LINE",
"59 -5 LINE"
);
},
{
closed = 1;
nodes = (
"659 0 LINE",
"665 67 LINE",
"611 72 LINE",
"601 87 OFFCURVE",
"581 117 OFFCURVE",
"572 131 CURVE SMOOTH",
"567 140 OFFCURVE",
"500 243 OFFCURVE",
"450 349 CURVE",
"307 345 LINE",
"426 116 LINE SMOOTH",
"434 100 OFFCURVE",
"460 39 OFFCURVE",
"477 0 CURVE"
);
},
{
closed = 1;
nodes = (
"466 283 OFFCURVE",
"594 368 OFFCURVE",
"594 505 CURVE SMOOTH",
"594 633 OFFCURVE",
"501 710 OFFCURVE",
"363 710 CURVE SMOOTH",
"308 710 OFFCURVE",
"234 705 OFFCURVE",
"179 705 CURVE",
"179 626 LINE",
"210 629 OFFCURVE",
"293 636 OFFCURVE",
"316 636 CURVE SMOOTH",
"409 636 OFFCURVE",
"449 587 OFFCURVE",
"449 500 CURVE SMOOTH",
"449 406 OFFCURVE",
"399 359 OFFCURVE",
"306 359 CURVE SMOOTH",
"260 359 OFFCURVE",
"214 361 OFFCURVE",
"168 362 CURVE",
"168 294 LINE",
"221 289 OFFCURVE",
"274 283 OFFCURVE",
"326 283 CURVE SMOOTH"
);
}
);
width = 709;
},
{
anchors = (
{
name = bottom;
position = "{357, 0}";
},
{
name = top;
position = "{314, 720}";
}
);
layerId = "4E6502B1-B066-4D3E-9BD1-B1D9901B4F4F";
paths = (
{
closed = 1;
nodes = (
"106 -3 OFFCURVE",
"171 0 OFFCURVE",
"195 0 CURVE SMOOTH",
"324 0 LINE",
"331 53 LINE",
"204 63 LINE",
"243 28 LINE",
"238 54 OFFCURVE",
"231 113 OFFCURVE",
"231 165 CURVE SMOOTH",
"231 540 LINE SMOOTH",
"231 592 OFFCURVE",
"240 661 OFFCURVE",
"242 678 CURVE",
"178 705 LINE",
"159 705 OFFCURVE",
"100 708 OFFCURVE",
"63 710 CURVE",
"58 658 LINE",
"170 640 LINE",
"131 678 LINE",
"135 658 OFFCURVE",
"145 591 OFFCURVE",
"145 570 CURVE SMOOTH",
"145 135 LINE SMOOTH",
"145 114 OFFCURVE",
"134 45 OFFCURVE",
"131 28 CURVE",
"170 67 LINE",
"56 44 LINE",
"61 -5 LINE"
);
},
{
closed = 1;
nodes = (
"639 0 LINE",
"646 53 LINE",
"573 60 LINE",
"556 83 OFFCURVE",
"532 116 OFFCURVE",
"523 131 CURVE SMOOTH",
"516 140 OFFCURVE",
"454 243 OFFCURVE",
"401 349 CURVE",
"307 345 LINE",
"428 116 LINE SMOOTH",
"436 100 OFFCURVE",
"466 39 OFFCURVE",
"484 0 CURVE"
);
},
{
closed = 1;
nodes = (
"455 303 OFFCURVE",
"564 377 OFFCURVE",
"564 508 CURVE SMOOTH",
"564 642 OFFCURVE",
"481 710 OFFCURVE",
"344 710 CURVE SMOOTH",
"289 710 OFFCURVE",
"233 705 OFFCURVE",
"178 705 CURVE",
"178 652 LINE",
"221 658 OFFCURVE",
"266 662 OFFCURVE",
"303 662 CURVE SMOOTH",
"407 662 OFFCURVE",
"475 609 OFFCURVE",
"475 508 CURVE SMOOTH",
"475 402 OFFCURVE",
"407 350 OFFCURVE",
"303 350 CURVE SMOOTH",
"256 350 OFFCURVE",
"210 358 OFFCURVE",
"163 364 CURVE",
"163 307 LINE",
"216 304 OFFCURVE",
"270 303 OFFCURVE",
"323 303 CURVE SMOOTH"
);
}
);
width = 692.5;
}
);
leftKerningGroup = UC_Stem;
rightKerningGroup = UC_R;
unicode = 0052;
},
{
color = 6;
glyphname = S;
layers = (
{
anchors = (
{
name = bottom;
position = "{299, 0}";
},
{
name = top;
position = "{315, 720}";
}
);
layerId = "16643525-C5DD-48EC-8E99-463BF28F5E85";
paths = (
{
closed = 1;
nodes = (
"441 -15 OFFCURVE",
"552 63 OFFCURVE",
"552 199 CURVE SMOOTH",
"552 428 OFFCURVE",
"227 408 OFFCURVE",
"227 548 CURVE SMOOTH",
"227 604 OFFCURVE",
"270 637 OFFCURVE",
"331 637 CURVE SMOOTH",
"384 637 OFFCURVE",
"441 609 OFFCURVE",
"481 589 CURVE",
"406 659 LINE",
"419 624 OFFCURVE",
"436 574 OFFCURVE",
"436 564 CURVE SMOOTH",
"438 507 LINE",
"511 503 LINE",
"525 685 LINE",
"456 705 OFFCURVE",
"375 720 OFFCURVE",
"309 720 CURVE SMOOTH",
"176 720 OFFCURVE",
"79 646 OFFCURVE",
"79 525 CURVE SMOOTH",
"79 292 OFFCURVE",
"402 318 OFFCURVE",
"402 167 CURVE SMOOTH",
"402 104 OFFCURVE",
"354 73 OFFCURVE",
"291 73 CURVE SMOOTH",
"225 73 OFFCURVE",
"172 102 OFFCURVE",
"129 122 CURVE",
"198 50 LINE",
"196 58 OFFCURVE",
"165 135 OFFCURVE",
"165 148 CURVE SMOOTH",
"164 212 LINE",
"85 218 LINE",
"70 34 LINE",
"111 13 OFFCURVE",
"201 -15 OFFCURVE",
"300 -15 CURVE SMOOTH"
);
}
);
width = 616;
},
{
anchors = (
{
name = bottom;
position = "{280, 0}";
},
{
name = top;
position = "{310, 720}";
}
);
layerId = "4E6502B1-B066-4D3E-9BD1-B1D9901B4F4F";
paths = (
{
closed = 1;
nodes = (
"420 -15 OFFCURVE",
"527 48 OFFCURVE",
"527 180 CURVE SMOOTH",
"527 407 OFFCURVE",
"179 396 OFFCURVE",
"179 555 CURVE SMOOTH",
"179 630 OFFCURVE",
"232 668 OFFCURVE",
"294 668 CURVE SMOOTH",
"348 668 OFFCURVE",
"381 664 OFFCURVE",
"438 634 CURVE",
"410 671 LINE",
"417 645 OFFCURVE",
"428 603 OFFCURVE",
"428 589 CURVE SMOOTH",
"428 547 LINE",
"486 540 LINE",
"500 688 LINE",
"436 704 OFFCURVE",
"364 720 OFFCURVE",
"299 720 CURVE SMOOTH",
"176 720 OFFCURVE",
"83 656 OFFCURVE",
"83 536 CURVE SMOOTH",
"83 322 OFFCURVE",
"426 336 OFFCURVE",
"426 170 CURVE SMOOTH",
"426 88 OFFCURVE",
"374 42 OFFCURVE",
"292 42 CURVE SMOOTH",
"235 42 OFFCURVE",
"181 59 OFFCURVE",
"146 76 CURVE",
"164 53 LINE",
"159 69 OFFCURVE",
"150 123 OFFCURVE",
"150 137 CURVE SMOOTH",
"150 183 LINE",
"85 189 LINE",
"70 38 LINE",
"107 15 OFFCURVE",
"191 -15 OFFCURVE",
"289 -15 CURVE SMOOTH"
);
}
);
width = 594;
}
);
leftKerningGroup = UC_S;
rightKerningGroup = UC_S;
unicode = 0053;
},
{
color = 6;
glyphname = Saltillo;
layers = (
{
layerId = "16643525-C5DD-48EC-8E99-463BF28F5E85";
paths = (
{
closed = 1;
nodes = (
"202 688 LINE",
"184 705 LINE",
"67 705 LINE",
"75 643 OFFCURVE",
"89 503 OFFCURVE",
"89 493 CURVE SMOOTH",
"81 301 LINE",
"170 296 LINE"
);
}
);
userData = {
RMXScaler = {
verticalShift = 50;
weight = 10;
};
};
width = 267;
},
{
layerId = "4E6502B1-B066-4D3E-9BD1-B1D9901B4F4F";
paths = (
{
closed = 1;
nodes = (
"173 688 LINE",
"155 705 LINE",
"73 705 LINE",
"79 640 OFFCURVE",
"96 503 OFFCURVE",
"95 494 CURVE SMOOTH",
"83 312 LINE",
"141 307 LINE"
);
}
);
userData = {
RMXScaler = {
verticalShift = 50;
weight = 5;
};
};
width = 242.8;
}
);
leftKerningGroup = saltillo;
rightKerningGroup = saltillo;
unicode = A78B;
userData = {
RMXScaler = {
source = saltillo;
};
};
},
{
color = 6;
glyphname = Germandbls;
layers = (
{
layerId = "16643525-C5DD-48EC-8E99-463BF28F5E85";
paths = (
{
closed = 1;
nodes = (
"98 -3 OFFCURVE",
"173 0 OFFCURVE",
"194 0 CURVE",
"247 0 LINE",
"267 19 LINE",
"265 50 OFFCURVE",
"260 149 OFFCURVE",
"260 187 CURVE SMOOTH",
"260 465 LINE SMOOTH",
"260 589 OFFCURVE",
"323 637 OFFCURVE",
"403 637 CURVE SMOOTH",
"451 637 OFFCURVE",
"498 623 OFFCURVE",
"542 606 CURVE",
"531 669 LINE",
"377 353 LINE",
"478 317 LINE",
"652 660 LINE",
"633 701 LINE",
"557 711 OFFCURVE",
"487 720 OFFCURVE",
"414 720 CURVE SMOOTH",
"223 720 OFFCURVE",
"120 648 OFFCURVE",
"120 465 CURVE SMOOTH",
"120 157 LINE SMOOTH",
"120 131 OFFCURVE",
"111 63 OFFCURVE",
"108 45 CURVE",
"167 83 LINE",
"42 60 LINE",
"47 -5 LINE"
);
},
{
closed = 1;
nodes = (
"669 -14 OFFCURVE",
"760 69 OFFCURVE",
"760 198 CURVE SMOOTH",
"760 285 OFFCURVE",
"707 347 OFFCURVE",
"608 403 CURVE SMOOTH",
"485 473 LINE",
"377 353 LINE",
"519 279 LINE SMOOTH",
"585 245 OFFCURVE",
"610 205 OFFCURVE",
"610 166 CURVE SMOOTH",
"610 112 OFFCURVE",
"579 74 OFFCURVE",
"520 74 CURVE SMOOTH",
"462 74 OFFCURVE",
"422 109 OFFCURVE",
"409 121 CURVE",
"452 71 LINE",
"438 97 OFFCURVE",
"433 141 OFFCURVE",
"433 152 CURVE",
"433 212 LINE",
"353 218 LINE",
"338 34 LINE",
"364 21 OFFCURVE",
"442 -14 OFFCURVE",
"535 -14 CURVE SMOOTH"
);
}
);
width = 812;
},
{
layerId = "4E6502B1-B066-4D3E-9BD1-B1D9901B4F4F";
paths = (
{
closed = 1;
nodes = (
"98 -3 OFFCURVE",
"169 0 OFFCURVE",
"190 0 CURVE",
"212 0 LINE",
"230 17 LINE",
"228 60 OFFCURVE",
"226 129 OFFCURVE",
"226 165 CURVE SMOOTH",
"226 465 LINE SMOOTH",
"226 607 OFFCURVE",
"299 662 OFFCURVE",
"394 662 CURVE SMOOTH",
"446 662 OFFCURVE",
"491 656 OFFCURVE",
"544 640 CURVE",
"542 673 LINE",
"343 385 LINE",
"414 373 LINE",
"622 668 LINE",
"612 698 LINE",
"539 712 OFFCURVE",
"477 720 OFFCURVE",
"410 720 CURVE SMOOTH",
"259 720 OFFCURVE",
"135 667 OFFCURVE",
"135 465 CURVE SMOOTH",
"135 135 LINE SMOOTH",
"135 113 OFFCURVE",
"124 43 OFFCURVE",
"121 22 CURVE",
"160 67 LINE",
"46 44 LINE",
"51 -5 LINE"
);
},
{
closed = 1;
nodes = (
"625 -10 OFFCURVE",
"713 64 OFFCURVE",
"713 176 CURVE SMOOTH",
"713 260 OFFCURVE",
"682 321 OFFCURVE",
"550 389 CURVE SMOOTH",
"436 448 LINE",
"343 385 LINE",
"475 320 LINE SMOOTH",
"591 263 OFFCURVE",
"612 216 OFFCURVE",
"612 166 CURVE SMOOTH",
"612 93 OFFCURVE",
"566 48 OFFCURVE",
"496 48 CURVE SMOOTH",
"451 48 OFFCURVE",
"406 66 OFFCURVE",
"391 80 CURVE",
"404 52 LINE",
"402 70 OFFCURVE",
"396 119 OFFCURVE",
"396 137 CURVE",
"396 183 LINE",
"331 189 LINE",
"316 38 LINE",
"373 7 OFFCURVE",
"426 -10 OFFCURVE",
"493 -10 CURVE SMOOTH"
);
}
);
width = 770.2;
}
);
leftKerningGroup = UC_Sterm;
rightKerningGroup = UC_S;
unicode = 1E9E;
},
{
color = 6;
glyphname = Schwa;
layers = (
{
layerId = "16643525-C5DD-48EC-8E99-463BF28F5E85";
paths = (
{
closed = 1;
nodes = (
"585 -15 OFFCURVE",
"713 131 OFFCURVE",
"713 352 CURVE SMOOTH",
"713 606 OFFCURVE",
"541 713 OFFCURVE",
"339 713 CURVE SMOOTH",
"255 713 OFFCURVE",
"158 695 OFFCURVE",
"79 661 CURVE",
"110 594 LINE",
"176 609 OFFCURVE",
"252 622 OFFCURVE",
"312 622 CURVE SMOOTH",
"442 622 OFFCURVE",
"533 564 OFFCURVE",
"533 352 CURVE SMOOTH",
"533 170 OFFCURVE",
"485 82 OFFCURVE",
"386 82 CURVE SMOOTH",
"294 82 OFFCURVE",
"239 155 OFFCURVE",
"239 306 CURVE SMOOTH",
"239 319 OFFCURVE",
"239 349 OFFCURVE",
"239 388 CURVE",
"176 319 LINE",
"552 319 LINE",
"552 396 LINE",
"97 415 LINE",
"59 376 LINE",
"59 368 OFFCURVE",
"59 336 OFFCURVE",
"59 329 CURVE SMOOTH",
"59 121 OFFCURVE",
"194 -15 OFFCURVE",
"386 -15 CURVE SMOOTH"
);
}
);
width = 777;
},
{
layerId = "4E6502B1-B066-4D3E-9BD1-B1D9901B4F4F";
paths = (
{
closed = 1;
nodes = (
"544 -15 OFFCURVE",
"647 135 OFFCURVE",
"647 352 CURVE SMOOTH",
"647 598 OFFCURVE",
"504 710 OFFCURVE",
"315 710 CURVE SMOOTH",
"234 710 OFFCURVE",
"157 694 OFFCURVE",
"88 663 CURVE",
"117 612 LINE",
"177 635 OFFCURVE",
"243 648 OFFCURVE",
"296 648 CURVE SMOOTH",
"440 648 OFFCURVE",
"547 555 OFFCURVE",
"547 352 CURVE SMOOTH",
"547 185 OFFCURVE",
"480 45 OFFCURVE",
"341 45 CURVE SMOOTH",
"213 45 OFFCURVE",
"165 186 OFFCURVE",
"165 308 CURVE SMOOTH",
"165 319 OFFCURVE",
"165 349 OFFCURVE",
"165 363 CURVE",
"132 320 LINE",
"565 328 LINE",
"565 384 LINE",
"90 399 LINE",
"66 367 LINE",
"66 348 OFFCURVE",
"66 332 OFFCURVE",
"66 314 CURVE SMOOTH",
"66 136 OFFCURVE",
"162 -15 OFFCURVE",
"341 -15 CURVE SMOOTH"
);
}
);
width = 718.7;
}
);
leftKerningGroup = UC_Schwa;
rightKerningGroup = UC_Round;
unicode = 018F;
},
{
color = 6;
glyphname = T;
layers = (
{
anchors = (
{
name = bottom;
position = "{354, 0}";
},
{
name = center;
position = "{352, 353}";
},
{
name = top;
position = "{353, 720}";
}
);
layerId = "16643525-C5DD-48EC-8E99-463BF28F5E85";
paths = (
{
closed = 1;
nodes = (
"248 -3 OFFCURVE",
"332 0 OFFCURVE",
"357 0 CURVE SMOOTH",
"515 0 LINE",
"520 67 LINE",
"375 78 LINE",
"438 25 LINE",
"432 55 OFFCURVE",
"423 133 OFFCURVE",
"423 187 CURVE SMOOTH",
"423 519 LINE SMOOTH",
"423 575 OFFCURVE",
"431 629 OFFCURVE",
"438 669 CURVE",
"268 667 LINE",
"275 635 OFFCURVE",
"284 576 OFFCURVE",
"284 549 CURVE SMOOTH",
"284 157 LINE SMOOTH",
"284 129 OFFCURVE",
"273 58 OFFCURVE",
"268 25 CURVE",
"330 83 LINE",
"188 60 LINE",
"193 -5 LINE"
);
},
{
closed = 1;
nodes = (
"122 530 OFFCURVE",
"128 573 OFFCURVE",
"132 589 CURVE",
"160 679 LINE",
"105 623 LINE",
"116 624 OFFCURVE",
"176 630 OFFCURVE",
"224 630 CURVE SMOOTH",
"486 630 LINE SMOOTH",
"535 630 OFFCURVE",
"586 625 OFFCURVE",
"606 623 CURVE",
"543 678 LINE",
"577 589 LINE",
"579 574 OFFCURVE",
"585 530 OFFCURVE",
"587 511 CURVE",
"654 516 LINE",
"646 692 LINE",
"627 710 LINE",
"598 708 OFFCURVE",
"529 705 OFFCURVE",
"512 705 CURVE SMOOTH",
"194 705 LINE SMOOTH",
"176 705 OFFCURVE",
"118 708 OFFCURVE",
"80 710 CURVE",
"60 692 LINE",
"53 516 LINE",
"120 511 LINE"
);
}
);
width = 707;
},
{
anchors = (
{
name = bottom;
position = "{349, 0}";
},
{
name = center;
position = "{341, 353}";
},
{
name = top;
position = "{344, 720}";
}
);
layerId = "4E6502B1-B066-4D3E-9BD1-B1D9901B4F4F";
paths = (
{
closed = 1;
nodes = (
"255 -3 OFFCURVE",
"327 0 OFFCURVE",
"350 0 CURVE SMOOTH",
"488 0 LINE",
"495 53 LINE",
"360 63 LINE",
"398 28 LINE",
"394 54 OFFCURVE",
"387 113 OFFCURVE",
"387 165 CURVE SMOOTH",
"387 540 LINE SMOOTH",
"387 592 OFFCURVE",
"395 661 OFFCURVE",
"397 678 CURVE",
"287 678 LINE",
"290 658 OFFCURVE",
"301 591 OFFCURVE",
"301 570 CURVE SMOOTH",
"301 135 LINE SMOOTH",
"301 114 OFFCURVE",
"290 45 OFFCURVE",
"287 28 CURVE",
"326 67 LINE",
"202 44 LINE",
"207 -5 LINE"
);
},
{
closed = 1;
nodes = (
"117 551 OFFCURVE",
"124 594 OFFCURVE",
"128 609 CURVE",
"162 677 LINE",
"120 645 LINE",
"141 646 OFFCURVE",
"193 651 OFFCURVE",
"227 651 CURVE SMOOTH",
"460 651 LINE SMOOTH",
"494 651 OFFCURVE",
"546 647 OFFCURVE",
"566 645 CURVE",
"525 677 LINE",
"559 609 LINE",
"564 594 OFFCURVE",
"571 551 OFFCURVE",
"573 524 CURVE",
"630 529 LINE",
"623 692 LINE",
"604 710 LINE",
"565 708 OFFCURVE",
"508 705 OFFCURVE",
"490 705 CURVE SMOOTH",
"197 705 LINE SMOOTH",
"179 705 OFFCURVE",
"121 708 OFFCURVE",
"83 710 CURVE",
"64 692 LINE",
"57 529 LINE",
"115 524 LINE"
);
}
);
width = 687.2;
}
);
leftKerningGroup = UC_T;
rightKerningGroup = UC_T;
unicode = 0054;
},
{
color = 6;
glyphname = U;
layers = (
{
anchors = (
{
name = bottom;
position = "{401, 0}";
},
{
name = horn;
position = "{652, 460}";
},
{
name = ogonek;
position = "{508, 0}";
},
{
name = top;
position = "{409, 720}";
}
);
layerId = "16643525-C5DD-48EC-8E99-463BF28F5E85";
paths = (
{
closed = 1;
nodes = (
"585 -15 OFFCURVE",
"682 97 OFFCURVE",
"682 268 CURVE SMOOTH",
"682 517 LINE SMOOTH",
"682 568 OFFCURVE",
"690 636 OFFCURVE",
"698 678 CURVE",
"635 623 LINE",
"760 635 LINE",
"755 710 LINE",
"717 708 OFFCURVE",
"670 705 OFFCURVE",
"602 705 CURVE SMOOTH",
"577 705 OFFCURVE",
"526 708 OFFCURVE",
"493 710 CURVE",
"488 640 LINE",
"612 619 LINE",
"549 678 LINE",
"554 643 OFFCURVE",
"565 575 OFFCURVE",
"565 547 CURVE SMOOTH",
"565 262 LINE SMOOTH",
"565 155 OFFCURVE",
"523 87 OFFCURVE",
"415 87 CURVE SMOOTH",
"315 87 OFFCURVE",
"263 163 OFFCURVE",
"263 262 CURVE SMOOTH",
"263 517 LINE SMOOTH",
"263 567 OFFCURVE",
"268 627 OFFCURVE",
"276 678 CURVE",
"214 623 LINE",
"340 635 LINE",
"335 710 LINE",
"312 709 OFFCURVE",
"242 705 OFFCURVE",
"167 705 CURVE SMOOTH",
"140 705 OFFCURVE",
"84 708 OFFCURVE",
"48 710 CURVE",
"43 640 LINE",
"166 619 LINE",
"105 678 LINE",
"108 654 OFFCURVE",
"119 577 OFFCURVE",
"119 547 CURVE SMOOTH",
"119 268 LINE SMOOTH",
"119 97 OFFCURVE",
"214 -15 OFFCURVE",
"400 -15 CURVE SMOOTH"
);
}
);
width = 803;
},
{
anchors = (
{
name = bottom;
position = "{399, 0}";
},
{
name = horn;
position = "{618, 460}";
},
{
name = ogonek;
position = "{489, 0}";
},
{
name = top;
position = "{393, 720}";
}
);
layerId = "4E6502B1-B066-4D3E-9BD1-B1D9901B4F4F";
paths = (
{
closed = 1;
nodes = (
"561 -15 OFFCURVE",
"648 95 OFFCURVE",
"648 266 CURVE SMOOTH",
"648 535 LINE SMOOTH",
"648 587 OFFCURVE",
"656 659 OFFCURVE",
"658 682 CURVE",
"621 643 LINE",
"735 653 LINE",
"731 710 LINE",
"694 708 OFFCURVE",
"643 705 OFFCURVE",
"601 705 CURVE SMOOTH",
"581 705 OFFCURVE",
"533 708 OFFCURVE",
"496 710 CURVE",
"491 658 LINE",
"608 640 LINE",
"564 682 LINE",
"567 669 OFFCURVE",
"580 586 OFFCURVE",
"580 565 CURVE SMOOTH",
"580 266 LINE SMOOTH",
"580 139 OFFCURVE",
"521 45 OFFCURVE",
"400 45 CURVE SMOOTH",
"283 45 OFFCURVE",
"226 137 OFFCURVE",
"226 266 CURVE SMOOTH",
"226 535 LINE SMOOTH",
"226 587 OFFCURVE",
"234 660 OFFCURVE",
"236 682 CURVE",
"199 643 LINE",
"313 653 LINE",
"309 710 LINE",
"277 708 OFFCURVE",
"202 705 OFFCURVE",
"166 705 CURVE SMOOTH",
"147 705 OFFCURVE",
"88 708 OFFCURVE",
"51 710 CURVE",
"46 658 LINE",
"161 641 LINE",
"120 682 LINE",
"125 655 OFFCURVE",
"136 586 OFFCURVE",
"136 565 CURVE SMOOTH",
"136 266 LINE SMOOTH",
"136 95 OFFCURVE",
"222 -15 OFFCURVE",
"391 -15 CURVE SMOOTH"
);
}
);
width = 782.1;
}
);
leftKerningGroup = UC_U;
rightKerningGroup = UC_U;
unicode = 0055;
},
{
color = 6;
glyphname = V;
layers = (
{
anchors = (
{
name = bottom;
position = "{379, 0}";
},
{
name = top;
position = "{379, 720}";
}
);
layerId = "16643525-C5DD-48EC-8E99-463BF28F5E85";
paths = (
{
closed = 1;
nodes = (
"430 0 LINE",
"619 520 LINE SMOOTH",
"636 566 OFFCURVE",
"676 638 OFFCURVE",
"690 660 CURVE",
"615 624 LINE",
"715 635 LINE",
"710 710 LINE",
"665 707 OFFCURVE",
"609 705 OFFCURVE",
"574 705 CURVE SMOOTH",
"548 705 OFFCURVE",
"494 708 OFFCURVE",
"459 710 CURVE",
"454 640 LINE",
"578 619 LINE",
"538 658 LINE",
"536 636 OFFCURVE",
"522 575 OFFCURVE",
"514 551 CURVE SMOOTH",
"375 139 LINE",
"411 139 LINE",
"284 517 LINE SMOOTH",
"273 550 OFFCURVE",
"251 634 OFFCURVE",
"249 664 CURVE",
"199 623 LINE",
"342 635 LINE",
"337 710 LINE",
"277 707 OFFCURVE",
"207 705 OFFCURVE",
"157 705 CURVE SMOOTH",
"132 705 OFFCURVE",
"81 707 OFFCURVE",
"48 710 CURVE",
"43 640 LINE",
"145 615 LINE",
"73 656 LINE",
"85 639 OFFCURVE",
"112 587 OFFCURVE",
"126 550 CURVE SMOOTH",
"329 0 LINE"
);
}
);
width = 758;
},
{
anchors = (
{
name = bottom;
position = "{388, 0}";
},
{
name = top;
position = "{388, 720}";
}
);
layerId = "4E6502B1-B066-4D3E-9BD1-B1D9901B4F4F";
paths = (
{
closed = 1;
nodes = (
"431 0 LINE",
"621 548 LINE SMOOTH",
"644 612 OFFCURVE",
"671 652 OFFCURVE",
"682 671 CURVE",
"633 642 LINE",
"727 653 LINE",
"723 710 LINE",
"675 707 OFFCURVE",
"628 705 OFFCURVE",
"578 705 CURVE SMOOTH",
"565 705 OFFCURVE",
"531 707 OFFCURVE",
"491 710 CURVE",
"486 658 LINE",
"601 638 LINE",
"574 677 LINE",
"573 656 OFFCURVE",
"572 608 OFFCURVE",
"562 581 CURVE SMOOTH",
"399 112 LINE",
"423 112 LINE",
"260 535 LINE SMOOTH",
"240 585 OFFCURVE",
"228 645 OFFCURVE",
"225 671 CURVE",
"196 637 LINE",
"308 653 LINE",
"304 710 LINE",
"258 707 OFFCURVE",
"214 705 OFFCURVE",
"167 705 CURVE SMOOTH",
"147 705 OFFCURVE",
"89 708 OFFCURVE",
"51 710 CURVE",
"46 658 LINE",
"148 635 LINE",
"99 667 LINE",
"108 652 OFFCURVE",
"140 604 OFFCURVE",
"158 557 CURVE SMOOTH",
"374 0 LINE"
);
}
);
width = 774.5;
}
);
leftKerningGroup = UC_V;
rightKerningGroup = UC_V;
unicode = 0056;
},
{
color = 6;
glyphname = W;
layers = (
{
anchors = (
{
name = bottom;
position = "{539, 0}";
},
{
name = top;
position = "{539, 705}";
}
);
layerId = "16643525-C5DD-48EC-8E99-463BF28F5E85";
paths = (
{
closed = 1;
nodes = (
"399 0 LINE",
"554 498 LINE",
"521 498 LINE",
"675 0 LINE",
"777 0 LINE",
"940 520 LINE SMOOTH",
"954 565 OFFCURVE",
"992 639 OFFCURVE",
"1013 665 CURVE",
"933 624 LINE",
"1034 635 LINE",
"1030 710 LINE",
"994 708 OFFCURVE",
"929 705 OFFCURVE",
"893 705 CURVE SMOOTH",
"869 705 OFFCURVE",
"820 708 OFFCURVE",
"788 710 CURVE",
"783 640 LINE",
"907 619 LINE",
"856 669 LINE",
"858 644 OFFCURVE",
"843 575 OFFCURVE",
"837 552 CURVE SMOOTH",
"725 138 LINE",
"755 138 LINE",
"599 678 LINE",
"501 678 LINE",
"347 138 LINE",
"376 138 LINE",
"277 517 LINE SMOOTH",
"266 559 OFFCURVE",
"251 636 OFFCURVE",
"249 667 CURVE",
"199 623 LINE",
"332 635 LINE",
"327 710 LINE",
"281 708 OFFCURVE",
"204 705 OFFCURVE",
"158 705 CURVE SMOOTH",
"133 705 OFFCURVE",
"81 708 OFFCURVE",
"48 710 CURVE",
"43 640 LINE",
"143 616 LINE",
"69 670 LINE",
"106 591 OFFCURVE",
"113 572 OFFCURVE",
"122 546 CURVE SMOOTH",
"297 0 LINE"
);
}
);
width = 1077;
},
{
anchors = (
{
name = bottom;
position = "{552, 0}";
},
{
name = top;
position = "{552, 705}";
}
);
layerId = "4E6502B1-B066-4D3E-9BD1-B1D9901B4F4F";
paths = (
{
closed = 1;
nodes = (
"396 0 LINE",
"558 545 LINE",
"539 545 LINE",
"719 0 LINE",
"776 0 LINE",
"940 548 LINE",
"955 596 OFFCURVE",
"987 647 OFFCURVE",
"1003 675 CURVE",
"952 642 LINE",
"1057 653 LINE",
"1053 710 LINE",
"1016 708 OFFCURVE",
"960 705 OFFCURVE",
"908 705 CURVE SMOOTH",
"889 705 OFFCURVE",
"857 707 OFFCURVE",
"820 710 CURVE",
"815 658 LINE",
"926 636 LINE",
"893 667 LINE",
"893 653 OFFCURVE",
"891 618 OFFCURVE",
"881 581 CURVE",
"746 111 LINE",
"766 111 LINE",
"584 686 LINE",
"535 686 LINE",
"366 111 LINE",
"385 111 LINE",
"257 535 LINE",
"239 598 OFFCURVE",
"230 635 OFFCURVE",
"227 665 CURVE",
"196 637 LINE",
"309 653 LINE",
"305 710 LINE",
"268 708 OFFCURVE",
"214 705 OFFCURVE",
"167 705 CURVE SMOOTH",
"147 705 OFFCURVE",
"89 708 OFFCURVE",
"51 710 CURVE",
"46 658 LINE",
"149 635 LINE",
"98 669 LINE",
"106 658 OFFCURVE",
"136 613 OFFCURVE",
"155 557 CURVE",
"339 0 LINE"
);
}
);
width = 1104.5;
}
);
leftKerningGroup = UC_V;
rightKerningGroup = UC_V;
unicode = 0057;
},
{
color = 6;
glyphname = X;
layers = (
{
anchors = (
{
name = bottom;
position = "{398, 0}";
},
{
name = top;
position = "{398, 705}";
}
);
layerId = "16643525-C5DD-48EC-8E99-463BF28F5E85";
paths = (
{
closed = 1;
nodes = (
"104 -3 OFFCURVE",
"171 0 OFFCURVE",
"198 0 CURVE SMOOTH",
"301 0 LINE",
"306 67 LINE",
"197 80 LINE",
"239 41 LINE",
"248 65 OFFCURVE",
"273 112 OFFCURVE",
"285 132 CURVE SMOOTH",
"406 312 LINE",
"343 312 LINE",
"462 142 LINE SMOOTH",
"479 118 OFFCURVE",
"507 60 OFFCURVE",
"516 41 CURVE",
"558 80 LINE",
"457 60 LINE",
"462 -5 LINE",
"520 -3 OFFCURVE",
"598 0 OFFCURVE",
"636 0 CURVE SMOOTH",
"740 0 LINE",
"745 67 LINE",
"633 84 LINE",
"716 45 LINE",
"681 78 OFFCURVE",
"655 108 OFFCURVE",
"637 132 CURVE SMOOTH",
"432 421 LINE",
"434 328 LINE",
"591 568 LINE SMOOTH",
"601 583 OFFCURVE",
"653 628 OFFCURVE",
"684 654 CURVE",
"599 623 LINE",
"721 635 LINE",
"716 710 LINE",
"667 708 OFFCURVE",
"607 705 OFFCURVE",
"568 705 CURVE SMOOTH",
"544 705 OFFCURVE",
"501 708 OFFCURVE",
"467 710 CURVE",
"462 640 LINE",
"565 619 LINE",
"529 673 LINE",
"512 634 OFFCURVE",
"494 599 OFFCURVE",
"482 578 CURVE SMOOTH",
"377 410 LINE",
"438 410 LINE",
"340 555 LINE SMOOTH",
"322 581 OFFCURVE",
"293 637 OFFCURVE",
"290 656 CURVE",
"243 623 LINE",
"352 635 LINE",
"347 710 LINE",
"292 708 OFFCURVE",
"228 705 OFFCURVE",
"183 705 CURVE SMOOTH",
"153 705 OFFCURVE",
"104 708 OFFCURVE",
"64 710 CURVE",
"59 640 LINE",
"172 619 LINE",
"91 655 LINE",
"110 632 OFFCURVE",
"152 584 OFFCURVE",
"170 558 CURVE SMOOTH",
"351 300 LINE",
"351 393 LINE",
"192 164 LINE SMOOTH",
"172 135 OFFCURVE",
"107 71 OFFCURVE",
"89 52 CURVE",
"163 81 LINE",
"52 60 LINE",
"57 -5 LINE"
);
}
);
width = 795;
},
{
anchors = (
{
name = bottom;
position = "{398, 0}";
},
{
name = top;
position = "{398, 705}";
}
);
layerId = "4E6502B1-B066-4D3E-9BD1-B1D9901B4F4F";
paths = (
{
closed = 1;
nodes = (
"105 -3 OFFCURVE",
"174 0 OFFCURVE",
"202 0 CURVE SMOOTH",
"298 0 LINE",
"303 53 LINE",
"194 68 LINE",
"219 45 LINE",
"230 67 OFFCURVE",
"249 112 OFFCURVE",
"263 132 CURVE SMOOTH",
"398 333 LINE",
"360 333 LINE",
"495 142 LINE SMOOTH",
"513 117 OFFCURVE",
"538 70 OFFCURVE",
"548 43 CURVE",
"573 71 LINE",
"472 42 LINE",
"476 -5 LINE",
"527 -3 OFFCURVE",
"597 0 OFFCURVE",
"627 0 CURVE SMOOTH",
"739 0 LINE",
"744 53 LINE",
"632 68 LINE",
"680 49 LINE",
"660 68 OFFCURVE",
"615 116 OFFCURVE",
"604 132 CURVE SMOOTH",
"416 396 LINE",
"416 338 LINE",
"565 569 LINE SMOOTH",
"575 585 OFFCURVE",
"652 651 OFFCURVE",
"672 667 CURVE",
"612 642 LINE",
"716 653 LINE",
"712 710 LINE",
"660 708 OFFCURVE",
"598 705 OFFCURVE",
"557 705 CURVE SMOOTH",
"537 705 OFFCURVE",
"490 708 OFFCURVE",
"457 710 CURVE",
"452 658 LINE",
"565 636 LINE",
"540 661 LINE",
"529 638 OFFCURVE",
"509 598 OFFCURVE",
"497 578 CURVE SMOOTH",
"380 389 LINE",
"418 390 LINE",
"300 555 LINE SMOOTH",
"284 579 OFFCURVE",
"261 640 OFFCURVE",
"254 655 CURVE",
"225 637 LINE",
"341 653 LINE",
"337 710 LINE",
"288 708 OFFCURVE",
"229 705 OFFCURVE",
"190 705 CURVE SMOOTH",
"171 705 OFFCURVE",
"112 708 OFFCURVE",
"75 710 CURVE",
"70 658 LINE",
"171 634 LINE",
"130 653 LINE",
"140 640 OFFCURVE",
"183 583 OFFCURVE",
"200 558 CURVE SMOOTH",
"363 328 LINE",
"363 384 LINE",
"212 164 LINE SMOOTH",
"192 135 OFFCURVE",
"119 63 OFFCURVE",
"108 51 CURVE",
"150 69 LINE",
"53 42 LINE",
"57 -5 LINE"
);
}
);
width = 796.1;
}
);
leftKerningGroup = UC_X;
rightKerningGroup = UC_K;
unicode = 0058;
},
{
color = 6;
glyphname = Y;
layers = (
{
anchors = (
{
name = bottom;
position = "{383, 0}";
},
{
name = top;
position = "{390, 720}";
}
);
layerId = "16643525-C5DD-48EC-8E99-463BF28F5E85";
paths = (
{
closed = 1;
nodes = (
"440 218 LINE",
"610 544 LINE SMOOTH",
"636 594 OFFCURVE",
"678 635 OFFCURVE",
"695 651 CURVE",
"610 623 LINE",
"728 635 LINE",
"723 710 LINE",
"675 708 OFFCURVE",
"617 705 OFFCURVE",
"579 705 CURVE SMOOTH",
"555 705 OFFCURVE",
"512 708 OFFCURVE",
"478 710 CURVE",
"473 640 LINE",
"576 619 LINE",
"537 671 LINE",
"533 642 OFFCURVE",
"525 608 OFFCURVE",
"515 587 CURVE SMOOTH",
"379 313 LINE",
"429 313 LINE",
"300 565 LINE SMOOTH",
"283 599 OFFCURVE",
"275 630 OFFCURVE",
"272 660 CURVE",
"227 623 LINE",
"336 635 LINE",
"331 710 LINE",
"276 708 OFFCURVE",
"212 705 OFFCURVE",
"167 705 CURVE SMOOTH",
"137 705 OFFCURVE",
"88 708 OFFCURVE",
"48 710 CURVE",
"43 640 LINE",
"156 619 LINE",
"92 652 LINE",
"108 631 OFFCURVE",
"132 603 OFFCURVE",
"149 572 CURVE SMOOTH",
"339 218 LINE"
);
},
{
closed = 1;
nodes = (
"298 -3 OFFCURVE",
"373 0 OFFCURVE",
"394 0 CURVE",
"534 0 LINE",
"540 67 LINE",
"412 78 LINE",
"475 25 LINE",
"469 55 OFFCURVE",
"460 133 OFFCURVE",
"460 187 CURVE SMOOTH",
"460 308 LINE",
"321 308 LINE",
"321 157 LINE SMOOTH",
"321 129 OFFCURVE",
"310 58 OFFCURVE",
"305 25 CURVE",
"367 83 LINE",
"243 60 LINE",
"248 -5 LINE"
);
}
);
width = 771;
},
{
anchors = (
{
name = bottom;
position = "{361, 0}";
},
{
name = top;
position = "{370, 720}";
}
);
layerId = "4E6502B1-B066-4D3E-9BD1-B1D9901B4F4F";
paths = (
{
closed = 1;
nodes = (
"391 238 LINE",
"548 545 LINE SMOOTH",
"582 609 OFFCURVE",
"618 655 OFFCURVE",
"630 669 CURVE",
"578 642 LINE",
"682 653 LINE",
"678 710 LINE",
"661 709 OFFCURVE",
"596 705 OFFCURVE",
"534 705 CURVE SMOOTH",
"514 705 OFFCURVE",
"476 708 OFFCURVE",
"445 710 CURVE",
"440 658 LINE",
"552 636 LINE",
"533 675 LINE",
"530 667 OFFCURVE",
"504 609 OFFCURVE",
"489 577 CURVE SMOOTH",
"358 311 LINE",
"389 312 LINE",
"273 530 LINE SMOOTH",
"231 605 OFFCURVE",
"221 655 OFFCURVE",
"221 668 CURVE",
"193 637 LINE",
"309 653 LINE",
"305 710 LINE",
"288 709 OFFCURVE",
"227 705 OFFCURVE",
"166 705 CURVE SMOOTH",
"147 705 OFFCURVE",
"88 708 OFFCURVE",
"51 710 CURVE",
"46 658 LINE",
"147 634 LINE",
"93 669 LINE",
"104 655 OFFCURVE",
"143 607 OFFCURVE",
"170 554 CURVE SMOOTH",
"334 238 LINE"
);
},
{
closed = 1;
nodes = (
"289 -3 OFFCURVE",
"360 0 OFFCURVE",
"373 0 CURVE SMOOTH",
"501 0 LINE",
"508 53 LINE",
"382 63 LINE",
"421 28 LINE",
"416 54 OFFCURVE",
"409 113 OFFCURVE",
"409 165 CURVE SMOOTH",
"409 321 LINE",
"323 321 LINE",
"323 135 LINE SMOOTH",
"323 114 OFFCURVE",
"312 45 OFFCURVE",
"309 28 CURVE",
"348 67 LINE",
"234 44 LINE",
"239 -5 LINE"
);
}
);
width = 729.2;
}
);
leftKerningGroup = UC_V;
rightKerningGroup = UC_V;
unicode = 0059;
},
{
color = 6;
glyphname = Z;
layers = (
{
anchors = (
{
name = bottom;
position = "{332, 0}";
},
{
name = center;
position = "{332, 353}";
},
{
name = top;
position = "{332, 720}";
}
);
layerId = "16643525-C5DD-48EC-8E99-463BF28F5E85";
paths = (
{
closed = 1;
nodes = (
"585 14 LINE",
"600 192 LINE",
"536 197 LINE",
"532 172 OFFCURVE",
"525 147 OFFCURVE",
"522 134 CURVE",
"520 123 OFFCURVE",
"493 72 OFFCURVE",
"478 45 CURVE",
"540 95 LINE",
"519 91 OFFCURVE",
"459 82 OFFCURVE",
"417 82 CURVE SMOOTH",
"192 82 LINE",
"229 45 LINE",
"256 98 OFFCURVE",
"284 157 OFFCURVE",
"315 206 CURVE SMOOTH",
"480 471 LINE SMOOTH",
"508 516 OFFCURVE",
"554 583 OFFCURVE",
"587 631 CURVE",
"578 705 LINE",
"211 705 LINE",
"157 708 OFFCURVE",
"139 711 OFFCURVE",
"96 715 CURVE",
"76 697 LINE",
"69 516 LINE",
"138 511 LINE",
"140 534 OFFCURVE",
"148 572 OFFCURVE",
"152 589 CURVE",
"190 670 LINE",
"130 617 LINE",
"139 617 OFFCURVE",
"205 624 OFFCURVE",
"250 624 CURVE SMOOTH",
"466 624 LINE",
"430 666 LINE",
"409 621 OFFCURVE",
"382 560 OFFCURVE",
"355 517 CURVE SMOOTH",
"177 232 LINE SMOOTH",
"158 201 OFFCURVE",
"102 124 OFFCURVE",
"65 74 CURVE",
"74 0 LINE",
"451 0 LINE",
"479 0 OFFCURVE",
"528 -2 OFFCURVE",
"566 -4 CURVE"
);
}
);
width = 662;
},
{
anchors = (
{
name = bottom;
position = "{316, 0}";
},
{
name = center;
position = "{316, 353}";
},
{
name = top;
position = "{316, 720}";
}
);
layerId = "4E6502B1-B066-4D3E-9BD1-B1D9901B4F4F";
paths = (
{
closed = 1;
nodes = (
"549 14 LINE",
"564 173 LINE",
"510 178 LINE",
"508 163 OFFCURVE",
"499 109 OFFCURVE",
"495 100 CURVE SMOOTH",
"489 89 OFFCURVE",
"464 48 OFFCURVE",
"446 27 CURVE",
"520 72 LINE",
"495 68 OFFCURVE",
"426 57 OFFCURVE",
"386 57 CURVE SMOOTH",
"146 57 LINE",
"162 25 LINE",
"192 80 OFFCURVE",
"239 166 OFFCURVE",
"253 190 CURVE SMOOTH",
"447 496 LINE SMOOTH",
"482 551 OFFCURVE",
"518 598 OFFCURVE",
"555 651 CURVE",
"548 705 LINE",
"221 705 LINE",
"185 707 OFFCURVE",
"145 711 OFFCURVE",
"107 715 CURVE",
"88 697 LINE",
"81 529 LINE",
"138 524 LINE",
"140 551 OFFCURVE",
"147 602 OFFCURVE",
"151 609 CURVE SMOOTH",
"182 674 LINE",
"143 642 LINE",
"161 643 OFFCURVE",
"217 648 OFFCURVE",
"253 648 CURVE SMOOTH",
"473 648 LINE",
"456 679 LINE",
"427 625 OFFCURVE",
"400 571 OFFCURVE",
"367 520 CURVE SMOOTH",
"176 218 LINE SMOOTH",
"154 182 OFFCURVE",
"99 104 OFFCURVE",
"64 55 CURVE",
"71 0 LINE",
"416 0 LINE SMOOTH",
"455 0 OFFCURVE",
"492 -2 OFFCURVE",
"530 -4 CURVE"
);
}
);
width = 629;
}
);
leftKerningGroup = UC_Z;
rightKerningGroup = UC_Z;
unicode = 005A;
},
{
color = 6;
glyphname = Germandbls.alt;
layers = (
{
layerId = "16643525-C5DD-48EC-8E99-463BF28F5E85";
paths = (
{
closed = 1;
nodes = (
"98 -3 OFFCURVE",
"173 0 OFFCURVE",
"194 0 CURVE",
"247 0 LINE",
"267 19 LINE",
"265 50 OFFCURVE",
"260 149 OFFCURVE",
"260 187 CURVE SMOOTH",
"260 465 LINE SMOOTH",
"260 589 OFFCURVE",
"323 637 OFFCURVE",
"403 637 CURVE SMOOTH",
"451 637 OFFCURVE",
"498 623 OFFCURVE",
"542 606 CURVE",
"531 669 LINE",
"377 353 LINE",
"478 317 LINE",
"652 660 LINE",
"633 701 LINE",
"557 711 OFFCURVE",
"487 720 OFFCURVE",
"414 720 CURVE SMOOTH",
"223 720 OFFCURVE",
"120 648 OFFCURVE",
"120 465 CURVE SMOOTH",
"120 157 LINE SMOOTH",
"120 131 OFFCURVE",
"111 63 OFFCURVE",
"108 45 CURVE",
"167 83 LINE",
"42 60 LINE",
"47 -5 LINE"
);
},
{
closed = 1;
nodes = (
"669 -14 OFFCURVE",
"760 69 OFFCURVE",
"760 198 CURVE SMOOTH",
"760 285 OFFCURVE",
"707 347 OFFCURVE",
"608 403 CURVE SMOOTH",
"485 473 LINE",
"377 353 LINE",
"519 279 LINE SMOOTH",
"585 245 OFFCURVE",
"610 205 OFFCURVE",
"610 166 CURVE SMOOTH",
"610 112 OFFCURVE",
"579 74 OFFCURVE",
"520 74 CURVE SMOOTH",
"462 74 OFFCURVE",
"422 109 OFFCURVE",
"409 121 CURVE",
"452 71 LINE",
"438 97 OFFCURVE",
"433 141 OFFCURVE",
"433 152 CURVE",
"433 212 LINE",
"353 218 LINE",
"338 34 LINE",
"364 21 OFFCURVE",
"442 -14 OFFCURVE",
"535 -14 CURVE SMOOTH"
);
}
);
width = 812;
},
{
layerId = "4E6502B1-B066-4D3E-9BD1-B1D9901B4F4F";
paths = (
{
closed = 1;
nodes = (
"98 -3 OFFCURVE",
"169 0 OFFCURVE",
"190 0 CURVE",
"212 0 LINE",
"230 17 LINE",
"228 60 OFFCURVE",
"226 129 OFFCURVE",
"226 165 CURVE SMOOTH",
"226 465 LINE SMOOTH",
"226 607 OFFCURVE",
"299 662 OFFCURVE",
"394 662 CURVE SMOOTH",
"446 662 OFFCURVE",
"491 656 OFFCURVE",
"544 640 CURVE",
"542 673 LINE",
"343 385 LINE",
"414 373 LINE",
"622 668 LINE",
"612 698 LINE",
"539 712 OFFCURVE",
"477 720 OFFCURVE",
"410 720 CURVE SMOOTH",
"259 720 OFFCURVE",
"135 667 OFFCURVE",
"135 465 CURVE SMOOTH",
"135 135 LINE SMOOTH",
"135 113 OFFCURVE",
"124 43 OFFCURVE",
"121 22 CURVE",
"160 67 LINE",
"46 44 LINE",
"51 -5 LINE"
);
},
{
closed = 1;
nodes = (
"625 -10 OFFCURVE",
"713 64 OFFCURVE",
"713 176 CURVE SMOOTH",
"713 260 OFFCURVE",
"682 321 OFFCURVE",
"550 389 CURVE SMOOTH",
"436 448 LINE",
"343 385 LINE",
"475 320 LINE SMOOTH",
"591 263 OFFCURVE",
"612 216 OFFCURVE",
"612 166 CURVE SMOOTH",
"612 93 OFFCURVE",
"566 48 OFFCURVE",
"496 48 CURVE SMOOTH",
"451 48 OFFCURVE",
"406 66 OFFCURVE",
"391 80 CURVE",
"404 52 LINE",
"402 70 OFFCURVE",
"396 119 OFFCURVE",
"396 137 CURVE",
"396 183 LINE",
"331 189 LINE",
"316 38 LINE",
"373 7 OFFCURVE",
"426 -10 OFFCURVE",
"493 -10 CURVE SMOOTH"
);
}
);
width = 770.2;
}
);
leftKerningGroup = UC_Sterm;
rightKerningGroup = UC_S;
},
{
color = 6;
glyphname = germandbls.case;
layers = (
{
layerId = "16643525-C5DD-48EC-8E99-463BF28F5E85";
paths = (
{
closed = 1;
nodes = (
"98 -3 OFFCURVE",
"173 0 OFFCURVE",
"194 0 CURVE",
"247 0 LINE",
"267 19 LINE",
"265 50 OFFCURVE",
"260 149 OFFCURVE",
"260 187 CURVE SMOOTH",
"260 465 LINE SMOOTH",
"260 589 OFFCURVE",
"323 637 OFFCURVE",
"403 637 CURVE SMOOTH",
"451 637 OFFCURVE",
"498 623 OFFCURVE",
"542 606 CURVE",
"531 669 LINE",
"377 353 LINE",
"478 317 LINE",
"652 660 LINE",
"633 701 LINE",
"557 711 OFFCURVE",
"487 720 OFFCURVE",
"414 720 CURVE SMOOTH",
"223 720 OFFCURVE",
"120 648 OFFCURVE",
"120 465 CURVE SMOOTH",
"120 157 LINE SMOOTH",
"120 131 OFFCURVE",
"111 63 OFFCURVE",
"108 45 CURVE",
"167 83 LINE",
"42 60 LINE",
"47 -5 LINE"
);
},
{
closed = 1;
nodes = (
"669 -14 OFFCURVE",
"760 69 OFFCURVE",
"760 198 CURVE SMOOTH",
"760 285 OFFCURVE",
"707 347 OFFCURVE",
"608 403 CURVE SMOOTH",
"485 473 LINE",
"377 353 LINE",
"519 279 LINE SMOOTH",
"585 245 OFFCURVE",
"610 205 OFFCURVE",
"610 166 CURVE SMOOTH",
"610 112 OFFCURVE",
"579 74 OFFCURVE",
"520 74 CURVE SMOOTH",
"462 74 OFFCURVE",
"422 109 OFFCURVE",
"409 121 CURVE",
"452 71 LINE",
"438 97 OFFCURVE",
"433 141 OFFCURVE",
"433 152 CURVE",
"433 212 LINE",
"353 218 LINE",
"338 34 LINE",
"364 21 OFFCURVE",
"442 -14 OFFCURVE",
"535 -14 CURVE SMOOTH"
);
}
);
width = 812;
},
{
layerId = "4E6502B1-B066-4D3E-9BD1-B1D9901B4F4F";
paths = (
{
closed = 1;
nodes = (
"98 -3 OFFCURVE",
"169 0 OFFCURVE",
"190 0 CURVE",
"212 0 LINE",
"230 17 LINE",
"228 60 OFFCURVE",
"226 129 OFFCURVE",
"226 165 CURVE SMOOTH",
"226 465 LINE SMOOTH",
"226 607 OFFCURVE",
"299 662 OFFCURVE",
"394 662 CURVE SMOOTH",
"446 662 OFFCURVE",
"491 656 OFFCURVE",
"544 640 CURVE",
"542 673 LINE",
"343 385 LINE",
"414 373 LINE",
"622 668 LINE",
"612 698 LINE",
"539 712 OFFCURVE",
"477 720 OFFCURVE",
"410 720 CURVE SMOOTH",
"259 720 OFFCURVE",
"135 667 OFFCURVE",
"135 465 CURVE SMOOTH",
"135 135 LINE SMOOTH",
"135 113 OFFCURVE",
"124 43 OFFCURVE",
"121 22 CURVE",
"160 67 LINE",
"46 44 LINE",
"51 -5 LINE"
);
},
{
closed = 1;
nodes = (
"625 -10 OFFCURVE",
"713 64 OFFCURVE",
"713 176 CURVE SMOOTH",
"713 260 OFFCURVE",
"682 321 OFFCURVE",
"550 389 CURVE SMOOTH",
"436 448 LINE",
"343 385 LINE",
"475 320 LINE SMOOTH",
"591 263 OFFCURVE",
"612 216 OFFCURVE",
"612 166 CURVE SMOOTH",
"612 93 OFFCURVE",
"566 48 OFFCURVE",
"496 48 CURVE SMOOTH",
"451 48 OFFCURVE",
"406 66 OFFCURVE",
"391 80 CURVE",
"404 52 LINE",
"402 70 OFFCURVE",
"396 119 OFFCURVE",
"396 137 CURVE",
"396 183 LINE",
"331 189 LINE",
"316 38 LINE",
"373 7 OFFCURVE",
"426 -10 OFFCURVE",
"493 -10 CURVE SMOOTH"
);
}
);
width = 770.2;
}
);
leftKerningGroup = UC_Sterm;
rightKerningGroup = UC_S;
script = latin;
category = Letter;
subCategory = Uppercase;
},
{
color = 6;
export = 0;
glyphname = I.numeroRomano;
layers = (
{
layerId = "16643525-C5DD-48EC-8E99-463BF28F5E85";
paths = (
{
closed = 1;
nodes = (
"274 60 LINE",
"268 87 OFFCURVE",
"258 169 OFFCURVE",
"258 217 CURVE SMOOTH",
"258 486 LINE SMOOTH",
"258 537 OFFCURVE",
"266 607 OFFCURVE",
"275 645 CURVE",
"83 645 LINE",
"93 617 OFFCURVE",
"100 540 OFFCURVE",
"100 513 CURVE SMOOTH",
"100 190 LINE SMOOTH",
"100 159 OFFCURVE",
"89 90 OFFCURVE",
"83 60 CURVE"
);
}
);
userData = {
RMXScaler = {
height = 90;
verticalShift = 34;
width = 95;
};
};
width = 358;
},
{
layerId = "4E6502B1-B066-4D3E-9BD1-B1D9901B4F4F";
paths = (
{
closed = 1;
nodes = (
"206 42 LINE",
"202 57 OFFCURVE",
"194 138 OFFCURVE",
"194 188 CURVE SMOOTH",
"194 515 LINE SMOOTH",
"194 561 OFFCURVE",
"202 650 OFFCURVE",
"205 659 CURVE",
"93 659 LINE",
"97 650 OFFCURVE",
"107 560 OFFCURVE",
"107 542 CURVE SMOOTH",
"107 161 LINE SMOOTH",
"107 140 OFFCURVE",
"97 56 OFFCURVE",
"93 42 CURVE"
);
}
);
userData = {
RMXScaler = {
height = 90;
verticalShift = 34;
width = 95;
};
};
width = 299.7;
}
);
leftKerningGroup = H.ss02;
rightKerningGroup = H.ss02;
userData = {
RMXScaler = {
source = I;
};
};
},
{
color = 6;
glyphname = a;
layers = (
{
anchors = (
{
name = bottom;
position = "{268, 0}";
},
{
name = ogonek;
position = "{523, 0}";
},
{
name = top;
position = "{250, 494}";
}
);
layerId = "16643525-C5DD-48EC-8E99-463BF28F5E85";
paths = (
{
closed = 1;
nodes = (
"272 -10 OFFCURVE",
"321 30 OFFCURVE",
"352 119 CURVE",
"324 135 LINE",
"339 0 LINE",
"523 0 LINE",
"529 71 LINE",
"406 83 LINE",
"475 38 LINE",
"470 69 OFFCURVE",
"460 125 OFFCURVE",
"460 193 CURVE SMOOTH",
"460 329 LINE SMOOTH",
"460 443 OFFCURVE",
"383 509 OFFCURVE",
"251 509 CURVE SMOOTH",
"207 509 OFFCURVE",
"128 497 OFFCURVE",
"68 482 CURVE",
"83 313 LINE",
"158 316 LINE",
"157 359 LINE",
"175 461 LINE",
"132 391 LINE",
"154 399 OFFCURVE",
"209 418 OFFCURVE",
"245 418 CURVE SMOOTH",
"299 418 OFFCURVE",
"320 393 OFFCURVE",
"320 328 CURVE SMOOTH",
"320 157 LINE",
"310 117 OFFCURVE",
"283 93 OFFCURVE",
"248 93 CURVE SMOOTH",
"211 93 OFFCURVE",
"194 113 OFFCURVE",
"194 154 CURVE SMOOTH",
"194 189 OFFCURVE",
"207 210 OFFCURVE",
"246 216 CURVE SMOOTH",
"336 231 LINE",
"336 296 LINE",
"178 270 LINE SMOOTH",
"86 255 OFFCURVE",
"46 205 OFFCURVE",
"46 132 CURVE SMOOTH",
"46 44 OFFCURVE",
"102 -10 OFFCURVE",
"193 -10 CURVE SMOOTH"
);
}
);
width = 552;
},
{
anchors = (
{
name = bottom;
position = "{247, 0}";
},
{
name = ogonek;
position = "{488, 0}";
},
{
name = top;
position = "{230, 494}";
}
);
layerId = "4E6502B1-B066-4D3E-9BD1-B1D9901B4F4F";
paths = (
{
closed = 1;
nodes = (
"279 -10 OFFCURVE",
"357 59 OFFCURVE",
"362 116 CURVE",
"344 113 LINE",
"364 0 LINE",
"489 0 LINE",
"495 52 LINE",
"397 63 LINE",
"430 33 LINE",
"425 58 OFFCURVE",
"415 104 OFFCURVE",
"415 164 CURVE SMOOTH",
"415 287 LINE SMOOTH",
"415 444 OFFCURVE",
"372 502 OFFCURVE",
"254 502 CURVE SMOOTH",
"193 502 OFFCURVE",
"134 494 OFFCURVE",
"74 479 CURVE",
"84 346 LINE",
"142 349 LINE",
"141 390 LINE",
"153 465 LINE",
"122 422 LINE",
"144 438 OFFCURVE",
"202 452 OFFCURVE",
"244 452 CURVE SMOOTH",
"308 452 OFFCURVE",
"340 405 OFFCURVE",
"340 309 CURVE SMOOTH",
"340 168 LINE",
"330 101 OFFCURVE",
"271 50 OFFCURVE",
"201 50 CURVE SMOOTH",
"153 50 OFFCURVE",
"126 80 OFFCURVE",
"126 131 CURVE SMOOTH",
"126 166 OFFCURVE",
"150 191 OFFCURVE",
"190 198 CURVE",
"353 229 LINE",
"353 278 LINE",
"178 249 LINE SMOOTH",
"88 234 OFFCURVE",
"44 186 OFFCURVE",
"44 117 CURVE SMOOTH",
"44 40 OFFCURVE",
"100 -10 OFFCURVE",
"189 -10 CURVE SMOOTH"
);
}
);
width = 516.8;
}
);
leftKerningGroup = lc_a;
rightKerningGroup = lc_Shoulder;
unicode = 0061;
},
{
color = 3;
glyphname = aogonek;
layers = (
{
components = (
{
name = ogonekcomb;
transform = "{1, 0, 0, 1, 226, 0}";
}
);
layerId = "16643525-C5DD-48EC-8E99-463BF28F5E85";
paths = (
{
closed = 1;
nodes = (
"256 -10 OFFCURVE",
"300 16 OFFCURVE",
"331 72 CURVE",
"356 0 LINE",
"491 0 OFFCURVE",
"523 0 OFFCURVE",
"523 0 CURVE",
"529 71 LINE",
"469 77 LINE",
"469 77 OFFCURVE",
"460 143 OFFCURVE",
"460 193 CURVE SMOOTH",
"460 323 LINE SMOOTH",
"460 437 OFFCURVE",
"383 503 OFFCURVE",
"251 503 CURVE SMOOTH",
"207 503 OFFCURVE",
"128 491 OFFCURVE",
"68 476 CURVE",
"83 307 LINE",
"158 310 LINE",
"157 353 LINE",
"164 393 LINE",
"187 404 OFFCURVE",
"221 412 OFFCURVE",
"245 412 CURVE SMOOTH",
"299 412 OFFCURVE",
"320 387 OFFCURVE",
"320 322 CURVE SMOOTH",
"320 293 LINE",
"178 270 LINE SMOOTH",
"90 256 OFFCURVE",
"46 210 OFFCURVE",
"46 132 CURVE SMOOTH",
"46 44 OFFCURVE",
"102 -10 OFFCURVE",
"193 -10 CURVE SMOOTH"
);
},
{
closed = 1;
nodes = (
"211 93 OFFCURVE",
"194 113 OFFCURVE",
"194 154 CURVE SMOOTH",
"194 191 OFFCURVE",
"209 209 OFFCURVE",
"246 216 CURVE SMOOTH",
"320 228 LINE",
"320 157 LINE",
"310 117 OFFCURVE",
"283 93 OFFCURVE",
"248 93 CURVE SMOOTH"
);
}
);
width = 551;
},
{
components = (
{
alignment = -1;
name = ogonekcomb;
transform = "{1, 0, 0, 1, 228, 0}";
}
);
layerId = "4E6502B1-B066-4D3E-9BD1-B1D9901B4F4F";
paths = (
{
closed = 1;
nodes = (
"254 -10 OFFCURVE",
"324 29 OFFCURVE",
"350 80 CURVE",
"363 0 LINE",
"437 0 OFFCURVE",
"489 0 OFFCURVE",
"489 0 CURVE",
"495 52 LINE",
"425 59 LINE",
"425 59 OFFCURVE",
"415 114 OFFCURVE",
"415 164 CURVE SMOOTH",
"415 288 LINE SMOOTH",
"415 445 OFFCURVE",
"372 503 OFFCURVE",
"254 503 CURVE SMOOTH",
"193 503 OFFCURVE",
"134 495 OFFCURVE",
"74 479 CURVE",
"84 347 LINE",
"140 350 LINE",
"141 390 LINE",
"148 433 LINE",
"173 445 OFFCURVE",
"210 453 OFFCURVE",
"244 453 CURVE SMOOTH",
"308 453 OFFCURVE",
"340 406 OFFCURVE",
"340 310 CURVE SMOOTH",
"340 277 LINE",
"178 249 LINE SMOOTH",
"88 234 OFFCURVE",
"44 188 OFFCURVE",
"44 117 CURVE SMOOTH",
"44 40 OFFCURVE",
"100 -10 OFFCURVE",
"189 -10 CURVE SMOOTH"
);
},
{
closed = 1;
nodes = (
"153 50 OFFCURVE",
"126 80 OFFCURVE",
"126 131 CURVE SMOOTH",
"126 166 OFFCURVE",
"150 191 OFFCURVE",
"190 198 CURVE SMOOTH",
"340 227 LINE",
"340 168 LINE",
"330 101 OFFCURVE",
"271 50 OFFCURVE",
"201 50 CURVE SMOOTH"
);
}
);
width = 518;
}
);
leftKerningGroup = lc_a;
rightKerningGroup = lc_a;
unicode = 0105;
},
{
color = 6;
glyphname = ae;
layers = (
{
anchors = (
{
name = bottom;
position = "{396, 0}";
},
{
name = top;
position = "{396, 494}";
}
);
layerId = "16643525-C5DD-48EC-8E99-463BF28F5E85";
paths = (
{
closed = 1;
nodes = (
"294 -10 OFFCURVE",
"348 28 OFFCURVE",
"399 120 CURVE",
"350 118 LINE",
"390 28 OFFCURVE",
"453 -15 OFFCURVE",
"548 -15 CURVE SMOOTH",
"626 -15 OFFCURVE",
"692 9 OFFCURVE",
"744 56 CURVE",
"709 114 LINE",
"688 100 OFFCURVE",
"641 81 OFFCURVE",
"588 81 CURVE SMOOTH",
"497 81 OFFCURVE",
"463 127 OFFCURVE",
"461 248 CURVE",
"463 268 LINE",
"462 371 OFFCURVE",
"485 424 OFFCURVE",
"533 424 CURVE SMOOTH",
"576 424 OFFCURVE",
"596 388 OFFCURVE",
"596 311 CURVE SMOOTH",
"596 240 LINE",
"659 307 LINE",
"447 293 LINE",
"446 223 LINE",
"732 240 LINE",
"753 279 LINE",
"753 420 OFFCURVE",
"675 503 OFFCURVE",
"544 503 CURVE SMOOTH",
"470 503 OFFCURVE",
"411 480 OFFCURVE",
"370 435 CURVE",
"425 435 LINE",
"389 480 OFFCURVE",
"330 503 OFFCURVE",
"251 503 CURVE SMOOTH",
"205 503 OFFCURVE",
"135 493 OFFCURVE",
"68 476 CURVE",
"83 309 LINE",
"158 312 LINE",
"158 361 LINE",
"166 463 LINE",
"127 379 LINE",
"154 402 OFFCURVE",
"212 422 OFFCURVE",
"245 422 CURVE SMOOTH",
"296 422 OFFCURVE",
"320 391 OFFCURVE",
"320 323 CURVE SMOOTH",
"320 182 LINE SMOOTH",
"320 124 OFFCURVE",
"295 93 OFFCURVE",
"248 93 CURVE SMOOTH",
"211 93 OFFCURVE",
"194 111 OFFCURVE",
"194 152 CURVE SMOOTH",
"194 188 OFFCURVE",
"207 202 OFFCURVE",
"246 207 CURVE SMOOTH",
"336 216 LINE",
"336 286 LINE",
"178 270 LINE SMOOTH",
"92 262 OFFCURVE",
"46 214 OFFCURVE",
"46 132 CURVE SMOOTH",
"46 47 OFFCURVE",
"109 -10 OFFCURVE",
"203 -10 CURVE SMOOTH"
);
}
);
width = 791;
},
{
anchors = (
{
name = bottom;
position = "{386, 0}";
},
{
name = top;
position = "{386, 494}";
}
);
layerId = "4E6502B1-B066-4D3E-9BD1-B1D9901B4F4F";
paths = (
{
closed = 1;
nodes = (
"269 -10 OFFCURVE",
"336 39 OFFCURVE",
"381 133 CURVE",
"361 132 LINE",
"389 41 OFFCURVE",
"459 -10 OFFCURVE",
"555 -10 CURVE SMOOTH",
"660 -10 OFFCURVE",
"735 54 OFFCURVE",
"730 49 CURVE",
"702 94 LINE",
"676 76 OFFCURVE",
"620 52 OFFCURVE",
"562 52 CURVE SMOOTH",
"475 52 OFFCURVE",
"411 137 OFFCURVE",
"414 255 CURVE",
"415 271 LINE SMOOTH",
"418 385 OFFCURVE",
"464 453 OFFCURVE",
"539 453 CURVE SMOOTH",
"607 453 OFFCURVE",
"647 405 OFFCURVE",
"647 323 CURVE SMOOTH",
"647 288 LINE",
"680 327 LINE",
"403 286 LINE",
"401 238 LINE",
"716 275 LINE",
"730 313 LINE",
"720 440 OFFCURVE",
"659 502 OFFCURVE",
"542 502 CURVE SMOOTH",
"473 502 OFFCURVE",
"417 472 OFFCURVE",
"377 417 CURVE",
"399 414 LINE",
"380 475 OFFCURVE",
"333 503 OFFCURVE",
"254 503 CURVE SMOOTH",
"193 503 OFFCURVE",
"133 495 OFFCURVE",
"74 479 CURVE",
"84 348 LINE",
"140 351 LINE",
"140 385 LINE",
"157 466 LINE",
"136 424 LINE",
"158 442 OFFCURVE",
"199 452 OFFCURVE",
"244 452 CURVE SMOOTH",
"308 452 OFFCURVE",
"340 405 OFFCURVE",
"340 310 CURVE SMOOTH",
"340 218 LINE SMOOTH",
"340 124 OFFCURVE",
"279 50 OFFCURVE",
"201 50 CURVE SMOOTH",
"153 50 OFFCURVE",
"126 78 OFFCURVE",
"126 126 CURVE SMOOTH",
"126 169 OFFCURVE",
"144 190 OFFCURVE",
"190 199 CURVE SMOOTH",
"353 229 LINE",
"353 278 LINE",
"157 245 LINE SMOOTH",
"83 232 OFFCURVE",
"44 189 OFFCURVE",
"44 122 CURVE SMOOTH",
"44 42 OFFCURVE",
"99 -10 OFFCURVE",
"188 -10 CURVE SMOOTH"
);
}
);
width = 772.3;
}
);
leftKerningGroup = lc_a;
rightKerningGroup = lc_e;
unicode = 00E6;
},
{
color = 6;
glyphname = b;
layers = (
{
anchors = (
{
name = bottom;
position = "{297, 0}";
},
{
name = top;
position = "{297, 756}";
}
);
background = {
paths = (
{
closed = 1;
nodes = (
"462 -10 OFFCURVE",
"549 91 OFFCURVE",
"549 257 CURVE SMOOTH",
"549 397 OFFCURVE",
"497 509 OFFCURVE",
"359 509 CURVE SMOOTH",
"276 509 OFFCURVE",
"231 466 OFFCURVE",
"192 403 CURVE",
"217 370 LINE",
"217 557 LINE SMOOTH",
"217 594 OFFCURVE",
"223 681 OFFCURVE",
"227 737 CURVE",
"206 756 LINE",
"118 756 LINE SMOOTH",
"87 756 OFFCURVE",
"33 762 OFFCURVE",
"1 766 CURVE",
"-8 691 LINE",
"128 660 LINE",
"62 705 LINE",
"69 664 OFFCURVE",
"77 607 OFFCURVE",
"77 587 CURVE SMOOTH",
"77 163 LINE SMOOTH",
"77 148 OFFCURVE",
"71 76 OFFCURVE",
"67 26 CURVE",
"162 -2 OFFCURVE",
"234 -10 OFFCURVE",
"298 -10 CURVE SMOOTH"
);
},
{
closed = 1;
nodes = (
"221 88 OFFCURVE",
"217 150 OFFCURVE",
"219 193 CURVE SMOOTH",
"219 266 LINE SMOOTH",
"219 337 OFFCURVE",
"243 396 OFFCURVE",
"305 396 CURVE SMOOTH",
"379 396 OFFCURVE",
"390 319 OFFCURVE",
"390 244 CURVE SMOOTH",
"390 154 OFFCURVE",
"374 85 OFFCURVE",
"286 85 CURVE SMOOTH",
"252 85 OFFCURVE",
"213 101 OFFCURVE",
"181 111 CURVE",
"220 73 LINE"
);
}
);
};
layerId = "16643525-C5DD-48EC-8E99-463BF28F5E85";
paths = (
{
closed = 1;
nodes = (
"462 -10 OFFCURVE",
"549 91 OFFCURVE",
"549 257 CURVE SMOOTH",
"549 397 OFFCURVE",
"497 509 OFFCURVE",
"359 509 CURVE SMOOTH",
"276 509 OFFCURVE",
"231 466 OFFCURVE",
"192 403 CURVE",
"217 370 LINE",
"217 557 LINE SMOOTH",
"217 594 OFFCURVE",
"223 681 OFFCURVE",
"227 737 CURVE",
"206 756 LINE",
"118 756 LINE",
"1 761 LINE",
"-8 691 LINE",
"128 660 LINE",
"62 705 LINE",
"69 664 OFFCURVE",
"77 607 OFFCURVE",
"77 587 CURVE SMOOTH",
"77 163 LINE SMOOTH",
"77 148 OFFCURVE",
"71 76 OFFCURVE",
"67 26 CURVE",
"162 -2 OFFCURVE",
"234 -10 OFFCURVE",
"298 -10 CURVE SMOOTH"
);
},
{
closed = 1;
nodes = (
"221 88 OFFCURVE",
"219 150 OFFCURVE",
"219 193 CURVE SMOOTH",
"219 266 LINE SMOOTH",
"219 337 OFFCURVE",
"243 396 OFFCURVE",
"305 396 CURVE SMOOTH",
"379 396 OFFCURVE",
"390 319 OFFCURVE",
"390 244 CURVE SMOOTH",
"390 154 OFFCURVE",
"374 85 OFFCURVE",
"286 85 CURVE SMOOTH",
"252 85 OFFCURVE",
"213 101 OFFCURVE",
"181 111 CURVE",
"220 73 LINE"
);
}
);
width = 594;
},
{
anchors = (
{
name = bottom;
position = "{269, 0}";
},
{
name = top;
position = "{269, 756}";
}
);
layerId = "4E6502B1-B066-4D3E-9BD1-B1D9901B4F4F";
paths = (
{
closed = 1;
nodes = (
"405 -10 OFFCURVE",
"492 115 OFFCURVE",
"492 256 CURVE SMOOTH",
"492 394 OFFCURVE",
"426 502 OFFCURVE",
"293 502 CURVE SMOOTH",
"215 502 OFFCURVE",
"166 452 OFFCURVE",
"146 411 CURVE",
"154 393 LINE",
"154 588 LINE SMOOTH",
"154 625 OFFCURVE",
"158 695 OFFCURVE",
"161 738 CURVE",
"142 756 LINE",
"87 756 LINE",
"-2 759 LINE",
"-7 709 LINE",
"103 685 LINE",
"65 716 LINE",
"69 694 OFFCURVE",
"79 640 OFFCURVE",
"79 618 CURVE SMOOTH",
"79 134 LINE SMOOTH",
"79 119 OFFCURVE",
"75 64 OFFCURVE",
"72 26 CURVE",
"113 10 OFFCURVE",
"180 -10 OFFCURVE",
"264 -10 CURVE SMOOTH"
);
},
{
closed = 1;
nodes = (
"161 48 OFFCURVE",
"154 109 OFFCURVE",
"154 164 CURVE SMOOTH",
"154 275 LINE SMOOTH",
"154 359 OFFCURVE",
"196 447 OFFCURVE",
"282 447 CURVE SMOOTH",
"379 447 OFFCURVE",
"407 356 OFFCURVE",
"407 255 CURVE SMOOTH",
"407 143 OFFCURVE",
"369 42 OFFCURVE",
"259 42 CURVE SMOOTH",
"214 42 OFFCURVE",
"175 49 OFFCURVE",
"144 59 CURVE",
"167 28 LINE"
);
}
);
width = 538;
}
);
leftKerningGroup = lc_LongStem;
rightKerningGroup = lc_Round;
unicode = 0062;
},
{
color = 6;
glyphname = c;
layers = (
{
anchors = (
{
name = bottom;
position = "{291, 0}";
},
{
name = top;
position = "{286, 494}";
}
);
layerId = "16643525-C5DD-48EC-8E99-463BF28F5E85";
paths = (
{
closed = 1;
nodes = (
"357 -15 OFFCURVE",
"423 11 OFFCURVE",
"474 56 CURVE",
"439 114 LINE",
"400 92 OFFCURVE",
"363 82 OFFCURVE",
"322 82 CURVE SMOOTH",
"242 82 OFFCURVE",
"202 137 OFFCURVE",
"202 248 CURVE SMOOTH",
"202 373 OFFCURVE",
"232 430 OFFCURVE",
"297 430 CURVE SMOOTH",
"340 430 OFFCURVE",
"381 404 OFFCURVE",
"410 380 CURVE",
"351 446 LINE",
"362 419 OFFCURVE",
"364 392 OFFCURVE",
"366 365 CURVE SMOOTH",
"365 311 LINE",
"450 308 LINE",
"465 485 LINE",
"406 497 OFFCURVE",
"348 509 OFFCURVE",
"288 509 CURVE SMOOTH",
"136 509 OFFCURVE",
"43 410 OFFCURVE",
"43 248 CURVE SMOOTH",
"43 77 OFFCURVE",
"130 -15 OFFCURVE",
"293 -15 CURVE SMOOTH"
);
}
);
width = 515;
},
{
anchors = (
{
name = bottom;
position = "{255, 0}";
},
{
name = top;
position = "{279, 494}";
}
);
layerId = "4E6502B1-B066-4D3E-9BD1-B1D9901B4F4F";
paths = (
{
closed = 1;
nodes = (
"333 -10 OFFCURVE",
"386 6 OFFCURVE",
"442 43 CURVE",
"415 89 LINE",
"367 66 OFFCURVE",
"322 52 OFFCURVE",
"273 52 CURVE SMOOTH",
"171 52 OFFCURVE",
"135 147 OFFCURVE",
"135 246 CURVE SMOOTH",
"135 343 OFFCURVE",
"173 448 OFFCURVE",
"275 448 CURVE SMOOTH",
"310 448 OFFCURVE",
"345 432 OFFCURVE",
"381 413 CURVE",
"350 445 LINE",
"357 423 OFFCURVE",
"366 394 OFFCURVE",
"366 384 CURVE SMOOTH",
"366 350 LINE",
"421 347 LINE",
"431 466 LINE",
"371 487 OFFCURVE",
"335 502 OFFCURVE",
"276 502 CURVE SMOOTH",
"123 502 OFFCURVE",
"47 398 OFFCURVE",
"47 246 CURVE SMOOTH",
"47 95 OFFCURVE",
"122 -10 OFFCURVE",
"274 -10 CURVE SMOOTH"
);
}
);
width = 480.9;
}
);
leftKerningGroup = lc_Round;
rightKerningGroup = lc_c;
unicode = 0063;
},
{
color = 6;
glyphname = d;
layers = (
{
anchors = (
{
name = bottom;
position = "{315, 0}";
},
{
name = center;
position = "{431, 585}";
},
{
name = top;
position = "{368, 756}";
},
{
name = topright;
position = "{627, 494}";
}
);
layerId = "16643525-C5DD-48EC-8E99-463BF28F5E85";
paths = (
{
closed = 1;
nodes = (
"315 -10 OFFCURVE",
"366 28 OFFCURVE",
"416 122 CURVE",
"381 138 LINE",
"396 0 LINE",
"580 0 LINE",
"586 71 LINE",
"463 83 LINE",
"531 40 LINE",
"526 74 OFFCURVE",
"517 125 OFFCURVE",
"517 193 CURVE SMOOTH",
"517 557 LINE SMOOTH",
"517 594 OFFCURVE",
"523 681 OFFCURVE",
"527 737 CURVE",
"506 756 LINE",
"418 756 LINE",
"301 761 LINE",
"292 691 LINE",
"428 660 LINE",
"362 707 LINE",
"365 690 OFFCURVE",
"377 617 OFFCURVE",
"377 587 CURVE SMOOTH",
"377 233 LINE",
"372 147 OFFCURVE",
"342 103 OFFCURVE",
"289 103 CURVE SMOOTH",
"231 103 OFFCURVE",
"204 151 OFFCURVE",
"204 255 CURVE SMOOTH",
"204 367 OFFCURVE",
"235 414 OFFCURVE",
"308 414 CURVE SMOOTH",
"330 414 OFFCURVE",
"360 408 OFFCURVE",
"397 394 CURVE",
"394 502 LINE",
"359 506 OFFCURVE",
"325 509 OFFCURVE",
"296 509 CURVE SMOOTH",
"136 509 OFFCURVE",
"45 412 OFFCURVE",
"45 242 CURVE SMOOTH",
"45 81 OFFCURVE",
"113 -10 OFFCURVE",
"235 -10 CURVE SMOOTH"
);
}
);
width = 610;
},
{
anchors = (
{
name = bottom;
position = "{279, 0}";
},
{
name = center;
position = "{385, 610}";
},
{
name = top;
position = "{327, 756}";
},
{
name = topright;
position = "{556, 494}";
}
);
layerId = "4E6502B1-B066-4D3E-9BD1-B1D9901B4F4F";
paths = (
{
closed = 1;
nodes = (
"308 -10 OFFCURVE",
"397 50 OFFCURVE",
"395 96 CURVE",
"388 113 LINE",
"408 0 LINE",
"533 0 LINE",
"539 52 LINE",
"436 63 LINE",
"475 27 LINE",
"470 49 OFFCURVE",
"459 111 OFFCURVE",
"459 163 CURVE SMOOTH",
"459 589 LINE SMOOTH",
"459 625 OFFCURVE",
"462 695 OFFCURVE",
"465 738 CURVE",
"447 756 LINE",
"391 756 LINE",
"289 759 LINE",
"284 709 LINE",
"406 688 LINE",
"368 721 LINE",
"372 705 OFFCURVE",
"384 645 OFFCURVE",
"384 619 CURVE SMOOTH",
"384 203 LINE",
"384 106 OFFCURVE",
"334 48 OFFCURVE",
"252 48 CURVE SMOOTH",
"178 48 OFFCURVE",
"131 124 OFFCURVE",
"131 245 CURVE SMOOTH",
"131 370 OFFCURVE",
"181 446 OFFCURVE",
"263 446 CURVE SMOOTH",
"310 446 OFFCURVE",
"351 432 OFFCURVE",
"398 395 CURVE",
"405 467 LINE",
"334 496 OFFCURVE",
"302 502 OFFCURVE",
"253 502 CURVE SMOOTH",
"127 502 OFFCURVE",
"48 404 OFFCURVE",
"48 248 CURVE SMOOTH",
"48 88 OFFCURVE",
"126 -10 OFFCURVE",
"250 -10 CURVE SMOOTH"
);
}
);
width = 560.5;
}
);
leftKerningGroup = lc_Round;
rightKerningGroup = lc_LongStem;
unicode = 0064;
},
{
color = 6;
glyphname = eth;
layers = (
{
layerId = "16643525-C5DD-48EC-8E99-463BF28F5E85";
paths = (
{
closed = 1;
nodes = (
"450 -15 OFFCURVE",
"541 90 OFFCURVE",
"541 252 CURVE SMOOTH",
"541 488 OFFCURVE",
"421 698 OFFCURVE",
"207 770 CURVE",
"182 711 LINE",
"336 626 OFFCURVE",
"382 476 OFFCURVE",
"382 279 CURVE SMOOTH",
"382 172 OFFCURVE",
"363 77 OFFCURVE",
"288 77 CURVE SMOOTH",
"213 77 OFFCURVE",
"201 161 OFFCURVE",
"201 236 CURVE SMOOTH",
"201 311 OFFCURVE",
"213 396 OFFCURVE",
"288 396 CURVE SMOOTH",
"306 396 OFFCURVE",
"320 392 OFFCURVE",
"328 390 CURVE",
"340 460 LINE",
"327 470 OFFCURVE",
"297 483 OFFCURVE",
"258 483 CURVE SMOOTH",
"128 483 OFFCURVE",
"41 387 OFFCURVE",
"41 243 CURVE SMOOTH",
"41 83 OFFCURVE",
"128 -15 OFFCURVE",
"288 -15 CURVE SMOOTH"
);
},
{
closed = 1;
nodes = (
"325 596 LINE",
"283 652 LINE",
"174 595 LINE",
"207 536 LINE"
);
},
{
closed = 1;
nodes = (
"494 683 LINE",
"461 744 LINE",
"340 681 LINE",
"390 630 LINE"
);
}
);
width = 591;
},
{
layerId = "4E6502B1-B066-4D3E-9BD1-B1D9901B4F4F";
paths = (
{
closed = 1;
nodes = (
"424 -10 OFFCURVE",
"501 97 OFFCURVE",
"501 252 CURVE SMOOTH",
"501 479 OFFCURVE",
"388 688 OFFCURVE",
"189 765 CURVE",
"171 725 LINE",
"349 634 OFFCURVE",
"414 468 OFFCURVE",
"414 248 CURVE SMOOTH",
"414 142 OFFCURVE",
"378 44 OFFCURVE",
"273 44 CURVE SMOOTH",
"172 44 OFFCURVE",
"134 136 OFFCURVE",
"134 236 CURVE SMOOTH",
"134 336 OFFCURVE",
"175 429 OFFCURVE",
"269 429 CURVE SMOOTH",
"285 429 OFFCURVE",
"310 427 OFFCURVE",
"324 425 CURVE",
"331 468 LINE",
"313 474 OFFCURVE",
"290 483 OFFCURVE",
"262 483 CURVE SMOOTH",
"132 483 OFFCURVE",
"45 379 OFFCURVE",
"45 235 CURVE SMOOTH",
"45 93 OFFCURVE",
"130 -10 OFFCURVE",
"273 -10 CURVE SMOOTH"
);
},
{
closed = 1;
nodes = (
"318 614 LINE",
"291 651 LINE",
"162 584 LINE",
"184 544 LINE"
);
},
{
closed = 1;
nodes = (
"471 691 LINE",
"449 733 LINE",
"324 668 LINE",
"354 631 LINE"
);
}
);
width = 556.9;
}
);
leftKerningGroup = lc_Round;
rightKerningGroup = lc_eth;
unicode = 00F0;
},
{
color = 6;
glyphname = e;
layers = (
{
anchors = (
{
name = bottom;
position = "{285, 0}";
},
{
name = ogonek;
position = "{412, 10}";
},
{
name = top;
position = "{279, 494}";
}
);
layerId = "16643525-C5DD-48EC-8E99-463BF28F5E85";
paths = (
{
closed = 1;
nodes = (
"366 -15 OFFCURVE",
"432 9 OFFCURVE",
"484 56 CURVE",
"449 114 LINE",
"428 100 OFFCURVE",
"381 81 OFFCURVE",
"328 81 CURVE SMOOTH",
"241 81 OFFCURVE",
"202 126 OFFCURVE",
"202 256 CURVE SMOOTH",
"202 357 OFFCURVE",
"213 430 OFFCURVE",
"273 430 CURVE SMOOTH",
"316 430 OFFCURVE",
"336 392 OFFCURVE",
"336 316 CURVE SMOOTH",
"336 290 OFFCURVE",
"331 265 OFFCURVE",
"326 239 CURVE",
"399 305 LINE",
"192 294 LINE",
"191 221 LINE",
"472 221 LINE",
"493 260 LINE",
"502 418 OFFCURVE",
"426 509 OFFCURVE",
"284 509 CURVE SMOOTH",
"140 509 OFFCURVE",
"43 416 OFFCURVE",
"43 245 CURVE SMOOTH",
"43 80 OFFCURVE",
"135 -15 OFFCURVE",
"288 -15 CURVE SMOOTH"
);
}
);
width = 535;
},
{
anchors = (
{
name = bottom;
position = "{273, 0}";
},
{
name = ogonek;
position = "{410, 23}";
},
{
name = top;
position = "{266, 494}";
}
);
layerId = "4E6502B1-B066-4D3E-9BD1-B1D9901B4F4F";
paths = (
{
closed = 1;
nodes = (
"394 -10 OFFCURVE",
"457 56 OFFCURVE",
"449 49 CURVE",
"423 93 LINE",
"394 75 OFFCURVE",
"332 51 OFFCURVE",
"269 51 CURVE SMOOTH",
"174 51 OFFCURVE",
"132 161 OFFCURVE",
"132 249 CURVE SMOOTH",
"132 341 OFFCURVE",
"159 454 OFFCURVE",
"259 454 CURVE SMOOTH",
"334 454 OFFCURVE",
"369 395 OFFCURVE",
"369 325 CURVE SMOOTH",
"369 305 OFFCURVE",
"368 289 OFFCURVE",
"368 272 CURVE",
"400 307 LINE",
"111 285 LINE",
"111 240 LINE",
"435 240 LINE",
"451 272 LINE",
"450 408 OFFCURVE",
"402 502 OFFCURVE",
"262 502 CURVE SMOOTH",
"115 502 OFFCURVE",
"47 392 OFFCURVE",
"47 245 CURVE SMOOTH",
"47 98 OFFCURVE",
"124 -10 OFFCURVE",
"275 -10 CURVE SMOOTH"
);
}
);
width = 497.6;
}
);
leftKerningGroup = lc_Round;
rightKerningGroup = lc_e;
unicode = 0065;
},
{
color = 6;
glyphname = schwa;
layers = (
{
layerId = "16643525-C5DD-48EC-8E99-463BF28F5E85";
paths = (
{
closed = 1;
nodes = (
"405 -15 OFFCURVE",
"492 78 OFFCURVE",
"492 246 CURVE SMOOTH",
"492 409 OFFCURVE",
"390 503 OFFCURVE",
"237 503 CURVE SMOOTH",
"159 503 OFFCURVE",
"112 483 OFFCURVE",
"51 442 CURVE",
"86 384 LINE",
"115 394 OFFCURVE",
"168 407 OFFCURVE",
"207 407 CURVE SMOOTH",
"294 407 OFFCURVE",
"333 362 OFFCURVE",
"333 232 CURVE SMOOTH",
"333 137 OFFCURVE",
"322 64 OFFCURVE",
"262 64 CURVE SMOOTH",
"219 64 OFFCURVE",
"199 102 OFFCURVE",
"199 178 CURVE SMOOTH",
"199 253 LINE",
"136 190 LINE",
"343 191 LINE",
"344 258 LINE",
"63 271 LINE",
"42 232 LINE",
"33 76 OFFCURVE",
"119 -15 OFFCURVE",
"261 -15 CURVE SMOOTH"
);
}
);
width = 534;
},
{
layerId = "4E6502B1-B066-4D3E-9BD1-B1D9901B4F4F";
paths = (
{
closed = 1;
nodes = (
"384 -10 OFFCURVE",
"458 96 OFFCURVE",
"458 246 CURVE SMOOTH",
"458 400 OFFCURVE",
"385 503 OFFCURVE",
"230 503 CURVE SMOOTH",
"152 503 OFFCURVE",
"107 481 OFFCURVE",
"66 455 CURVE",
"92 409 LINE",
"148 436 OFFCURVE",
"178 443 OFFCURVE",
"233 443 CURVE SMOOTH",
"329 443 OFFCURVE",
"370 348 OFFCURVE",
"370 247 CURVE SMOOTH",
"370 144 OFFCURVE",
"337 45 OFFCURVE",
"239 45 CURVE SMOOTH",
"162 45 OFFCURVE",
"130 105 OFFCURVE",
"130 179 CURVE SMOOTH",
"130 232 LINE",
"96 199 LINE",
"388 202 LINE",
"388 250 LINE",
"70 266 LINE",
"41 247 LINE",
"31 109 OFFCURVE",
"99 -10 OFFCURVE",
"239 -10 CURVE SMOOTH"
);
}
);
width = 506.5;
}
);
leftKerningGroup = lc_s;
rightKerningGroup = lc_s;
unicode = 0259;
},
{
color = 6;
glyphname = f;
layers = (
{
anchors = (
{
name = bottom;
position = "{193, 0}";
},
{
name = top;
position = "{193, 756}";
}
);
layerId = "16643525-C5DD-48EC-8E99-463BF28F5E85";
paths = (
{
closed = 1;
nodes = (
"81 -3 OFFCURVE",
"144 0 OFFCURVE",
"154 0 CURVE",
"333 0 LINE",
"338 71 LINE",
"190 83 LINE",
"259 35 LINE",
"254 67 OFFCURVE",
"244 125 OFFCURVE",
"244 193 CURVE SMOOTH",
"244 460 LINE",
"228 419 LINE",
"346 419 LINE",
"355 494 LINE",
"228 494 LINE",
"244 474 LINE",
"219 607 OFFCURVE",
"217 689 OFFCURVE",
"272 689 CURVE SMOOTH",
"284 689 OFFCURVE",
"328 675 OFFCURVE",
"328 675 CURVE",
"290 703 LINE",
"293 692 OFFCURVE",
"295 655 OFFCURVE",
"295 637 CURVE",
"293 592 LINE",
"367 589 LINE",
"387 759 LINE",
"342 766 OFFCURVE",
"320 770 OFFCURVE",
"285 770 CURVE SMOOTH",
"175 770 OFFCURVE",
"104 690 OFFCURVE",
"104 580 CURVE SMOOTH",
"104 465 LINE",
"120 497 LINE",
"44 482 LINE",
"47 419 LINE",
"120 419 LINE",
"104 450 LINE",
"104 163 LINE SMOOTH",
"104 133 OFFCURVE",
"93 58 OFFCURVE",
"88 29 CURVE",
"157 88 LINE",
"39 65 LINE",
"44 -5 LINE"
);
}
);
width = 386;
},
{
anchors = (
{
name = bottom;
position = "{182, 0}";
},
{
name = top;
position = "{182, 756}";
}
);
layerId = "4E6502B1-B066-4D3E-9BD1-B1D9901B4F4F";
paths = (
{
closed = 1;
nodes = (
"75 -3 OFFCURVE",
"127 0 OFFCURVE",
"148 0 CURVE",
"296 0 LINE",
"302 52 LINE",
"168 62 LINE",
"205 25 LINE",
"201 49 OFFCURVE",
"196 112 OFFCURVE",
"196 164 CURVE SMOOTH",
"196 460 LINE",
"183 442 LINE",
"334 442 LINE",
"339 494 LINE",
"183 494 LINE",
"196 485 LINE",
"198 614 OFFCURVE",
"183 720 OFFCURVE",
"286 720 CURVE SMOOTH",
"297 720 OFFCURVE",
"318 720 OFFCURVE",
"334 720 CURVE",
"286 747 LINE",
"296 709 OFFCURVE",
"305 674 OFFCURVE",
"305 667 CURVE",
"305 632 LINE",
"344 629 LINE",
"355 763 LINE",
"344 766 OFFCURVE",
"319 770 OFFCURVE",
"296 770 CURVE SMOOTH",
"181 770 OFFCURVE",
"121 703 OFFCURVE",
"121 599 CURVE SMOOTH",
"121 478 LINE",
"133 496 LINE",
"39 484 LINE",
"42 442 LINE",
"134 442 LINE",
"121 454 LINE",
"121 134 LINE SMOOTH",
"121 109 OFFCURVE",
"107 44 OFFCURVE",
"105 29 CURVE",
"144 66 LINE",
"33 43 LINE",
"38 -5 LINE"
);
}
);
width = 365;
}
);
leftKerningGroup = lc_f;
rightKerningGroup = lc_f;
unicode = 0066;
},
{
color = 6;
glyphname = g;
layers = (
{
anchors = (
{
name = top;
position = "{257, 494}";
}
);
layerId = "16643525-C5DD-48EC-8E99-463BF28F5E85";
paths = (
{
closed = 1;
nodes = (
"392 -235 OFFCURVE",
"510 -149 OFFCURVE",
"510 -39 CURVE SMOOTH",
"510 10 OFFCURVE",
"492 41 OFFCURVE",
"458 54 CURVE SMOOTH",
"433 63 OFFCURVE",
"390 69 OFFCURVE",
"253 84 CURVE SMOOTH",
"193 90 OFFCURVE",
"170 100 OFFCURVE",
"170 122 CURVE SMOOTH",
"170 131 OFFCURVE",
"178 146 OFFCURVE",
"201 167 CURVE",
"150 185 LINE",
"97 135 OFFCURVE",
"71 104 OFFCURVE",
"71 88 CURVE SMOOTH",
"71 39 OFFCURVE",
"90 4 OFFCURVE",
"132 -12 CURVE SMOOTH",
"173 -28 OFFCURVE",
"194 -33 OFFCURVE",
"225 -38 CURVE SMOOTH",
"355 -58 LINE SMOOTH",
"376 -61 OFFCURVE",
"388 -74 OFFCURVE",
"388 -92 CURVE SMOOTH",
"388 -131 OFFCURVE",
"349 -155 OFFCURVE",
"286 -155 CURVE SMOOTH",
"201 -155 OFFCURVE",
"155 -127 OFFCURVE",
"155 -76 CURVE SMOOTH",
"155 -58 OFFCURVE",
"165 -33 OFFCURVE",
"186 -14 CURVE",
"134 7 LINE",
"70 -26 OFFCURVE",
"22 -67 OFFCURVE",
"22 -92 CURVE SMOOTH",
"22 -186 OFFCURVE",
"96 -235 OFFCURVE",
"242 -235 CURVE SMOOTH"
);
},
{
closed = 1;
nodes = (
"381 147 OFFCURVE",
"467 220 OFFCURVE",
"467 330 CURVE SMOOTH",
"467 442 OFFCURVE",
"378 509 OFFCURVE",
"256 509 CURVE SMOOTH",
"127 509 OFFCURVE",
"41 436 OFFCURVE",
"41 326 CURVE SMOOTH",
"41 212 OFFCURVE",
"133 147 OFFCURVE",
"252 147 CURVE SMOOTH"
);
},
{
closed = 1;
nodes = (
"213 213 OFFCURVE",
"193 249 OFFCURVE",
"193 324 CURVE SMOOTH",
"193 405 OFFCURVE",
"214 443 OFFCURVE",
"256 443 CURVE SMOOTH",
"296 443 OFFCURVE",
"315 407 OFFCURVE",
"315 332 CURVE SMOOTH",
"315 251 OFFCURVE",
"295 213 OFFCURVE",
"253 213 CURVE SMOOTH"
);
},
{
closed = 1;
nodes = (
"506 504 LINE",
"349 479 LINE",
"425 418 LINE",
"510 418 LINE"
);
}
);
width = 547;
},
{
anchors = (
{
name = top;
position = "{247, 494}";
}
);
layerId = "4E6502B1-B066-4D3E-9BD1-B1D9901B4F4F";
paths = (
{
closed = 1;
nodes = (
"362 -235 OFFCURVE",
"476 -149 OFFCURVE",
"476 -45 CURVE SMOOTH",
"476 3 OFFCURVE",
"460 33 OFFCURVE",
"432 42 CURVE SMOOTH",
"392 54 OFFCURVE",
"301 64 OFFCURVE",
"240 72 CURVE SMOOTH",
"163 81 OFFCURVE",
"145 87 OFFCURVE",
"145 107 CURVE SMOOTH",
"145 113 OFFCURVE",
"156 133 OFFCURVE",
"185 163 CURVE",
"152 174 LINE",
"94 126 OFFCURVE",
"67 99 OFFCURVE",
"67 84 CURVE SMOOTH",
"67 46 OFFCURVE",
"85 23 OFFCURVE",
"130 9 CURVE SMOOTH",
"170 -3 OFFCURVE",
"189 -6 OFFCURVE",
"225 -11 CURVE SMOOTH",
"355 -27 LINE SMOOTH",
"386 -31 OFFCURVE",
"395 -42 OFFCURVE",
"395 -73 CURVE SMOOTH",
"395 -137 OFFCURVE",
"334 -180 OFFCURVE",
"250 -180 CURVE SMOOTH",
"153 -180 OFFCURVE",
"109 -149 OFFCURVE",
"109 -79 CURVE SMOOTH",
"109 -58 OFFCURVE",
"119 -42 OFFCURVE",
"167 17 CURVE",
"130 21 LINE",
"71 -25 OFFCURVE",
"28 -71 OFFCURVE",
"28 -90 CURVE SMOOTH",
"28 -185 OFFCURVE",
"95 -235 OFFCURVE",
"223 -235 CURVE SMOOTH"
);
},
{
closed = 1;
nodes = (
"356 140 OFFCURVE",
"432 212 OFFCURVE",
"432 321 CURVE SMOOTH",
"432 429 OFFCURVE",
"357 502 OFFCURVE",
"241 502 CURVE SMOOTH",
"126 502 OFFCURVE",
"50 431 OFFCURVE",
"50 322 CURVE SMOOTH",
"50 214 OFFCURVE",
"125 140 OFFCURVE",
"241 140 CURVE SMOOTH"
);
},
{
closed = 1;
nodes = (
"167 190 OFFCURVE",
"130 234 OFFCURVE",
"130 322 CURVE SMOOTH",
"130 408 OFFCURVE",
"168 453 OFFCURVE",
"241 453 CURVE SMOOTH",
"315 453 OFFCURVE",
"351 409 OFFCURVE",
"351 321 CURVE SMOOTH",
"351 233 OFFCURVE",
"315 190 OFFCURVE",
"241 190 CURVE SMOOTH"
);
},
{
closed = 1;
nodes = (
"476 506 LINE",
"317 474 LINE",
"379 444 LINE",
"484 442 LINE"
);
}
);
width = 515.1;
}
);
leftKerningGroup = lc_g;
rightKerningGroup = lc_g;
unicode = 0067;
},
{
color = 6;
glyphname = gstroke;
layers = (
{
anchors = (
{
name = top;
position = "{261, 504}";
}
);
layerId = "16643525-C5DD-48EC-8E99-463BF28F5E85";
paths = (
{
closed = 1;
nodes = (
"387 -237 OFFCURVE",
"507 -149 OFFCURVE",
"507 -40 CURVE SMOOTH",
"507 9 OFFCURVE",
"490 41 OFFCURVE",
"457 52 CURVE SMOOTH",
"424 63 OFFCURVE",
"333 73 OFFCURVE",
"256 82 CURVE SMOOTH",
"183 91 OFFCURVE",
"161 98 OFFCURVE",
"161 119 CURVE SMOOTH",
"161 127 OFFCURVE",
"172 146 OFFCURVE",
"198 171 CURVE",
"156 186 LINE",
"98 136 OFFCURVE",
"71 105 OFFCURVE",
"71 90 CURVE SMOOTH",
"71 46 OFFCURVE",
"90 17 OFFCURVE",
"134 2 CURVE SMOOTH",
"181 -14 OFFCURVE",
"203 -17 OFFCURVE",
"232 -21 CURVE SMOOTH",
"366 -40 LINE SMOOTH",
"393 -44 OFFCURVE",
"404 -56 OFFCURVE",
"404 -81 CURVE SMOOTH",
"404 -133 OFFCURVE",
"351 -168 OFFCURVE",
"275 -168 CURVE SMOOTH",
"181 -168 OFFCURVE",
"135 -138 OFFCURVE",
"135 -76 CURVE SMOOTH",
"135 -57 OFFCURVE",
"145 -35 OFFCURVE",
"182 5 CURVE",
"136 18 LINE",
"73 -23 OFFCURVE",
"26 -68 OFFCURVE",
"26 -90 CURVE SMOOTH",
"26 -186 OFFCURVE",
"99 -237 OFFCURVE",
"239 -237 CURVE SMOOTH"
);
},
{
closed = 1;
nodes = (
"72 -129 LINE",
"94 -119 LINE",
"416 -119 LINE",
"440 -129 LINE",
"570 -129 LINE",
"580 -65 LINE",
"458 -65 LINE",
"431 -75 LINE",
"98 -75 LINE",
"70 -65 LINE",
"-32 -65 LINE",
"-32 -129 LINE"
);
},
{
closed = 1;
nodes = (
"379 147 OFFCURVE",
"465 220 OFFCURVE",
"465 330 CURVE SMOOTH",
"465 442 OFFCURVE",
"376 509 OFFCURVE",
"254 509 CURVE SMOOTH",
"125 509 OFFCURVE",
"39 436 OFFCURVE",
"39 326 CURVE SMOOTH",
"39 212 OFFCURVE",
"131 147 OFFCURVE",
"250 147 CURVE SMOOTH"
);
},
{
closed = 1;
nodes = (
"211 213 OFFCURVE",
"191 249 OFFCURVE",
"191 324 CURVE SMOOTH",
"191 405 OFFCURVE",
"212 443 OFFCURVE",
"254 443 CURVE SMOOTH",
"294 443 OFFCURVE",
"313 407 OFFCURVE",
"313 332 CURVE SMOOTH",
"313 251 OFFCURVE",
"293 213 OFFCURVE",
"251 213 CURVE SMOOTH"
);
},
{
closed = 1;
nodes = (
"494 504 LINE",
"347 479 LINE",
"423 418 LINE",
"498 418 LINE"
);
}
);
width = 541;
},
{
anchors = (
{
name = top;
position = "{246, 493}";
}
);
layerId = "4E6502B1-B066-4D3E-9BD1-B1D9901B4F4F";
paths = (
{
closed = 1;
nodes = (
"362 -235 OFFCURVE",
"475 -149 OFFCURVE",
"475 -44 CURVE SMOOTH",
"475 4 OFFCURVE",
"459 33 OFFCURVE",
"431 42 CURVE SMOOTH",
"397 53 OFFCURVE",
"318 62 OFFCURVE",
"237 72 CURVE SMOOTH",
"163 81 OFFCURVE",
"145 87 OFFCURVE",
"145 107 CURVE SMOOTH",
"145 114 OFFCURVE",
"156 133 OFFCURVE",
"184 162 CURVE",
"151 174 LINE",
"93 126 OFFCURVE",
"66 98 OFFCURVE",
"66 83 CURVE SMOOTH",
"66 45 OFFCURVE",
"83 21 OFFCURVE",
"129 8 CURVE SMOOTH",
"168 -4 OFFCURVE",
"187 -7 OFFCURVE",
"223 -12 CURVE SMOOTH",
"353 -29 LINE SMOOTH",
"383 -33 OFFCURVE",
"392 -44 OFFCURVE",
"392 -74 CURVE SMOOTH",
"392 -136 OFFCURVE",
"332 -179 OFFCURVE",
"250 -179 CURVE SMOOTH",
"154 -179 OFFCURVE",
"110 -148 OFFCURVE",
"110 -79 CURVE SMOOTH",
"110 -58 OFFCURVE",
"120 -42 OFFCURVE",
"167 15 CURVE",
"128 20 LINE",
"70 -25 OFFCURVE",
"26 -71 OFFCURVE",
"26 -90 CURVE SMOOTH",
"26 -185 OFFCURVE",
"94 -235 OFFCURVE",
"223 -235 CURVE SMOOTH"
);
},
{
closed = 1;
nodes = (
"58 -119 LINE",
"80 -120 LINE",
"416 -120 LINE",
"435 -119 LINE",
"519 -119 LINE",
"524 -77 LINE",
"445 -77 LINE",
"424 -76 LINE",
"87 -76 LINE",
"60 -77 LINE",
"-24 -77 LINE",
"-24 -119 LINE"
);
},
{
closed = 1;
nodes = (
"355 140 OFFCURVE",
"431 212 OFFCURVE",
"431 321 CURVE SMOOTH",
"431 429 OFFCURVE",
"356 502 OFFCURVE",
"240 502 CURVE SMOOTH",
"125 502 OFFCURVE",
"49 431 OFFCURVE",
"49 322 CURVE SMOOTH",
"49 214 OFFCURVE",
"124 140 OFFCURVE",
"240 140 CURVE SMOOTH"
);
},
{
closed = 1;
nodes = (
"166 190 OFFCURVE",
"129 234 OFFCURVE",
"129 322 CURVE SMOOTH",
"129 408 OFFCURVE",
"167 453 OFFCURVE",
"240 453 CURVE SMOOTH",
"314 453 OFFCURVE",
"350 409 OFFCURVE",
"350 321 CURVE SMOOTH",
"350 233 OFFCURVE",
"314 190 OFFCURVE",
"240 190 CURVE SMOOTH"
);
},
{
closed = 1;
nodes = (
"465 506 LINE",
"317 474 LINE",
"378 444 LINE",
"473 442 LINE"
);
}
);
width = 511.3;
}
);
leftKerningGroup = lc_g;
rightKerningGroup = lc_g;
unicode = 01E5;
},
{
color = 6;
glyphname = h;
layers = (
{
anchors = (
{
name = bottom;
position = "{330, 0}";
},
{
name = center;
position = "{195, 585}";
},
{
name = top;
position = "{199, 756}";
}
);
layerId = "16643525-C5DD-48EC-8E99-463BF28F5E85";
paths = (
{
closed = 1;
nodes = (
"65 -3 OFFCURVE",
"135 0 OFFCURVE",
"145 0 CURVE",
"304 0 LINE",
"309 71 LINE",
"181 83 LINE",
"250 35 LINE",
"245 67 OFFCURVE",
"235 125 OFFCURVE",
"235 193 CURVE SMOOTH",
"235 265 LINE SMOOTH",
"235 355 OFFCURVE",
"284 403 OFFCURVE",
"334 403 CURVE SMOOTH",
"386 403 OFFCURVE",
"408 363 OFFCURVE",
"408 311 CURVE SMOOTH",
"408 163 LINE SMOOTH",
"408 148 OFFCURVE",
"403 67 OFFCURVE",
"399 31 CURVE",
"465 90 LINE",
"347 65 LINE",
"352 -5 LINE",
"395 -3 OFFCURVE",
"457 0 OFFCURVE",
"472 0 CURVE SMOOTH",
"617 0 LINE",
"622 71 LINE",
"494 83 LINE",
"563 36 LINE",
"559 63 OFFCURVE",
"548 125 OFFCURVE",
"548 193 CURVE SMOOTH",
"548 325 LINE SMOOTH",
"548 441 OFFCURVE",
"487 503 OFFCURVE",
"371 503 CURVE SMOOTH",
"296 503 OFFCURVE",
"247 461 OFFCURVE",
"210 398 CURVE",
"235 372 LINE",
"235 557 LINE SMOOTH",
"235 607 OFFCURVE",
"241 694 OFFCURVE",
"245 737 CURVE",
"224 756 LINE",
"136 756 LINE",
"19 761 LINE",
"10 691 LINE",
"146 660 LINE",
"76 735 LINE",
"82 695 OFFCURVE",
"95 617 OFFCURVE",
"95 587 CURVE SMOOTH",
"95 163 LINE SMOOTH",
"95 133 OFFCURVE",
"84 58 OFFCURVE",
"79 29 CURVE",
"148 88 LINE",
"20 65 LINE",
"25 -5 LINE"
);
}
);
width = 643;
},
{
anchors = (
{
name = bottom;
position = "{298, 0}";
},
{
name = center;
position = "{180, 610}";
},
{
name = top;
position = "{162, 719}";
}
);
layerId = "4E6502B1-B066-4D3E-9BD1-B1D9901B4F4F";
paths = (
{
closed = 1;
nodes = (
"63 -3 OFFCURVE",
"115 0 OFFCURVE",
"136 0 CURVE",
"263 0 LINE",
"270 52 LINE",
"157 62 LINE",
"194 25 LINE",
"190 49 OFFCURVE",
"185 112 OFFCURVE",
"185 164 CURVE SMOOTH",
"185 275 LINE SMOOTH",
"186 374 OFFCURVE",
"234 446 OFFCURVE",
"315 446 CURVE SMOOTH",
"403 446 OFFCURVE",
"421 360 OFFCURVE",
"421 273 CURVE SMOOTH",
"421 134 LINE SMOOTH",
"421 100 OFFCURVE",
"412 64 OFFCURVE",
"406 44 CURVE",
"443 67 LINE",
"343 43 LINE",
"348 -5 LINE",
"382 -3 OFFCURVE",
"433 0 OFFCURVE",
"448 0 CURVE",
"576 0 LINE",
"583 52 LINE",
"470 62 LINE",
"506 35 LINE",
"502 61 OFFCURVE",
"496 115 OFFCURVE",
"496 164 CURVE SMOOTH",
"496 271 LINE SMOOTH",
"496 411 OFFCURVE",
"468 503 OFFCURVE",
"328 503 CURVE SMOOTH",
"250 503 OFFCURVE",
"199 456 OFFCURVE",
"176 411 CURVE",
"185 393 LINE",
"185 588 LINE SMOOTH",
"185 635 OFFCURVE",
"188 708 OFFCURVE",
"191 738 CURVE",
"172 756 LINE",
"117 756 LINE",
"28 759 LINE",
"23 709 LINE",
"133 685 LINE",
"94 731 LINE",
"99 701 OFFCURVE",
"109 643 OFFCURVE",
"109 618 CURVE SMOOTH",
"109 134 LINE SMOOTH",
"109 109 OFFCURVE",
"96 44 OFFCURVE",
"93 29 CURVE",
"133 66 LINE",
"21 43 LINE",
"26 -5 LINE"
);
}
);
width = 605;
}
);
leftKerningGroup = lc_LongStem;
rightKerningGroup = lc_Shoulder;
unicode = 0068;
},
{
color = 6;
glyphname = idotless;
layers = (
{
anchors = (
{
name = bottom;
position = "{156, 0}";
},
{
name = ogonek;
position = "{177, 0}";
},
{
name = top;
position = "{162, 494}";
}
);
layerId = "16643525-C5DD-48EC-8E99-463BF28F5E85";
paths = (
{
closed = 1;
nodes = (
"89 -3 OFFCURVE",
"159 0 OFFCURVE",
"169 0 CURVE",
"328 0 LINE",
"333 71 LINE",
"205 83 LINE",
"274 35 LINE",
"269 67 OFFCURVE",
"259 125 OFFCURVE",
"259 193 CURVE SMOOTH",
"259 295 LINE SMOOTH",
"259 345 OFFCURVE",
"265 432 OFFCURVE",
"269 475 CURVE",
"248 494 LINE",
"43 494 LINE",
"34 419 LINE",
"170 398 LINE",
"100 473 LINE",
"106 433 OFFCURVE",
"119 355 OFFCURVE",
"119 325 CURVE SMOOTH",
"119 163 LINE SMOOTH",
"119 133 OFFCURVE",
"108 58 OFFCURVE",
"103 29 CURVE",
"172 88 LINE",
"44 65 LINE",
"49 -5 LINE"
);
}
);
width = 355;
},
{
anchors = (
{
name = bottom;
position = "{146, 0}";
},
{
name = ogonek;
position = "{173, 0}";
},
{
name = top;
position = "{133, 494}";
}
);
layerId = "4E6502B1-B066-4D3E-9BD1-B1D9901B4F4F";
paths = (
{
closed = 1;
nodes = (
"77 -3 OFFCURVE",
"129 0 OFFCURVE",
"150 0 CURVE",
"277 0 LINE",
"284 52 LINE",
"171 62 LINE",
"208 25 LINE",
"204 49 OFFCURVE",
"199 112 OFFCURVE",
"199 164 CURVE SMOOTH",
"199 326 LINE SMOOTH",
"199 373 OFFCURVE",
"202 446 OFFCURVE",
"205 476 CURVE",
"186 494 LINE",
"42 494 LINE",
"37 442 LINE",
"147 423 LINE",
"108 469 LINE",
"113 439 OFFCURVE",
"123 381 OFFCURVE",
"123 356 CURVE SMOOTH",
"123 134 LINE SMOOTH",
"123 109 OFFCURVE",
"110 44 OFFCURVE",
"107 29 CURVE",
"147 66 LINE",
"35 43 LINE",
"40 -5 LINE"
);
}
);
width = 305.5;
}
);
leftKerningGroup = lc_ShortStem;
rightKerningGroup = lc_ShortStem;
unicode = 0131;
},
{
color = 6;
glyphname = idotaccent;
layers = (
{
layerId = "16643525-C5DD-48EC-8E99-463BF28F5E85";
paths = (
{
closed = 1;
nodes = (
"71 -3 OFFCURVE",
"114 0 OFFCURVE",
"148 0 CURVE SMOOTH",
"230 0 OFFCURVE",
"299 -3 OFFCURVE",
"327 -5 CURVE",
"332 71 LINE",
"267 77 LINE",
"263 105 OFFCURVE",
"258 157 OFFCURVE",
"258 193 CURVE SMOOTH",
"258 295 LINE SMOOTH",
"258 332 OFFCURVE",
"264 420 OFFCURVE",
"268 477 CURVE",
"247 496 LINE",
"159 494 LINE SMOOTH",
"128 494 OFFCURVE",
"74 499 OFFCURVE",
"42 503 CURVE",
"33 429 LINE",
"108 412 LINE",
"112 383 OFFCURVE",
"118 340 OFFCURVE",
"118 325 CURVE SMOOTH",
"118 163 LINE SMOOTH",
"118 148 OFFCURVE",
"113 105 OFFCURVE",
"109 77 CURVE",
"43 65 LINE",
"48 -5 LINE"
);
},
{
closed = 1;
nodes = (
"236 576 OFFCURVE",
"264 608 OFFCURVE",
"264 655 CURVE SMOOTH",
"264 705 OFFCURVE",
"234 735 OFFCURVE",
"185 735 CURVE SMOOTH",
"134 735 OFFCURVE",
"106 702 OFFCURVE",
"106 655 CURVE SMOOTH",
"106 608 OFFCURVE",
"134 576 OFFCURVE",
"185 576 CURVE SMOOTH"
);
}
);
width = 355;
},
{
layerId = "4E6502B1-B066-4D3E-9BD1-B1D9901B4F4F";
paths = (
{
closed = 1;
nodes = (
"81 -3 OFFCURVE",
"140 0 OFFCURVE",
"152 0 CURVE SMOOTH",
"208 0 OFFCURVE",
"256 -3 OFFCURVE",
"276 -5 CURVE",
"284 52 LINE",
"204 59 LINE",
"201 83 OFFCURVE",
"198 128 OFFCURVE",
"198 164 CURVE SMOOTH",
"198 326 LINE SMOOTH",
"198 363 OFFCURVE",
"201 433 OFFCURVE",
"204 476 CURVE",
"185 494 LINE",
"130 494 LINE SMOOTH",
"118 494 OFFCURVE",
"72 496 OFFCURVE",
"41 498 CURVE",
"36 447 LINE",
"112 431 LINE",
"116 407 OFFCURVE",
"122 371 OFFCURVE",
"122 356 CURVE SMOOTH",
"122 134 LINE SMOOTH",
"122 119 OFFCURVE",
"116 83 OFFCURVE",
"112 59 CURVE",
"35 43 LINE",
"40 -5 LINE"
);
},
{
closed = 1;
nodes = (
"192 593 OFFCURVE",
"212 618 OFFCURVE",
"212 655 CURVE SMOOTH",
"212 695 OFFCURVE",
"191 719 OFFCURVE",
"155 719 CURVE SMOOTH",
"119 719 OFFCURVE",
"98 692 OFFCURVE",
"98 655 CURVE SMOOTH",
"98 618 OFFCURVE",
"119 593 OFFCURVE",
"155 593 CURVE SMOOTH"
);
}
);
width = 305.5;
}
);
leftKerningGroup = lc_ShortStem;
rightKerningGroup = lc_ShortStem;
},
{
color = 6;
glyphname = ijdotless;
layers = (
{
layerId = "16643525-C5DD-48EC-8E99-463BF28F5E85";
paths = (
{
closed = 1;
nodes = (
"362 -4 OFFCURVE",
"410 45 OFFCURVE",
"451 117 CURVE",
"416 234 LINE",
"416 144 OFFCURVE",
"368 96 OFFCURVE",
"318 96 CURVE SMOOTH",
"266 96 OFFCURVE",
"245 136 OFFCURVE",
"245 188 CURVE SMOOTH",
"245 295 LINE SMOOTH",
"245 332 OFFCURVE",
"251 419 OFFCURVE",
"255 475 CURVE",
"234 494 LINE",
"29 494 LINE",
"20 419 LINE",
"156 399 LINE",
"89 462 LINE",
"95 416 OFFCURVE",
"105 351 OFFCURVE",
"105 325 CURVE SMOOTH",
"105 174 LINE SMOOTH",
"105 58 OFFCURVE",
"165 -4 OFFCURVE",
"281 -4 CURVE SMOOTH"
);
},
{
closed = 1;
nodes = (
"460 -155 OFFCURVE",
"556 -39 OFFCURVE",
"556 -10 CURVE SMOOTH",
"556 295 LINE SMOOTH",
"556 345 OFFCURVE",
"562 432 OFFCURVE",
"566 475 CURVE",
"545 494 LINE",
"340 494 LINE",
"331 419 LINE",
"467 398 LINE",
"397 473 LINE",
"403 433 OFFCURVE",
"416 355 OFFCURVE",
"416 325 CURVE SMOOTH",
"416 117 LINE SMOOTH",
"416 81 OFFCURVE",
"416 41 OFFCURVE",
"416 21 CURVE",
"416 -8 OFFCURVE",
"373 -127 OFFCURVE",
"341 -209 CURVE",
"388 -235 LINE"
);
}
);
width = 634;
},
{
layerId = "4E6502B1-B066-4D3E-9BD1-B1D9901B4F4F";
paths = (
{
closed = 1;
nodes = (
"376 -11 OFFCURVE",
"417 62 OFFCURVE",
"429 87 CURVE",
"414 208 LINE",
"414 129 OFFCURVE",
"370 50 OFFCURVE",
"285 50 CURVE SMOOTH",
"209 50 OFFCURVE",
"183 106 OFFCURVE",
"183 183 CURVE SMOOTH",
"183 326 LINE SMOOTH",
"183 363 OFFCURVE",
"187 433 OFFCURVE",
"190 476 CURVE",
"171 494 LINE",
"27 494 LINE",
"22 442 LINE",
"131 422 LINE",
"95 459 LINE",
"101 425 OFFCURVE",
"108 373 OFFCURVE",
"108 356 CURVE SMOOTH",
"108 221 LINE SMOOTH",
"108 84 OFFCURVE",
"129 -11 OFFCURVE",
"269 -11 CURVE SMOOTH"
);
},
{
closed = 1;
nodes = (
"423 -155 OFFCURVE",
"489 -39 OFFCURVE",
"489 -10 CURVE SMOOTH",
"489 326 LINE SMOOTH",
"489 373 OFFCURVE",
"493 446 OFFCURVE",
"496 476 CURVE",
"477 494 LINE",
"332 494 LINE",
"328 442 LINE",
"437 423 LINE",
"398 469 LINE",
"403 439 OFFCURVE",
"414 381 OFFCURVE",
"414 356 CURVE SMOOTH",
"414 117 LINE SMOOTH",
"414 81 OFFCURVE",
"414 41 OFFCURVE",
"414 21 CURVE",
"414 -8 OFFCURVE",
"371 -131 OFFCURVE",
"338 -215 CURVE",
"373 -235 LINE"
);
}
);
width = 570.2;
}
);
leftKerningGroup = lc_u;
rightKerningGroup = lc_j;
script = latin;
category = Letter;
subCategory = Lowercase;
},
{
color = 3;
glyphname = iogonek;
layers = (
{
components = (
{
name = dotaccentcomb;
transform = "{1, 0, 0, 1, 71, 20}";
},
{
name = ogonekcomb;
transform = "{1, 0, 0, 1, -22, 0}";
}
);
layerId = "16643525-C5DD-48EC-8E99-463BF28F5E85";
paths = (
{
closed = 1;
nodes = (
"347 0 LINE",
"352 71 LINE",
"224 83 LINE",
"293 35 LINE",
"288 67 OFFCURVE",
"278 125 OFFCURVE",
"278 193 CURVE SMOOTH",
"278 295 LINE SMOOTH",
"278 345 OFFCURVE",
"284 432 OFFCURVE",
"288 475 CURVE",
"267 494 LINE",
"179 494 LINE",
"150 494 OFFCURVE",
"101 499 OFFCURVE",
"62 503 CURVE",
"53 429 LINE",
"189 398 LINE",
"119 473 LINE",
"125 433 OFFCURVE",
"138 355 OFFCURVE",
"138 325 CURVE SMOOTH",
"138 163 LINE SMOOTH",
"138 133 OFFCURVE",
"123 29 OFFCURVE",
"118 0 CURVE"
);
}
);
width = 374;
},
{
components = (
{
alignment = -1;
name = dotaccentcomb;
transform = "{1, 0, 0, 1, 41, 31}";
},
{
alignment = -1;
name = ogonekcomb;
transform = "{1, 0, 0, 1, -28, 0}";
}
);
layerId = "4E6502B1-B066-4D3E-9BD1-B1D9901B4F4F";
paths = (
{
closed = 1;
nodes = (
"282 0 LINE",
"288 52 LINE",
"176 62 LINE",
"211 24 LINE",
"207 73 OFFCURVE",
"202 142 OFFCURVE",
"202 164 CURVE SMOOTH",
"202 326 LINE SMOOTH",
"202 376 OFFCURVE",
"209 480 OFFCURVE",
"209 476 CURVE",
"190 494 LINE",
"135 494 LINE SMOOTH",
"126 494 OFFCURVE",
"76 496 OFFCURVE",
"46 498 CURVE",
"41 447 LINE",
"151 423 LINE",
"112 464 LINE",
"118 428 OFFCURVE",
"127 372 OFFCURVE",
"127 356 CURVE SMOOTH",
"127 134 LINE SMOOTH",
"127 115 OFFCURVE",
"115 48 OFFCURVE",
"108 1 CURVE"
);
}
);
width = 311.3;
}
);
leftKerningGroup = lc_ShortStem;
rightKerningGroup = lc_ShortStem;
unicode = 012F;
},
{
color = 6;
glyphname = jdotless;
layers = (
{
anchors = (
{
name = top;
position = "{155, 494}";
}
);
layerId = "16643525-C5DD-48EC-8E99-463BF28F5E85";
paths = (
{
closed = 1;
nodes = (
"149 -155 OFFCURVE",
"245 -39 OFFCURVE",
"245 -10 CURVE SMOOTH",
"245 295 LINE SMOOTH",
"245 345 OFFCURVE",
"251 432 OFFCURVE",
"255 475 CURVE",
"234 494 LINE",
"29 494 LINE",
"20 419 LINE",
"156 398 LINE",
"86 473 LINE",
"92 433 OFFCURVE",
"105 355 OFFCURVE",
"105 325 CURVE SMOOTH",
"105 117 LINE SMOOTH",
"105 81 OFFCURVE",
"105 41 OFFCURVE",
"105 21 CURVE SMOOTH",
"105 -8 OFFCURVE",
"62 -127 OFFCURVE",
"30 -209 CURVE",
"77 -235 LINE"
);
}
);
width = 323;
},
{
anchors = (
{
name = top;
position = "{118, 494}";
}
);
layerId = "4E6502B1-B066-4D3E-9BD1-B1D9901B4F4F";
paths = (
{
closed = 1;
nodes = (
"117 -155 OFFCURVE",
"183 -39 OFFCURVE",
"183 -10 CURVE SMOOTH",
"183 326 LINE SMOOTH",
"183 373 OFFCURVE",
"187 446 OFFCURVE",
"190 476 CURVE",
"171 494 LINE",
"27 494 LINE",
"22 442 LINE",
"132 423 LINE",
"93 469 LINE",
"98 439 OFFCURVE",
"108 381 OFFCURVE",
"108 356 CURVE SMOOTH",
"108 117 LINE SMOOTH",
"108 81 OFFCURVE",
"108 41 OFFCURVE",
"108 21 CURVE SMOOTH",
"108 -8 OFFCURVE",
"65 -131 OFFCURVE",
"32 -215 CURVE",
"67 -235 LINE"
);
}
);
width = 264.7;
}
);
leftKerningGroup = lc_j;
rightKerningGroup = lc_j;
unicode = 0237;
},
{
color = 6;
glyphname = k;
layers = (
{
anchors = (
{
name = bottom;
position = "{320, 0}";
},
{
name = top;
position = "{320, 756}";
}
);
layerId = "16643525-C5DD-48EC-8E99-463BF28F5E85";
paths = (
{
closed = 1;
nodes = (
"65 -3 OFFCURVE",
"135 0 OFFCURVE",
"145 0 CURVE",
"304 0 LINE",
"309 71 LINE",
"181 83 LINE",
"250 35 LINE",
"245 67 OFFCURVE",
"235 125 OFFCURVE",
"235 193 CURVE SMOOTH",
"235 557 LINE SMOOTH",
"235 607 OFFCURVE",
"241 694 OFFCURVE",
"245 737 CURVE",
"224 756 LINE",
"136 756 LINE",
"19 761 LINE",
"10 691 LINE",
"146 660 LINE",
"76 735 LINE",
"82 695 OFFCURVE",
"95 617 OFFCURVE",
"95 587 CURVE SMOOTH",
"95 163 LINE SMOOTH",
"95 133 OFFCURVE",
"84 58 OFFCURVE",
"79 29 CURVE",
"148 88 LINE",
"20 65 LINE",
"25 -5 LINE"
);
},
{
closed = 1;
nodes = (
"423 0 OFFCURVE",
"455 0 OFFCURVE",
"488 0 CURVE",
"601 0 LINE",
"607 71 LINE",
"484 83 LINE",
"577 46 LINE",
"548 76 OFFCURVE",
"478 147 OFFCURVE",
"468 162 CURVE SMOOTH",
"359 333 LINE",
"354 230 LINE",
"460 366 LINE SMOOTH",
"478 390 OFFCURVE",
"541 424 OFFCURVE",
"575 443 CURVE",
"479 417 LINE",
"595 428 LINE",
"597 494 LINE",
"481 494 LINE",
"451 494 OFFCURVE",
"375 494 OFFCURVE",
"322 494 CURVE",
"317 419 LINE",
"434 415 LINE",
"410 471 LINE",
"246 265 LINE",
"335 110 LINE",
"357 68 LINE",
"361 60 LINE",
"361 0 LINE"
);
}
);
width = 642;
},
{
anchors = (
{
name = bottom;
position = "{301, 0}";
},
{
name = top;
position = "{301, 756}";
}
);
layerId = "4E6502B1-B066-4D3E-9BD1-B1D9901B4F4F";
paths = (
{
closed = 1;
nodes = (
"63 -3 OFFCURVE",
"115 0 OFFCURVE",
"136 0 CURVE",
"263 0 LINE",
"270 52 LINE",
"157 62 LINE",
"194 25 LINE",
"190 49 OFFCURVE",
"185 112 OFFCURVE",
"185 164 CURVE SMOOTH",
"185 588 LINE SMOOTH",
"185 635 OFFCURVE",
"188 708 OFFCURVE",
"191 738 CURVE",
"172 756 LINE",
"117 756 LINE",
"28 759 LINE",
"23 709 LINE",
"133 685 LINE",
"94 731 LINE",
"99 701 OFFCURVE",
"109 643 OFFCURVE",
"109 618 CURVE SMOOTH",
"109 134 LINE SMOOTH",
"109 109 OFFCURVE",
"96 44 OFFCURVE",
"93 29 CURVE",
"133 66 LINE",
"21 43 LINE",
"26 -5 LINE"
);
},
{
closed = 1;
nodes = (
"370 -3 OFFCURVE",
"420 0 OFFCURVE",
"439 0 CURVE SMOOTH",
"570 0 LINE",
"576 52 LINE",
"480 61 LINE",
"534 44 LINE",
"498 68 OFFCURVE",
"436 111 OFFCURVE",
"422 126 CURVE SMOOTH",
"255 303 LINE",
"255 254 LINE",
"361 366 LINE SMOOTH",
"384 389 OFFCURVE",
"449 428 OFFCURVE",
"478 442 CURVE",
"429 430 LINE",
"539 442 LINE",
"536 494 LINE",
"407 494 LINE",
"388 494 OFFCURVE",
"354 494 OFFCURVE",
"328 494 CURVE",
"323 442 LINE",
"398 432 LINE",
"388 462 LINE",
"196 265 LINE",
"343 116 LINE",
"397 58 LINE",
"334 47 LINE",
"339 -6 LINE"
);
}
);
width = 603;
}
);
leftKerningGroup = lc_LongStem;
rightKerningGroup = lc_k;
unicode = 006B;
},
{
color = 6;
glyphname = kgreenlandic;
layers = (
{
anchors = (
{
name = bottom;
position = "{324, 0}";
},
{
name = top;
position = "{324, 494}";
}
);
layerId = "16643525-C5DD-48EC-8E99-463BF28F5E85";
paths = (
{
closed = 1;
nodes = (
"420 0 OFFCURVE",
"478 0 OFFCURVE",
"513 0 CURVE",
"618 0 LINE",
"620 60 LINE",
"536 71 LINE",
"607 52 LINE",
"596 62 OFFCURVE",
"576 77 OFFCURVE",
"564 90 CURVE",
"393 285 LINE",
"380 211 LINE",
"509 383 LINE",
"527 402 OFFCURVE",
"552 425 OFFCURVE",
"580 450 CURVE",
"495 420 LINE",
"588 428 LINE",
"584 499 LINE",
"539 497 OFFCURVE",
"497 495 OFFCURVE",
"449 495 CURVE SMOOTH",
"424 495 OFFCURVE",
"400 497 OFFCURVE",
"376 499 CURVE",
"372 433 LINE",
"443 421 LINE",
"417 484 LINE",
"366 406 LINE SMOOTH",
"260 244 LINE",
"362 116 LINE",
"376 99 OFFCURVE",
"404 55 OFFCURVE",
"411 45 CURVE",
"424 65 LINE",
"382 57 LINE",
"386 0 LINE"
);
},
{
closed = 1;
nodes = (
"88 -3 OFFCURVE",
"158 0 OFFCURVE",
"168 0 CURVE",
"297 0 LINE",
"302 71 LINE",
"204 83 LINE",
"273 35 LINE",
"268 67 OFFCURVE",
"258 125 OFFCURVE",
"258 193 CURVE SMOOTH",
"258 295 LINE SMOOTH",
"258 345 OFFCURVE",
"264 432 OFFCURVE",
"268 475 CURVE",
"247 494 LINE",
"159 494 LINE",
"130 494 OFFCURVE",
"81 499 OFFCURVE",
"42 503 CURVE",
"33 429 LINE",
"169 398 LINE",
"99 473 LINE",
"105 433 OFFCURVE",
"118 355 OFFCURVE",
"118 325 CURVE SMOOTH",
"118 163 LINE SMOOTH",
"118 133 OFFCURVE",
"107 58 OFFCURVE",
"102 29 CURVE",
"171 88 LINE",
"43 65 LINE",
"48 -5 LINE"
);
}
);
width = 647;
},
{
anchors = (
{
name = bottom;
position = "{288, 0}";
},
{
name = top;
position = "{288, 494}";
}
);
layerId = "4E6502B1-B066-4D3E-9BD1-B1D9901B4F4F";
paths = (
{
closed = 1;
nodes = (
"371 0 OFFCURVE",
"426 0 OFFCURVE",
"444 0 CURVE",
"542 0 LINE",
"547 44 LINE",
"468 52 LINE",
"526 29 LINE",
"512 40 OFFCURVE",
"464 76 OFFCURVE",
"450 90 CURVE",
"276 278 LINE",
"274 231 LINE",
"392 382 LINE",
"440 427 OFFCURVE",
"452 435 OFFCURVE",
"473 454 CURVE",
"428 440 LINE",
"512 447 LINE",
"509 497 LINE",
"473 495 OFFCURVE",
"433 493 OFFCURVE",
"400 493 CURVE SMOOTH",
"377 493 OFFCURVE",
"353 495 OFFCURVE",
"329 497 CURVE",
"326 451 LINE",
"392 439 LINE",
"375 475 LINE",
"333 404 LINE",
"204 246 LINE",
"322 115 LINE",
"340 92 OFFCURVE",
"378 36 OFFCURVE",
"384 27 CURVE",
"403 53 LINE",
"333 38 LINE",
"335 0 LINE"
);
},
{
closed = 1;
nodes = (
"76 -3 OFFCURVE",
"128 0 OFFCURVE",
"149 0 CURVE",
"257 0 LINE",
"264 52 LINE",
"170 62 LINE",
"207 25 LINE",
"203 49 OFFCURVE",
"198 112 OFFCURVE",
"198 164 CURVE SMOOTH",
"198 326 LINE SMOOTH",
"198 373 OFFCURVE",
"201 446 OFFCURVE",
"204 476 CURVE",
"185 494 LINE",
"130 494 LINE",
"121 494 OFFCURVE",
"71 496 OFFCURVE",
"41 498 CURVE",
"36 447 LINE",
"146 423 LINE",
"107 469 LINE",
"112 439 OFFCURVE",
"122 381 OFFCURVE",
"122 356 CURVE SMOOTH",
"122 134 LINE SMOOTH",
"122 109 OFFCURVE",
"109 44 OFFCURVE",
"106 29 CURVE",
"146 66 LINE",
"34 43 LINE",
"39 -5 LINE"
);
}
);
width = 574.4;
}
);
leftKerningGroup = lc_LongStem;
rightKerningGroup = lc_k;
unicode = 0138;
},
{
color = 6;
glyphname = l;
layers = (
{
anchors = (
{
name = bottom;
position = "{163, 0}";
},
{
name = center;
position = "{139, 382}";
},
{
name = centerright;
position = "{374, 410}";
},
{
name = top;
position = "{136, 756}";
},
{
name = topright;
position = "{345, 494}";
}
);
background = {
paths = (
{
closed = 1;
nodes = (
"65 -3 OFFCURVE",
"135 0 OFFCURVE",
"145 0 CURVE SMOOTH",
"304 0 LINE",
"309 71 LINE",
"181 83 LINE",
"250 35 LINE",
"245 67 OFFCURVE",
"235 125 OFFCURVE",
"235 193 CURVE SMOOTH",
"235 557 LINE SMOOTH",
"235 607 OFFCURVE",
"241 694 OFFCURVE",
"245 737 CURVE",
"224 756 LINE",
"136 756 LINE SMOOTH",
"106 756 OFFCURVE",
"58 761 OFFCURVE",
"19 766 CURVE",
"10 691 LINE",
"146 660 LINE",
"76 735 LINE",
"82 695 OFFCURVE",
"95 617 OFFCURVE",
"95 587 CURVE SMOOTH",
"95 163 LINE SMOOTH",
"95 133 OFFCURVE",
"84 58 OFFCURVE",
"79 29 CURVE",
"148 88 LINE",
"20 65 LINE",
"25 -5 LINE"
);
}
);
};
layerId = "16643525-C5DD-48EC-8E99-463BF28F5E85";
paths = (
{
closed = 1;
nodes = (
"65 -3 OFFCURVE",
"135 0 OFFCURVE",
"145 0 CURVE SMOOTH",
"304 0 LINE",
"309 71 LINE",
"181 83 LINE",
"250 35 LINE",
"245 67 OFFCURVE",
"235 125 OFFCURVE",
"235 193 CURVE SMOOTH",
"235 557 LINE SMOOTH",
"235 607 OFFCURVE",
"241 694 OFFCURVE",
"245 737 CURVE",
"224 756 LINE",
"136 756 LINE",
"19 761 LINE",
"10 691 LINE",
"146 660 LINE",
"76 735 LINE",
"82 695 OFFCURVE",
"95 617 OFFCURVE",
"95 587 CURVE SMOOTH",
"95 163 LINE SMOOTH",
"95 133 OFFCURVE",
"84 58 OFFCURVE",
"79 29 CURVE",
"148 88 LINE",
"20 65 LINE",
"25 -5 LINE"
);
}
);
width = 330;
},
{
anchors = (
{
name = bottom;
position = "{148, 0}";
},
{
name = center;
position = "{153, 382}";
},
{
name = centerright;
position = "{364, 410}";
},
{
name = top;
position = "{133, 756}";
},
{
name = topright;
position = "{284, 494}";
}
);
layerId = "4E6502B1-B066-4D3E-9BD1-B1D9901B4F4F";
paths = (
{
closed = 1;
nodes = (
"63 -3 OFFCURVE",
"115 0 OFFCURVE",
"136 0 CURVE SMOOTH",
"263 0 LINE",
"270 52 LINE",
"157 62 LINE",
"194 25 LINE",
"190 49 OFFCURVE",
"185 111 OFFCURVE",
"185 164 CURVE SMOOTH",
"185 588 LINE SMOOTH",
"185 635 OFFCURVE",
"188 708 OFFCURVE",
"191 738 CURVE",
"172 756 LINE",
"117 756 LINE",
"28 759 LINE",
"23 709 LINE",
"133 685 LINE",
"94 731 LINE",
"99 701 OFFCURVE",
"109 643 OFFCURVE",
"109 618 CURVE SMOOTH",
"109 134 LINE SMOOTH",
"109 109 OFFCURVE",
"96 44 OFFCURVE",
"93 29 CURVE",
"133 66 LINE",
"21 43 LINE",
"26 -5 LINE"
);
}
);
width = 292;
}
);
leftKerningGroup = lc_LongStem;
rightKerningGroup = lc_LongStem;
unicode = 006C;
},
{
color = 6;
glyphname = m;
layers = (
{
anchors = (
{
name = bottom;
position = "{474, 0}";
},
{
name = top;
position = "{474, 494}";
}
);
layerId = "16643525-C5DD-48EC-8E99-463BF28F5E85";
paths = (
{
closed = 1;
nodes = (
"697 -3 OFFCURVE",
"767 0 OFFCURVE",
"777 0 CURVE",
"922 0 LINE",
"927 71 LINE",
"799 83 LINE",
"865 47 LINE",
"863 61 OFFCURVE",
"853 143 OFFCURVE",
"853 193 CURVE SMOOTH",
"853 331 LINE SMOOTH",
"853 447 OFFCURVE",
"798 509 OFFCURVE",
"694 509 CURVE SMOOTH",
"605 509 OFFCURVE",
"552 450 OFFCURVE",
"510 368 CURVE",
"556 271 LINE",
"556 361 OFFCURVE",
"601 409 OFFCURVE",
"647 409 CURVE SMOOTH",
"694 409 OFFCURVE",
"713 369 OFFCURVE",
"713 317 CURVE SMOOTH",
"713 163 LINE SMOOTH",
"713 153 OFFCURVE",
"709 83 OFFCURVE",
"706 47 CURVE",
"770 90 LINE",
"652 65 LINE",
"657 -5 LINE"
);
},
{
closed = 1;
nodes = (
"89 -3 OFFCURVE",
"159 0 OFFCURVE",
"169 0 CURVE",
"328 0 LINE",
"333 71 LINE",
"205 83 LINE",
"274 35 LINE",
"269 67 OFFCURVE",
"259 125 OFFCURVE",
"259 193 CURVE SMOOTH",
"259 265 LINE",
"229 475 LINE",
"208 494 LINE",
"43 494 LINE",
"34 419 LINE",
"170 398 LINE",
"101 463 LINE",
"105 438 OFFCURVE",
"119 355 OFFCURVE",
"119 325 CURVE SMOOTH",
"119 163 LINE",
"119 133 OFFCURVE",
"108 58 OFFCURVE",
"103 29 CURVE",
"172 88 LINE",
"44 65 LINE",
"49 -5 LINE"
);
},
{
closed = 1;
nodes = (
"400 -3 OFFCURVE",
"470 0 OFFCURVE",
"480 0 CURVE",
"625 0 LINE",
"630 71 LINE",
"502 83 LINE",
"568 47 LINE",
"566 61 OFFCURVE",
"556 143 OFFCURVE",
"556 193 CURVE SMOOTH",
"556 331 LINE SMOOTH",
"556 447 OFFCURVE",
"501 509 OFFCURVE",
"397 509 CURVE SMOOTH",
"308 509 OFFCURVE",
"255 444 OFFCURVE",
"213 362 CURVE",
"259 265 LINE",
"259 355 OFFCURVE",
"304 409 OFFCURVE",
"350 409 CURVE SMOOTH",
"397 409 OFFCURVE",
"416 369 OFFCURVE",
"416 317 CURVE SMOOTH",
"416 163 LINE SMOOTH",
"416 153 OFFCURVE",
"412 83 OFFCURVE",
"409 47 CURVE",
"473 90 LINE",
"355 65 LINE",
"360 -5 LINE"
);
}
);
width = 948;
},
{
anchors = (
{
name = bottom;
position = "{450, 0}";
},
{
name = top;
position = "{450, 494}";
}
);
layerId = "4E6502B1-B066-4D3E-9BD1-B1D9901B4F4F";
paths = (
{
closed = 1;
nodes = (
"675 -3 OFFCURVE",
"732 0 OFFCURVE",
"742 0 CURVE",
"870 0 LINE",
"876 52 LINE",
"764 62 LINE",
"800 40 LINE",
"797 57 OFFCURVE",
"790 114 OFFCURVE",
"790 164 CURVE SMOOTH",
"790 271 LINE SMOOTH",
"790 411 OFFCURVE",
"765 502 OFFCURVE",
"636 502 CURVE SMOOTH",
"562 502 OFFCURVE",
"493 457 OFFCURVE",
"469 369 CURVE",
"494 274 LINE",
"496 373 OFFCURVE",
"544 445 OFFCURVE",
"622 445 CURVE SMOOTH",
"700 445 OFFCURVE",
"715 359 OFFCURVE",
"715 272 CURVE SMOOTH",
"715 134 LINE SMOOTH",
"715 108 OFFCURVE",
"706 56 OFFCURVE",
"701 35 CURVE",
"737 67 LINE",
"637 43 LINE",
"642 -5 LINE"
);
},
{
closed = 1;
nodes = (
"77 -3 OFFCURVE",
"129 0 OFFCURVE",
"150 0 CURVE",
"277 0 LINE",
"284 52 LINE",
"171 62 LINE",
"208 25 LINE",
"204 49 OFFCURVE",
"199 112 OFFCURVE",
"199 164 CURVE SMOOTH",
"199 329 LINE",
"185 476 LINE",
"166 494 LINE",
"42 494 LINE",
"37 442 LINE",
"147 423 LINE",
"107 469 LINE",
"111 448 OFFCURVE",
"123 381 OFFCURVE",
"123 356 CURVE SMOOTH",
"123 134 LINE",
"123 109 OFFCURVE",
"110 44 OFFCURVE",
"107 29 CURVE",
"147 66 LINE",
"35 43 LINE",
"40 -5 LINE"
);
},
{
closed = 1;
nodes = (
"379 -3 OFFCURVE",
"436 0 OFFCURVE",
"446 0 CURVE",
"574 0 LINE",
"581 52 LINE",
"468 62 LINE",
"504 40 LINE",
"501 57 OFFCURVE",
"494 114 OFFCURVE",
"494 164 CURVE SMOOTH",
"494 271 LINE SMOOTH",
"494 411 OFFCURVE",
"469 502 OFFCURVE",
"340 502 CURVE SMOOTH",
"266 502 OFFCURVE",
"197 457 OFFCURVE",
"173 370 CURVE",
"199 275 LINE",
"200 374 OFFCURVE",
"248 445 OFFCURVE",
"326 445 CURVE SMOOTH",
"404 445 OFFCURVE",
"419 359 OFFCURVE",
"419 272 CURVE SMOOTH",
"419 134 LINE SMOOTH",
"419 108 OFFCURVE",
"410 56 OFFCURVE",
"405 35 CURVE",
"441 67 LINE",
"341 43 LINE",
"346 -5 LINE"
);
}
);
width = 898.5;
}
);
leftKerningGroup = lc_ShortStem;
rightKerningGroup = lc_Shoulder;
unicode = 006D;
},
{
color = 6;
glyphname = n;
layers = (
{
anchors = (
{
name = bottom;
position = "{335, 0}";
},
{
name = top;
position = "{341, 494}";
},
{
name = topleft;
position = "{-5, 537}";
}
);
layerId = "16643525-C5DD-48EC-8E99-463BF28F5E85";
paths = (
{
closed = 1;
nodes = (
"89 -3 OFFCURVE",
"159 0 OFFCURVE",
"169 0 CURVE",
"328 0 LINE",
"333 71 LINE",
"205 83 LINE",
"274 35 LINE",
"269 67 OFFCURVE",
"259 125 OFFCURVE",
"259 193 CURVE SMOOTH",
"259 265 LINE SMOOTH",
"259 355 OFFCURVE",
"308 409 OFFCURVE",
"358 409 CURVE SMOOTH",
"410 409 OFFCURVE",
"432 369 OFFCURVE",
"432 317 CURVE SMOOTH",
"432 163 LINE SMOOTH",
"432 148 OFFCURVE",
"427 67 OFFCURVE",
"423 31 CURVE",
"489 90 LINE",
"371 65 LINE",
"376 -5 LINE",
"416 -3 OFFCURVE",
"476 0 OFFCURVE",
"496 0 CURVE",
"641 0 LINE",
"646 71 LINE",
"518 83 LINE",
"587 36 LINE",
"583 63 OFFCURVE",
"572 125 OFFCURVE",
"572 193 CURVE SMOOTH",
"572 331 LINE SMOOTH",
"572 447 OFFCURVE",
"514 509 OFFCURVE",
"405 509 CURVE SMOOTH",
"312 509 OFFCURVE",
"257 444 OFFCURVE",
"213 362 CURVE",
"255 294 LINE",
"229 475 LINE",
"208 494 LINE",
"43 494 LINE",
"34 419 LINE",
"170 398 LINE",
"101 463 LINE",
"105 438 OFFCURVE",
"119 355 OFFCURVE",
"119 325 CURVE SMOOTH",
"119 163 LINE SMOOTH",
"119 133 OFFCURVE",
"108 58 OFFCURVE",
"103 29 CURVE",
"172 88 LINE",
"44 65 LINE",
"49 -5 LINE"
);
}
);
width = 667;
},
{
anchors = (
{
name = bottom;
position = "{303, 0}";
},
{
name = top;
position = "{336, 494}";
},
{
name = topleft;
position = "{3, 537}";
}
);
layerId = "4E6502B1-B066-4D3E-9BD1-B1D9901B4F4F";
paths = (
{
closed = 1;
nodes = (
"77 -3 OFFCURVE",
"129 0 OFFCURVE",
"150 0 CURVE",
"277 0 LINE",
"284 52 LINE",
"171 62 LINE",
"208 25 LINE",
"204 49 OFFCURVE",
"199 112 OFFCURVE",
"199 164 CURVE SMOOTH",
"199 275 LINE SMOOTH",
"199 374 OFFCURVE",
"248 445 OFFCURVE",
"329 445 CURVE SMOOTH",
"417 445 OFFCURVE",
"435 359 OFFCURVE",
"435 272 CURVE SMOOTH",
"435 134 LINE SMOOTH",
"435 100 OFFCURVE",
"426 64 OFFCURVE",
"420 44 CURVE",
"457 67 LINE",
"357 43 LINE",
"362 -5 LINE",
"395 -3 OFFCURVE",
"453 0 OFFCURVE",
"462 0 CURVE",
"590 0 LINE",
"597 52 LINE",
"484 62 LINE",
"520 35 LINE",
"516 61 OFFCURVE",
"510 115 OFFCURVE",
"510 164 CURVE SMOOTH",
"510 271 LINE SMOOTH",
"510 411 OFFCURVE",
"482 502 OFFCURVE",
"341 502 CURVE SMOOTH",
"265 502 OFFCURVE",
"206 459 OFFCURVE",
"177 384 CURVE",
"199 326 LINE",
"185 476 LINE",
"166 494 LINE",
"42 494 LINE",
"37 442 LINE",
"147 423 LINE",
"107 469 LINE",
"111 448 OFFCURVE",
"123 381 OFFCURVE",
"123 356 CURVE SMOOTH",
"123 134 LINE SMOOTH",
"123 109 OFFCURVE",
"110 44 OFFCURVE",
"107 29 CURVE",
"147 66 LINE",
"35 43 LINE",
"40 -5 LINE"
);
}
);
width = 618.6;
}
);
leftKerningGroup = lc_ShortStem;
rightKerningGroup = lc_Shoulder;
unicode = 006E;
},
{
color = 3;
glyphname = napostrophe;
layers = (
{
anchors = (
{
name = bottom;
position = "{422, 0}";
},
{
name = top;
position = "{428, 494}";
},
{
name = topleft;
position = "{82, 537}";
}
);
components = (
{
name = apostrophemod;
transform = "{1, 0, 0, 1, -21, -160}";
}
);
layerId = "16643525-C5DD-48EC-8E99-463BF28F5E85";
paths = (
{
closed = 1;
nodes = (
"176 -3 OFFCURVE",
"246 0 OFFCURVE",
"256 0 CURVE",
"415 0 LINE",
"420 71 LINE",
"292 83 LINE",
"361 35 LINE",
"356 67 OFFCURVE",
"346 125 OFFCURVE",
"346 193 CURVE SMOOTH",
"346 265 LINE SMOOTH",
"346 355 OFFCURVE",
"395 403 OFFCURVE",
"445 403 CURVE SMOOTH",
"497 403 OFFCURVE",
"519 363 OFFCURVE",
"519 311 CURVE SMOOTH",
"519 163 LINE SMOOTH",
"519 148 OFFCURVE",
"514 67 OFFCURVE",
"510 31 CURVE",
"576 90 LINE",
"458 65 LINE",
"463 -5 LINE",
"503 -3 OFFCURVE",
"563 0 OFFCURVE",
"583 0 CURVE",
"728 0 LINE",
"733 71 LINE",
"605 83 LINE",
"674 36 LINE",
"670 63 OFFCURVE",
"659 125 OFFCURVE",
"659 193 CURVE SMOOTH",
"659 325 LINE SMOOTH",
"659 441 OFFCURVE",
"601 503 OFFCURVE",
"492 503 CURVE SMOOTH",
"399 503 OFFCURVE",
"344 444 OFFCURVE",
"300 362 CURVE",
"342 294 LINE",
"316 475 LINE",
"295 494 LINE",
"188 494 LINE",
"192 469 OFFCURVE",
"206 355 OFFCURVE",
"206 325 CURVE SMOOTH",
"206 163 LINE",
"206 133 OFFCURVE",
"195 58 OFFCURVE",
"190 29 CURVE",
"259 88 LINE",
"131 65 LINE",
"136 -5 LINE"
);
}
);
width = 754;
},
{
anchors = (
{
name = bottom;
position = "{369, 0}";
},
{
name = top;
position = "{402, 494}";
},
{
name = topleft;
position = "{69, 537}";
}
);
components = (
{
alignment = -1;
name = apostrophemod;
transform = "{1, 0, 0, 1, -17, -160}";
}
);
layerId = "4E6502B1-B066-4D3E-9BD1-B1D9901B4F4F";
paths = (
{
closed = 1;
nodes = (
"143 -3 OFFCURVE",
"195 0 OFFCURVE",
"216 0 CURVE",
"344 0 LINE",
"350 52 LINE",
"237 62 LINE",
"274 25 LINE",
"270 49 OFFCURVE",
"265 112 OFFCURVE",
"265 164 CURVE SMOOTH",
"265 275 LINE SMOOTH",
"265 374 OFFCURVE",
"314 446 OFFCURVE",
"396 446 CURVE SMOOTH",
"483 446 OFFCURVE",
"501 360 OFFCURVE",
"501 273 CURVE SMOOTH",
"501 134 LINE SMOOTH",
"501 100 OFFCURVE",
"492 64 OFFCURVE",
"486 44 CURVE",
"523 67 LINE",
"423 43 LINE",
"428 -5 LINE",
"461 -3 OFFCURVE",
"519 0 OFFCURVE",
"528 0 CURVE",
"657 0 LINE",
"663 52 LINE",
"550 62 LINE",
"586 35 LINE",
"582 61 OFFCURVE",
"577 115 OFFCURVE",
"577 164 CURVE SMOOTH",
"577 271 LINE SMOOTH",
"577 411 OFFCURVE",
"548 503 OFFCURVE",
"407 503 CURVE SMOOTH",
"331 503 OFFCURVE",
"273 459 OFFCURVE",
"243 384 CURVE",
"265 326 LINE",
"251 476 LINE",
"232 494 LINE",
"173 494 LINE",
"177 473 OFFCURVE",
"190 381 OFFCURVE",
"190 356 CURVE SMOOTH",
"190 134 LINE SMOOTH",
"190 109 OFFCURVE",
"176 44 OFFCURVE",
"174 29 CURVE",
"213 66 LINE",
"101 43 LINE",
"106 -5 LINE"
);
}
);
width = 684.7;
}
);
leftKerningGroup = lc_ShortStem;
rightKerningGroup = lc_Shoulder;
unicode = 0149;
},
{
color = 6;
glyphname = eng;
layers = (
{
layerId = "16643525-C5DD-48EC-8E99-463BF28F5E85";
paths = (
{
closed = 1;
nodes = (
"471 -155 OFFCURVE",
"567 -39 OFFCURVE",
"567 -10 CURVE SMOOTH",
"567 325 LINE SMOOTH",
"567 441 OFFCURVE",
"509 503 OFFCURVE",
"404 503 CURVE SMOOTH",
"328 503 OFFCURVE",
"278 464 OFFCURVE",
"238 406 CURVE",
"188 325 LINE",
"258 265 LINE",
"258 355 OFFCURVE",
"307 403 OFFCURVE",
"357 403 CURVE SMOOTH",
"405 403 OFFCURVE",
"427 363 OFFCURVE",
"427 311 CURVE SMOOTH",
"427 117 LINE SMOOTH",
"427 81 OFFCURVE",
"427 41 OFFCURVE",
"427 21 CURVE",
"427 -8 OFFCURVE",
"384 -127 OFFCURVE",
"352 -209 CURVE",
"399 -235 LINE"
);
},
{
closed = 1;
nodes = (
"91 -3 OFFCURVE",
"153 0 OFFCURVE",
"168 0 CURVE SMOOTH",
"250 0 OFFCURVE",
"307 0 OFFCURVE",
"327 0 CURVE",
"332 71 LINE",
"267 77 LINE",
"263 105 OFFCURVE",
"258 157 OFFCURVE",
"258 193 CURVE SMOOTH",
"258 265 LINE",
"228 475 LINE",
"207 494 LINE",
"159 494 LINE SMOOTH",
"128 494 OFFCURVE",
"74 499 OFFCURVE",
"42 503 CURVE",
"33 429 LINE",
"108 412 LINE",
"112 383 OFFCURVE",
"118 340 OFFCURVE",
"118 325 CURVE SMOOTH",
"118 163 LINE",
"118 148 OFFCURVE",
"113 105 OFFCURVE",
"109 77 CURVE",
"43 65 LINE",
"48 -5 LINE"
);
}
);
width = 634;
},
{
layerId = "4E6502B1-B066-4D3E-9BD1-B1D9901B4F4F";
paths = (
{
closed = 1;
nodes = (
"444 -155 OFFCURVE",
"510 -39 OFFCURVE",
"510 -10 CURVE SMOOTH",
"510 271 LINE SMOOTH",
"510 411 OFFCURVE",
"482 503 OFFCURVE",
"340 503 CURVE SMOOTH",
"264 503 OFFCURVE",
"212 457 OFFCURVE",
"190 413 CURVE",
"148 356 LINE",
"198 275 LINE",
"199 374 OFFCURVE",
"247 446 OFFCURVE",
"328 446 CURVE SMOOTH",
"416 446 OFFCURVE",
"435 360 OFFCURVE",
"435 273 CURVE SMOOTH",
"435 117 LINE SMOOTH",
"435 81 OFFCURVE",
"435 41 OFFCURVE",
"435 21 CURVE",
"435 -8 OFFCURVE",
"392 -131 OFFCURVE",
"359 -215 CURVE",
"394 -235 LINE"
);
},
{
closed = 1;
nodes = (
"79 -3 OFFCURVE",
"135 0 OFFCURVE",
"150 0 CURVE SMOOTH",
"206 0 OFFCURVE",
"256 0 OFFCURVE",
"278 0 CURVE",
"284 52 LINE",
"204 59 LINE",
"201 83 OFFCURVE",
"198 128 OFFCURVE",
"198 164 CURVE SMOOTH",
"198 329 LINE",
"184 476 LINE",
"165 494 LINE",
"130 494 LINE SMOOTH",
"118 494 OFFCURVE",
"72 496 OFFCURVE",
"41 498 CURVE",
"36 447 LINE",
"112 431 LINE",
"116 407 OFFCURVE",
"122 371 OFFCURVE",
"122 356 CURVE SMOOTH",
"122 129 LINE",
"121 112 OFFCURVE",
"115 79 OFFCURVE",
"112 59 CURVE",
"35 43 LINE",
"40 -5 LINE"
);
}
);
width = 580.1;
}
);
leftKerningGroup = lc_ShortStem;
rightKerningGroup = lc_Shoulder;
unicode = 014B;
},
{
color = 6;
glyphname = nhookleft;
layers = (
{
layerId = "16643525-C5DD-48EC-8E99-463BF28F5E85";
paths = (
{
closed = 1;
nodes = (
"105 -68 OFFCURVE",
"81 -109 OFFCURVE",
"27 -109 CURVE",
"27 -190 LINE",
"191 -190 OFFCURVE",
"245 -81 OFFCURVE",
"245 30 CURVE",
"245 265 LINE",
"245 355 OFFCURVE",
"294 403 OFFCURVE",
"344 403 CURVE SMOOTH",
"396 403 OFFCURVE",
"418 363 OFFCURVE",
"418 311 CURVE SMOOTH",
"418 163 LINE SMOOTH",
"418 148 OFFCURVE",
"413 67 OFFCURVE",
"409 31 CURVE",
"475 90 LINE",
"357 65 LINE",
"362 -5 LINE",
"402 -3 OFFCURVE",
"462 0 OFFCURVE",
"482 0 CURVE",
"627 0 LINE",
"632 71 LINE",
"504 83 LINE",
"573 36 LINE",
"569 63 OFFCURVE",
"558 125 OFFCURVE",
"558 193 CURVE SMOOTH",
"558 325 LINE SMOOTH",
"558 441 OFFCURVE",
"500 503 OFFCURVE",
"391 503 CURVE SMOOTH",
"298 503 OFFCURVE",
"243 444 OFFCURVE",
"199 362 CURVE",
"241 294 LINE",
"215 475 LINE",
"194 494 LINE",
"146 494 LINE",
"126 494 OFFCURVE",
"68 499 OFFCURVE",
"29 503 CURVE",
"20 429 LINE",
"156 398 LINE",
"87 463 LINE",
"91 438 OFFCURVE",
"105 355 OFFCURVE",
"105 325 CURVE",
"105 13 LINE"
);
}
);
width = 653;
},
{
layerId = "4E6502B1-B066-4D3E-9BD1-B1D9901B4F4F";
paths = (
{
closed = 1;
nodes = (
"106 -90 OFFCURVE",
"81 -144 OFFCURVE",
"-14 -144 CURVE",
"-15 -194 LINE",
"116 -194 OFFCURVE",
"181 -109 OFFCURVE",
"181 -3 CURVE",
"181 275 LINE",
"181 374 OFFCURVE",
"230 446 OFFCURVE",
"312 446 CURVE SMOOTH",
"399 446 OFFCURVE",
"418 360 OFFCURVE",
"418 273 CURVE SMOOTH",
"418 134 LINE SMOOTH",
"418 100 OFFCURVE",
"409 64 OFFCURVE",
"402 44 CURVE",
"440 67 LINE",
"339 43 LINE",
"344 -5 LINE",
"378 -3 OFFCURVE",
"436 0 OFFCURVE",
"445 0 CURVE",
"573 0 LINE",
"579 52 LINE",
"467 62 LINE",
"503 35 LINE",
"499 61 OFFCURVE",
"493 115 OFFCURVE",
"493 164 CURVE SMOOTH",
"493 271 LINE SMOOTH",
"493 411 OFFCURVE",
"465 503 OFFCURVE",
"324 503 CURVE SMOOTH",
"247 503 OFFCURVE",
"189 459 OFFCURVE",
"159 384 CURVE",
"182 326 LINE",
"168 476 LINE",
"149 494 LINE",
"114 494 LINE",
"105 494 OFFCURVE",
"55 496 OFFCURVE",
"25 498 CURVE",
"20 447 LINE",
"130 423 LINE",
"89 469 LINE",
"93 448 OFFCURVE",
"106 381 OFFCURVE",
"106 356 CURVE",
"106 2 LINE"
);
}
);
width = 601.3;
}
);
leftKerningGroup = lc_ShortStem;
rightKerningGroup = lc_Shoulder;
unicode = 0272;
},
{
color = 6;
glyphname = o;
layers = (
{
anchors = (
{
name = bottom;
position = "{289, 0}";
},
{
name = center;
position = "{288, 247}";
},
{
name = ogonek;
position = "{387, 0}";
},
{
name = top;
position = "{289, 494}";
},
{
name = topright;
position = "{403, 455}";
}
);
layerId = "16643525-C5DD-48EC-8E99-463BF28F5E85";
paths = (
{
closed = 1;
nodes = (
"448 -15 OFFCURVE",
"535 81 OFFCURVE",
"535 247 CURVE SMOOTH",
"535 413 OFFCURVE",
"448 508 OFFCURVE",
"289 508 CURVE SMOOTH",
"131 508 OFFCURVE",
"43 413 OFFCURVE",
"43 247 CURVE SMOOTH",
"43 81 OFFCURVE",
"131 -15 OFFCURVE",
"289 -15 CURVE SMOOTH"
);
},
{
closed = 1;
nodes = (
"225 69 OFFCURVE",
"199 125 OFFCURVE",
"199 247 CURVE SMOOTH",
"199 368 OFFCURVE",
"225 424 OFFCURVE",
"289 424 CURVE SMOOTH",
"353 424 OFFCURVE",
"380 369 OFFCURVE",
"380 247 CURVE SMOOTH",
"380 124 OFFCURVE",
"353 69 OFFCURVE",
"289 69 CURVE SMOOTH"
);
}
);
width = 578;
},
{
anchors = (
{
name = bottom;
position = "{276, 0}";
},
{
name = center;
position = "{261, 247}";
},
{
name = ogonek;
position = "{352, 0}";
},
{
name = top;
position = "{274, 494}";
},
{
name = topright;
position = "{381, 450}";
}
);
layerId = "4E6502B1-B066-4D3E-9BD1-B1D9901B4F4F";
paths = (
{
closed = 1;
nodes = (
"426 -10 OFFCURVE",
"503 95 OFFCURVE",
"503 246 CURVE SMOOTH",
"503 400 OFFCURVE",
"428 503 OFFCURVE",
"276 503 CURVE SMOOTH",
"124 503 OFFCURVE",
"47 397 OFFCURVE",
"47 246 CURVE SMOOTH",
"47 96 OFFCURVE",
"124 -10 OFFCURVE",
"276 -10 CURVE SMOOTH"
);
},
{
closed = 1;
nodes = (
"168 44 OFFCURVE",
"133 145 OFFCURVE",
"133 246 CURVE SMOOTH",
"133 347 OFFCURVE",
"168 449 OFFCURVE",
"276 449 CURVE SMOOTH",
"384 449 OFFCURVE",
"417 345 OFFCURVE",
"417 246 CURVE SMOOTH",
"417 147 OFFCURVE",
"384 44 OFFCURVE",
"276 44 CURVE SMOOTH"
);
}
);
width = 550.5;
}
);
leftKerningGroup = lc_Round;
rightKerningGroup = lc_Round;
unicode = 006F;
},
{
color = 3;
glyphname = oslash;
layers = (
{
anchors = (
{
name = top;
position = "{274, 494}";
}
);
components = (
{
name = o;
transform = "{1, 0, 0, 1, 1, 0}";
}
);
layerId = "16643525-C5DD-48EC-8E99-463BF28F5E85";
paths = (
{
closed = 1;
nodes = (
"481 569 LINE",
"422 598 LINE",
"68 -70 LINE",
"125 -99 LINE"
);
}
);
width = 579;
},
{
anchors = (
{
name = top;
position = "{281, 494}";
}
);
components = (
{
alignment = -1;
name = o;
}
);
layerId = "4E6502B1-B066-4D3E-9BD1-B1D9901B4F4F";
paths = (
{
closed = 1;
nodes = (
"469 576 LINE",
"431 595 LINE",
"74 -83 LINE",
"111 -102 LINE"
);
}
);
width = 550.4;
}
);
leftKerningGroup = lc_Round;
rightKerningGroup = lc_Round;
unicode = 00F8;
},
{
color = 6;
glyphname = oe;
layers = (
{
anchors = (
{
name = bottom;
position = "{435, 0}";
},
{
name = top;
position = "{435, 494}";
}
);
layerId = "16643525-C5DD-48EC-8E99-463BF28F5E85";
paths = (
{
closed = 1;
nodes = (
"383 -15 OFFCURVE",
"455 33 OFFCURVE",
"486 120 CURVE",
"438 101 LINE",
"472 22 OFFCURVE",
"530 -15 OFFCURVE",
"623 -15 CURVE SMOOTH",
"701 -15 OFFCURVE",
"767 9 OFFCURVE",
"819 56 CURVE",
"784 114 LINE",
"763 100 OFFCURVE",
"716 81 OFFCURVE",
"663 81 CURVE SMOOTH",
"567 81 OFFCURVE",
"538 137 OFFCURVE",
"538 260 CURVE SMOOTH",
"538 379 OFFCURVE",
"559 424 OFFCURVE",
"608 424 CURVE SMOOTH",
"650 424 OFFCURVE",
"671 386 OFFCURVE",
"671 310 CURVE SMOOTH",
"671 239 LINE",
"734 305 LINE",
"522 294 LINE",
"522 221 LINE",
"807 221 LINE",
"828 260 LINE",
"837 413 OFFCURVE",
"760 503 OFFCURVE",
"619 503 CURVE SMOOTH",
"532 503 OFFCURVE",
"472 464 OFFCURVE",
"437 386 CURVE",
"490 361 LINE",
"462 453 OFFCURVE",
"388 503 OFFCURVE",
"289 503 CURVE SMOOTH",
"131 503 OFFCURVE",
"43 410 OFFCURVE",
"43 247 CURVE SMOOTH",
"43 81 OFFCURVE",
"131 -15 OFFCURVE",
"289 -15 CURVE SMOOTH"
);
},
{
closed = 1;
nodes = (
"225 69 OFFCURVE",
"199 125 OFFCURVE",
"199 247 CURVE SMOOTH",
"199 365 OFFCURVE",
"225 419 OFFCURVE",
"289 419 CURVE SMOOTH",
"353 419 OFFCURVE",
"380 366 OFFCURVE",
"380 247 CURVE SMOOTH",
"380 124 OFFCURVE",
"353 69 OFFCURVE",
"289 69 CURVE SMOOTH"
);
}
);
width = 870;
},
{
anchors = (
{
name = bottom;
position = "{426, 0}";
},
{
name = top;
position = "{426, 494}";
}
);
layerId = "4E6502B1-B066-4D3E-9BD1-B1D9901B4F4F";
paths = (
{
closed = 1;
nodes = (
"363 -10 OFFCURVE",
"425 24 OFFCURVE",
"464 82 CURVE",
"439 81 LINE",
"478 25 OFFCURVE",
"541 -10 OFFCURVE",
"629 -10 CURVE SMOOTH",
"745 -10 OFFCURVE",
"809 54 OFFCURVE",
"804 49 CURVE",
"776 94 LINE",
"748 76 OFFCURVE",
"688 52 OFFCURVE",
"625 52 CURVE SMOOTH",
"530 52 OFFCURVE",
"487 159 OFFCURVE",
"487 250 CURVE SMOOTH",
"494 382 OFFCURVE",
"529 454 OFFCURVE",
"612 454 CURVE SMOOTH",
"686 454 OFFCURVE",
"721 396 OFFCURVE",
"721 325 CURVE SMOOTH",
"721 271 LINE",
"754 307 LINE",
"476 286 LINE",
"475 239 LINE",
"789 239 LINE",
"806 271 LINE",
"805 410 OFFCURVE",
"756 503 OFFCURVE",
"616 503 CURVE SMOOTH",
"532 503 OFFCURVE",
"474 468 OFFCURVE",
"439 414 CURVE",
"463 416 LINE",
"425 471 OFFCURVE",
"363 503 OFFCURVE",
"276 503 CURVE SMOOTH",
"124 503 OFFCURVE",
"47 397 OFFCURVE",
"47 246 CURVE SMOOTH",
"47 96 OFFCURVE",
"124 -10 OFFCURVE",
"276 -10 CURVE SMOOTH"
);
},
{
closed = 1;
nodes = (
"168 44 OFFCURVE",
"133 145 OFFCURVE",
"133 246 CURVE SMOOTH",
"133 347 OFFCURVE",
"168 450 OFFCURVE",
"276 450 CURVE SMOOTH",
"384 450 OFFCURVE",
"417 345 OFFCURVE",
"417 246 CURVE SMOOTH",
"417 147 OFFCURVE",
"384 44 OFFCURVE",
"276 44 CURVE SMOOTH"
);
}
);
width = 852.4;
}
);
leftKerningGroup = lc_Round;
rightKerningGroup = lc_e;
unicode = 0153;
},
{
color = 6;
glyphname = p;
layers = (
{
anchors = (
{
name = bottom;
position = "{311, 0}";
},
{
name = top;
position = "{311, 494}";
}
);
layerId = "16643525-C5DD-48EC-8E99-463BF28F5E85";
paths = (
{
closed = 1;
nodes = (
"90 -231 OFFCURVE",
"145 -228 OFFCURVE",
"155 -228 CURVE",
"329 -228 LINE",
"334 -167 LINE",
"191 -155 LINE",
"260 -193 LINE",
"255 -161 OFFCURVE",
"245 -103 OFFCURVE",
"245 -35 CURVE SMOOTH",
"245 266 LINE SMOOTH",
"245 345 OFFCURVE",
"280 396 OFFCURVE",
"333 396 CURVE SMOOTH",
"391 396 OFFCURVE",
"418 349 OFFCURVE",
"418 247 CURVE SMOOTH",
"418 133 OFFCURVE",
"387 85 OFFCURVE",
"314 85 CURVE SMOOTH",
"291 85 OFFCURVE",
"261 93 OFFCURVE",
"226 106 CURVE",
"228 -3 LINE",
"262 -7 OFFCURVE",
"296 -10 OFFCURVE",
"326 -10 CURVE SMOOTH",
"486 -10 OFFCURVE",
"577 88 OFFCURVE",
"577 260 CURVE SMOOTH",
"577 419 OFFCURVE",
"509 509 OFFCURVE",
"387 509 CURVE SMOOTH",
"301 509 OFFCURVE",
"247 463 OFFCURVE",
"199 355 CURVE",
"234 342 LINE",
"215 475 LINE",
"194 494 LINE",
"29 494 LINE",
"20 419 LINE",
"156 398 LINE",
"87 463 LINE",
"91 438 OFFCURVE",
"105 355 OFFCURVE",
"105 325 CURVE SMOOTH",
"105 -65 LINE SMOOTH",
"105 -95 OFFCURVE",
"94 -170 OFFCURVE",
"89 -199 CURVE",
"158 -150 LINE",
"45 -173 LINE",
"50 -233 LINE"
);
}
);
width = 621;
},
{
anchors = (
{
name = bottom;
position = "{284, 0}";
},
{
name = top;
position = "{284, 494}";
}
);
layerId = "4E6502B1-B066-4D3E-9BD1-B1D9901B4F4F";
paths = (
{
closed = 1;
nodes = (
"72 -231 OFFCURVE",
"114 -228 OFFCURVE",
"135 -228 CURVE",
"284 -228 LINE",
"290 -175 LINE",
"156 -165 LINE",
"193 -203 LINE",
"189 -179 OFFCURVE",
"183 -116 OFFCURVE",
"183 -64 CURVE SMOOTH",
"183 286 LINE SMOOTH",
"183 382 OFFCURVE",
"234 447 OFFCURVE",
"311 447 CURVE SMOOTH",
"394 447 OFFCURVE",
"438 381 OFFCURVE",
"438 255 CURVE SMOOTH",
"438 121 OFFCURVE",
"384 47 OFFCURVE",
"288 47 CURVE SMOOTH",
"250 47 OFFCURVE",
"209 63 OFFCURVE",
"169 96 CURVE",
"168 25 LINE",
"209 3 OFFCURVE",
"253 -10 OFFCURVE",
"293 -10 CURVE SMOOTH",
"423 -10 OFFCURVE",
"521 103 OFFCURVE",
"521 256 CURVE SMOOTH",
"521 412 OFFCURVE",
"445 502 OFFCURVE",
"314 502 CURVE SMOOTH",
"256 502 OFFCURVE",
"177 448 OFFCURVE",
"172 395 CURVE",
"178 379 LINE",
"170 476 LINE",
"151 494 LINE",
"27 494 LINE",
"22 442 LINE",
"132 423 LINE",
"91 469 LINE",
"95 448 OFFCURVE",
"108 381 OFFCURVE",
"108 356 CURVE SMOOTH",
"108 -94 LINE SMOOTH",
"108 -119 OFFCURVE",
"95 -184 OFFCURVE",
"92 -199 CURVE",
"132 -161 LINE",
"31 -184 LINE",
"36 -233 LINE"
);
}
);
width = 567.1;
}
);
leftKerningGroup = lc_p;
rightKerningGroup = lc_Round;
unicode = 0070;
},
{
color = 6;
glyphname = thorn;
layers = (
{
anchors = (
{
name = bottom;
position = "{288, 0}";
},
{
name = top;
position = "{288, 494}";
}
);
layerId = "16643525-C5DD-48EC-8E99-463BF28F5E85";
paths = (
{
closed = 1;
nodes = (
"62 -231 OFFCURVE",
"117 -228 OFFCURVE",
"127 -228 CURVE",
"301 -228 LINE",
"306 -167 LINE",
"163 -155 LINE",
"232 -193 LINE",
"227 -161 OFFCURVE",
"217 -103 OFFCURVE",
"217 -35 CURVE SMOOTH",
"217 260 LINE SMOOTH",
"217 345 OFFCURVE",
"252 390 OFFCURVE",
"305 390 CURVE SMOOTH",
"363 390 OFFCURVE",
"390 343 OFFCURVE",
"390 241 CURVE SMOOTH",
"390 131 OFFCURVE",
"359 85 OFFCURVE",
"286 85 CURVE SMOOTH",
"263 85 OFFCURVE",
"233 93 OFFCURVE",
"198 106 CURVE",
"200 -3 LINE",
"234 -7 OFFCURVE",
"268 -10 OFFCURVE",
"298 -10 CURVE SMOOTH",
"458 -10 OFFCURVE",
"549 86 OFFCURVE",
"549 254 CURVE SMOOTH",
"549 413 OFFCURVE",
"481 503 OFFCURVE",
"359 503 CURVE SMOOTH",
"273 503 OFFCURVE",
"219 459 OFFCURVE",
"171 355 CURVE",
"216 342 LINE",
"217 604 LINE SMOOTH",
"217 628 OFFCURVE",
"223 693 OFFCURVE",
"227 737 CURVE",
"206 756 LINE",
"118 756 LINE",
"1 761 LINE",
"-8 691 LINE",
"128 660 LINE",
"59 725 LINE",
"63 700 OFFCURVE",
"77 617 OFFCURVE",
"77 587 CURVE SMOOTH",
"77 -65 LINE SMOOTH",
"77 -95 OFFCURVE",
"66 -170 OFFCURVE",
"61 -199 CURVE",
"130 -150 LINE",
"17 -173 LINE",
"22 -233 LINE"
);
}
);
width = 593;
},
{
anchors = (
{
name = bottom;
position = "{256, 0}";
},
{
name = top;
position = "{256, 494}";
}
);
layerId = "4E6502B1-B066-4D3E-9BD1-B1D9901B4F4F";
paths = (
{
closed = 1;
nodes = (
"46 -231 OFFCURVE",
"87 -228 OFFCURVE",
"108 -228 CURVE",
"257 -228 LINE",
"263 -175 LINE",
"129 -165 LINE",
"166 -203 LINE",
"162 -179 OFFCURVE",
"157 -116 OFFCURVE",
"157 -64 CURVE SMOOTH",
"157 286 LINE SMOOTH",
"157 382 OFFCURVE",
"207 447 OFFCURVE",
"284 447 CURVE SMOOTH",
"367 447 OFFCURVE",
"411 382 OFFCURVE",
"411 255 CURVE SMOOTH",
"411 121 OFFCURVE",
"357 47 OFFCURVE",
"261 47 CURVE SMOOTH",
"223 47 OFFCURVE",
"182 63 OFFCURVE",
"142 96 CURVE",
"141 25 LINE",
"182 3 OFFCURVE",
"226 -10 OFFCURVE",
"266 -10 CURVE SMOOTH",
"396 -10 OFFCURVE",
"494 104 OFFCURVE",
"494 256 CURVE SMOOTH",
"494 413 OFFCURVE",
"418 503 OFFCURVE",
"288 503 CURVE SMOOTH",
"229 503 OFFCURVE",
"150 448 OFFCURVE",
"145 395 CURVE",
"157 379 LINE",
"157 597 LINE SMOOTH",
"157 637 OFFCURVE",
"160 691 OFFCURVE",
"163 738 CURVE",
"144 756 LINE",
"89 756 LINE",
"0 759 LINE",
"-5 709 LINE",
"105 685 LINE",
"65 731 LINE",
"69 710 OFFCURVE",
"81 643 OFFCURVE",
"81 618 CURVE SMOOTH",
"81 -94 LINE SMOOTH",
"81 -119 OFFCURVE",
"68 -184 OFFCURVE",
"65 -199 CURVE",
"105 -161 LINE",
"4 -184 LINE",
"9 -233 LINE"
);
}
);
width = 540.2;
}
);
leftKerningGroup = lc_LongStem;
rightKerningGroup = lc_Round;
unicode = 00FE;
},
{
color = 6;
glyphname = q;
layers = (
{
anchors = (
{
name = bottom;
position = "{298, 0}";
},
{
name = top;
position = "{298, 494}";
}
);
layerId = "16643525-C5DD-48EC-8E99-463BF28F5E85";
paths = (
{
closed = 1;
nodes = (
"316 -11 OFFCURVE",
"367 27 OFFCURVE",
"418 126 CURVE",
"377 232 LINE",
"372 146 OFFCURVE",
"342 102 OFFCURVE",
"289 102 CURVE SMOOTH",
"231 102 OFFCURVE",
"204 150 OFFCURVE",
"204 254 CURVE SMOOTH",
"204 366 OFFCURVE",
"235 413 OFFCURVE",
"308 413 CURVE SMOOTH",
"340 413 OFFCURVE",
"384 400 OFFCURVE",
"452 371 CURVE",
"527 472 LINE",
"450 495 OFFCURVE",
"362 508 OFFCURVE",
"296 508 CURVE SMOOTH",
"136 508 OFFCURVE",
"45 411 OFFCURVE",
"45 241 CURVE SMOOTH",
"45 80 OFFCURVE",
"113 -11 OFFCURVE",
"235 -11 CURVE SMOOTH"
);
},
{
closed = 1;
nodes = (
"332 -231 OFFCURVE",
"417 -228 OFFCURVE",
"427 -228 CURVE",
"571 -228 LINE",
"576 -167 LINE",
"463 -155 LINE",
"532 -193 LINE",
"527 -161 OFFCURVE",
"517 -103 OFFCURVE",
"517 -35 CURVE SMOOTH",
"517 336 LINE SMOOTH",
"517 356 OFFCURVE",
"523 429 OFFCURVE",
"527 472 CURVE",
"372 428 LINE",
"375 388 OFFCURVE",
"377 349 OFFCURVE",
"377 319 CURVE SMOOTH",
"377 -65 LINE SMOOTH",
"377 -95 OFFCURVE",
"366 -170 OFFCURVE",
"361 -199 CURVE",
"430 -150 LINE",
"287 -173 LINE",
"292 -233 LINE"
);
}
);
width = 597;
},
{
anchors = (
{
name = bottom;
position = "{271, 0}";
},
{
name = top;
position = "{271, 494}";
}
);
layerId = "4E6502B1-B066-4D3E-9BD1-B1D9901B4F4F";
paths = (
{
closed = 1;
nodes = (
"300 -10 OFFCURVE",
"375 36 OFFCURVE",
"391 75 CURVE",
"384 203 LINE",
"384 106 OFFCURVE",
"334 48 OFFCURVE",
"252 48 CURVE SMOOTH",
"178 48 OFFCURVE",
"131 125 OFFCURVE",
"131 245 CURVE SMOOTH",
"131 365 OFFCURVE",
"184 446 OFFCURVE",
"263 446 CURVE SMOOTH",
"329 446 OFFCURVE",
"386 437 OFFCURVE",
"451 415 CURVE",
"467 467 LINE",
"355 496 OFFCURVE",
"319 503 OFFCURVE",
"253 503 CURVE SMOOTH",
"132 503 OFFCURVE",
"48 398 OFFCURVE",
"48 248 CURVE SMOOTH",
"48 88 OFFCURVE",
"126 -10 OFFCURVE",
"250 -10 CURVE SMOOTH"
);
},
{
closed = 1;
nodes = (
"317 -231 OFFCURVE",
"388 -228 OFFCURVE",
"411 -228 CURVE",
"528 -228 LINE",
"534 -175 LINE",
"430 -165 LINE",
"467 -203 LINE",
"464 -182 OFFCURVE",
"459 -121 OFFCURVE",
"459 -65 CURVE SMOOTH",
"459 311 LINE SMOOTH",
"459 367 OFFCURVE",
"464 440 OFFCURVE",
"467 467 CURVE",
"376 437 LINE",
"381 407 OFFCURVE",
"384 366 OFFCURVE",
"384 339 CURVE SMOOTH",
"384 -95 LINE SMOOTH",
"384 -120 OFFCURVE",
"370 -184 OFFCURVE",
"368 -199 CURVE",
"406 -161 LINE",
"275 -184 LINE",
"280 -233 LINE"
);
}
);
width = 539.8;
}
);
leftKerningGroup = lc_Round;
rightKerningGroup = lc_q;
unicode = 0071;
},
{
color = 6;
glyphname = r;
layers = (
{
anchors = (
{
name = bottom;
position = "{187, 0}";
},
{
name = top;
position = "{266, 494}";
}
);
layerId = "16643525-C5DD-48EC-8E99-463BF28F5E85";
paths = (
{
closed = 1;
nodes = (
"89 -3 OFFCURVE",
"159 0 OFFCURVE",
"169 0 CURVE SMOOTH",
"346 0 LINE",
"351 71 LINE",
"205 83 LINE",
"274 35 LINE",
"269 67 OFFCURVE",
"259 125 OFFCURVE",
"259 193 CURVE SMOOTH",
"259 265 LINE SMOOTH",
"259 355 OFFCURVE",
"308 403 OFFCURVE",
"358 403 CURVE SMOOTH",
"369 403 OFFCURVE",
"382 401 OFFCURVE",
"392 399 CURVE",
"361 421 LINE",
"364 408 OFFCURVE",
"372 356 OFFCURVE",
"372 350 CURVE SMOOTH",
"372 295 LINE",
"446 292 LINE",
"461 493 LINE",
"434 498 OFFCURVE",
"406 503 OFFCURVE",
"379 503 CURVE SMOOTH",
"282 503 OFFCURVE",
"236 409 OFFCURVE",
"205 354 CURVE",
"255 294 LINE",
"229 475 LINE",
"208 494 LINE",
"43 494 LINE",
"34 419 LINE",
"170 398 LINE",
"101 463 LINE",
"105 438 OFFCURVE",
"119 355 OFFCURVE",
"119 325 CURVE SMOOTH",
"119 163 LINE",
"119 133 OFFCURVE",
"108 58 OFFCURVE",
"103 29 CURVE",
"172 88 LINE",
"44 65 LINE",
"49 -5 LINE"
);
}
);
width = 495;
},
{
anchors = (
{
name = bottom;
position = "{171, 0}";
},
{
name = top;
position = "{229, 494}";
}
);
layerId = "4E6502B1-B066-4D3E-9BD1-B1D9901B4F4F";
paths = (
{
closed = 1;
nodes = (
"77 -3 OFFCURVE",
"129 0 OFFCURVE",
"150 0 CURVE SMOOTH",
"299 0 LINE",
"305 52 LINE",
"171 62 LINE",
"208 25 LINE",
"204 49 OFFCURVE",
"199 112 OFFCURVE",
"199 164 CURVE SMOOTH",
"199 280 LINE SMOOTH",
"199 375 OFFCURVE",
"240 437 OFFCURVE",
"336 437 CURVE SMOOTH",
"349 437 OFFCURVE",
"363 437 OFFCURVE",
"377 438 CURVE",
"330 464 LINE",
"339 441 OFFCURVE",
"354 397 OFFCURVE",
"354 387 CURVE SMOOTH",
"354 335 LINE",
"411 332 LINE",
"420 493 LINE",
"398 499 OFFCURVE",
"376 503 OFFCURVE",
"354 503 CURVE SMOOTH",
"236 503 OFFCURVE",
"198 429 OFFCURVE",
"169 358 CURVE",
"199 326 LINE",
"185 476 LINE",
"166 494 LINE",
"42 494 LINE",
"37 442 LINE",
"147 423 LINE",
"107 469 LINE",
"111 448 OFFCURVE",
"123 381 OFFCURVE",
"123 356 CURVE SMOOTH",
"123 134 LINE",
"123 109 OFFCURVE",
"110 44 OFFCURVE",
"107 29 CURVE",
"147 66 LINE",
"35 43 LINE",
"40 -5 LINE"
);
}
);
width = 455.4;
}
);
leftKerningGroup = lc_ShortStem;
rightKerningGroup = lc_r;
unicode = 0072;
},
{
color = 6;
glyphname = s;
layers = (
{
anchors = (
{
name = bottom;
position = "{239, 0}";
},
{
name = top;
position = "{251, 494}";
}
);
layerId = "16643525-C5DD-48EC-8E99-463BF28F5E85";
paths = (
{
closed = 1;
nodes = (
"349 -10 OFFCURVE",
"428 44 OFFCURVE",
"428 147 CURVE SMOOTH",
"428 265 OFFCURVE",
"332 299 OFFCURVE",
"261 327 CURVE SMOOTH",
"215 345 OFFCURVE",
"178 361 OFFCURVE",
"178 389 CURVE SMOOTH",
"178 410 OFFCURVE",
"197 428 OFFCURVE",
"243 428 CURVE SMOOTH",
"287 428 OFFCURVE",
"316 413 OFFCURVE",
"343 400 CURVE",
"294 456 LINE",
"302 440 OFFCURVE",
"327 382 OFFCURVE",
"327 373 CURVE SMOOTH",
"327 330 LINE",
"394 325 LINE",
"406 484 LINE",
"365 497 OFFCURVE",
"317 508 OFFCURVE",
"246 508 CURVE SMOOTH",
"134 508 OFFCURVE",
"59 457 OFFCURVE",
"59 348 CURVE SMOOTH",
"59 245 OFFCURVE",
"153 208 OFFCURVE",
"218 178 CURVE SMOOTH",
"263 157 OFFCURVE",
"300 145 OFFCURVE",
"300 113 CURVE SMOOTH",
"300 84 OFFCURVE",
"270 69 OFFCURVE",
"236 69 CURVE SMOOTH",
"195 69 OFFCURVE",
"144 91 OFFCURVE",
"116 105 CURVE",
"158 58 LINE",
"150 82 OFFCURVE",
"139 119 OFFCURVE",
"139 129 CURVE",
"139 174 LINE",
"68 179 LINE",
"56 14 LINE",
"113 2 OFFCURVE",
"177 -10 OFFCURVE",
"233 -10 CURVE SMOOTH"
);
}
);
width = 475;
},
{
anchors = (
{
name = bottom;
position = "{212, 0}";
},
{
name = top;
position = "{214, 494}";
}
);
layerId = "4E6502B1-B066-4D3E-9BD1-B1D9901B4F4F";
paths = (
{
closed = 1;
nodes = (
"317 -10 OFFCURVE",
"382 30 OFFCURVE",
"382 135 CURVE SMOOTH",
"382 220 OFFCURVE",
"307 256 OFFCURVE",
"239 289 CURVE SMOOTH",
"183 314 OFFCURVE",
"133 339 OFFCURVE",
"133 386 CURVE SMOOTH",
"133 429 OFFCURVE",
"165 453 OFFCURVE",
"212 453 CURVE SMOOTH",
"249 453 OFFCURVE",
"268 448 OFFCURVE",
"301 429 CURVE",
"267 466 LINE",
"275 446 OFFCURVE",
"295 394 OFFCURVE",
"295 383 CURVE SMOOTH",
"295 348 LINE",
"352 345 LINE",
"353 486 LINE",
"306 496 OFFCURVE",
"255 503 OFFCURVE",
"211 503 CURVE SMOOTH",
"124 503 OFFCURVE",
"57 454 OFFCURVE",
"57 372 CURVE SMOOTH",
"57 284 OFFCURVE",
"131 249 OFFCURVE",
"198 217 CURVE SMOOTH",
"254 190 OFFCURVE",
"304 166 OFFCURVE",
"304 117 CURVE SMOOTH",
"304 62 OFFCURVE",
"269 38 OFFCURVE",
"216 38 CURVE SMOOTH",
"176 38 OFFCURVE",
"146 47 OFFCURVE",
"122 82 CURVE",
"151 39 LINE",
"135 63 OFFCURVE",
"117 109 OFFCURVE",
"117 124 CURVE",
"117 164 LINE",
"60 160 LINE",
"60 31 LINE",
"83 17 OFFCURVE",
"133 -10 OFFCURVE",
"215 -10 CURVE SMOOTH"
);
}
);
width = 429.9;
}
);
leftKerningGroup = lc_s;
rightKerningGroup = lc_s;
unicode = 0073;
},
{
color = 6;
glyphname = saltillo;
layers = (
{
layerId = "16643525-C5DD-48EC-8E99-463BF28F5E85";
paths = (
{
closed = 1;
nodes = (
"155 638 LINE",
"137 655 LINE",
"27 655 LINE",
"34 592 OFFCURVE",
"55 453 OFFCURVE",
"54 443 CURVE SMOOTH",
"41 253 LINE",
"133 248 LINE"
);
}
);
width = 187;
},
{
layerId = "4E6502B1-B066-4D3E-9BD1-B1D9901B4F4F";
paths = (
{
closed = 1;
nodes = (
"125 638 LINE",
"107 655 LINE",
"27 655 LINE",
"34 588 OFFCURVE",
"54 454 OFFCURVE",
"54 444 CURVE SMOOTH",
"47 263 LINE",
"103 258 LINE"
);
}
);
width = 160.6;
}
);
leftKerningGroup = saltillo;
rightKerningGroup = saltillo;
unicode = A78C;
},
{
color = 6;
glyphname = germandbls;
layers = (
{
layerId = "16643525-C5DD-48EC-8E99-463BF28F5E85";
paths = (
{
closed = 1;
nodes = (
"596 -10 OFFCURVE",
"668 51 OFFCURVE",
"668 153 CURVE SMOOTH",
"668 318 OFFCURVE",
"440 302 OFFCURVE",
"440 375 CURVE SMOOTH",
"440 443 OFFCURVE",
"595 473 OFFCURVE",
"595 613 CURVE SMOOTH",
"595 734 OFFCURVE",
"478 770 OFFCURVE",
"336 770 CURVE SMOOTH",
"197 770 OFFCURVE",
"105 718 OFFCURVE",
"104 580 CURVE SMOOTH",
"104 163 LINE SMOOTH",
"104 125 OFFCURVE",
"95 64 OFFCURVE",
"88 14 CURVE",
"157 90 LINE",
"39 65 LINE",
"44 -5 LINE",
"88 -2 OFFCURVE",
"131 0 OFFCURVE",
"175 0 CURVE",
"250 0 LINE",
"249 30 OFFCURVE",
"244 143 OFFCURVE",
"244 193 CURVE SMOOTH",
"244 546 LINE SMOOTH",
"244 633 OFFCURVE",
"256 686 OFFCURVE",
"336 686 CURVE SMOOTH",
"411 684 OFFCURVE",
"482 664 OFFCURVE",
"482 609 CURVE SMOOTH",
"482 494 OFFCURVE",
"310 482 OFFCURVE",
"310 347 CURVE SMOOTH",
"310 185 OFFCURVE",
"542 209 OFFCURVE",
"542 112 CURVE SMOOTH",
"542 86 OFFCURVE",
"516 71 OFFCURVE",
"485 71 CURVE SMOOTH",
"450 71 OFFCURVE",
"399 101 OFFCURVE",
"353 120 CURVE",
"419 58 LINE",
"411 82 OFFCURVE",
"400 117 OFFCURVE",
"400 128 CURVE",
"400 173 LINE",
"329 178 LINE",
"317 12 LINE",
"358 3 OFFCURVE",
"432 -10 OFFCURVE",
"486 -10 CURVE SMOOTH"
);
},
{
closed = 1;
nodes = (
"120 419 LINE",
"120 497 LINE",
"44 482 LINE",
"47 419 LINE"
);
}
);
width = 698;
},
{
layerId = "4E6502B1-B066-4D3E-9BD1-B1D9901B4F4F";
paths = (
{
closed = 1;
nodes = (
"547 -10 OFFCURVE",
"606 28 OFFCURVE",
"606 130 CURVE SMOOTH",
"606 274 OFFCURVE",
"373 289 OFFCURVE",
"373 377 CURVE SMOOTH",
"373 469 OFFCURVE",
"524 464 OFFCURVE",
"524 609 CURVE SMOOTH",
"524 715 OFFCURVE",
"427 770 OFFCURVE",
"323 770 CURVE SMOOTH",
"199 770 OFFCURVE",
"124 700 OFFCURVE",
"124 577 CURVE SMOOTH",
"124 134 LINE SMOOTH",
"124 120 OFFCURVE",
"117 62 OFFCURVE",
"111 26 CURVE",
"148 66 LINE",
"34 43 LINE",
"39 -5 LINE",
"77 -3 OFFCURVE",
"139 0 OFFCURVE",
"155 0 CURVE",
"205 0 LINE",
"202 54 OFFCURVE",
"199 114 OFFCURVE",
"199 164 CURVE SMOOTH",
"199 546 LINE SMOOTH",
"199 650 OFFCURVE",
"215 714 OFFCURVE",
"323 714 CURVE SMOOTH",
"399 714 OFFCURVE",
"458 675 OFFCURVE",
"458 609 CURVE SMOOTH",
"458 494 OFFCURVE",
"296 507 OFFCURVE",
"296 372 CURVE SMOOTH",
"296 218 OFFCURVE",
"526 223 OFFCURVE",
"526 118 CURVE SMOOTH",
"526 65 OFFCURVE",
"494 38 OFFCURVE",
"444 38 CURVE SMOOTH",
"408 38 OFFCURVE",
"383 47 OFFCURVE",
"338 73 CURVE",
"379 25 LINE",
"371 58 OFFCURVE",
"358 109 OFFCURVE",
"358 124 CURVE SMOOTH",
"358 161 LINE",
"302 164 LINE",
"291 31 LINE",
"318 13 OFFCURVE",
"379 -10 OFFCURVE",
"445 -10 CURVE SMOOTH"
);
},
{
closed = 1;
nodes = (
"140 442 LINE",
"139 496 LINE",
"41 484 LINE",
"44 442 LINE"
);
}
);
width = 639.7;
}
);
leftKerningGroup = lc_LongStem;
rightKerningGroup = lc_s;
unicode = 00DF;
},
{
color = 6;
glyphname = t;
layers = (
{
anchors = (
{
name = bottom;
position = "{223, 0}";
},
{
name = center;
position = "{178, 270}";
},
{
name = top;
position = "{191, 550}";
},
{
name = topright;
position = "{337, 543}";
}
);
layerId = "16643525-C5DD-48EC-8E99-463BF28F5E85";
paths = (
{
closed = 1;
nodes = (
"284 -15 OFFCURVE",
"339 12 OFFCURVE",
"384 43 CURVE",
"350 102 LINE",
"329 90 OFFCURVE",
"307 81 OFFCURVE",
"285 81 CURVE SMOOTH",
"250 81 OFFCURVE",
"234 108 OFFCURVE",
"234 143 CURVE SMOOTH",
"234 607 LINE",
"176 611 LINE",
"162 586 OFFCURVE",
"124 523 OFFCURVE",
"104 494 CURVE",
"153 540 LINE",
"120 520 OFFCURVE",
"56 495 OFFCURVE",
"21 482 CURVE",
"24 419 LINE",
"155 419 LINE",
"94 482 LINE",
"94 146 LINE SMOOTH",
"94 46 OFFCURVE",
"134 -15 OFFCURVE",
"234 -15 CURVE SMOOTH"
);
},
{
closed = 1;
nodes = (
"350 419 LINE",
"359 494 LINE",
"214 494 LINE",
"214 419 LINE"
);
}
);
width = 410;
},
{
anchors = (
{
name = bottom;
position = "{210, 0}";
},
{
name = center;
position = "{148, 270}";
},
{
name = top;
position = "{161, 539}";
},
{
name = topright;
position = "{280, 543}";
}
);
layerId = "4E6502B1-B066-4D3E-9BD1-B1D9901B4F4F";
paths = (
{
closed = 1;
nodes = (
"263 -15 OFFCURVE",
"310 4 OFFCURVE",
"358 43 CURVE",
"331 86 LINE",
"305 63 OFFCURVE",
"272 48 OFFCURVE",
"243 48 CURVE SMOOTH",
"197 48 OFFCURVE",
"185 74 OFFCURVE",
"185 120 CURVE SMOOTH",
"185 596 LINE",
"149 600 LINE",
"141 582 OFFCURVE",
"102 500 OFFCURVE",
"90 485 CURVE",
"124 518 LINE",
"100 509 OFFCURVE",
"47 491 OFFCURVE",
"22 482 CURVE",
"25 442 LINE",
"141 442 LINE",
"109 475 LINE",
"109 124 LINE SMOOTH",
"109 35 OFFCURVE",
"132 -15 OFFCURVE",
"221 -15 CURVE SMOOTH"
);
},
{
closed = 1;
nodes = (
"328 442 LINE",
"333 494 LINE",
"168 494 LINE",
"168 442 LINE"
);
}
);
width = 385.8;
}
);
leftKerningGroup = lc_t;
rightKerningGroup = lc_t;
unicode = 0074;
},
